<svg width="171" height="24" viewBox="0 0 171 24" fill="none" xmlns="http://www.w3.org/2000/svg">
<path d="M85.9466 7.66588C86.0522 5.64706 86.7696 4.00235 87.895 2.71765V1.00235H86.3968C83.3723 1.00235 80.8119 2.16706 79.3208 4.79294H79.2364V1.29176H71.478V22.6518H79.2364V14.0259C79.2364 10.3694 80.3055 7.57412 84.6102 7.57412C85.0815 7.58118 85.5246 7.60941 85.9466 7.66588ZM144.686 7.58824C145.333 5.70353 146.374 4.01647 147.732 2.66824V1.00235H146.241C143.216 1.00235 140.656 2.16706 139.165 4.79294H139.08V1.29176H131.315V22.6518H139.08V14.0259C139.08 10.3694 140.15 7.57412 144.454 7.57412L144.686 7.58824ZM101.702 6.78353C100.507 6.16235 98.8397 5.74588 97.5173 5.74588C96.624 5.74588 95.0907 6.12 95.0907 7.2C95.0907 8.66118 97.5173 8.86588 98.5935 9.07765C102.209 9.78353 104.945 11.4494 104.945 15.4024C104.945 21.0212 99.6978 23.3576 94.6194 23.3576C91.5034 23.3576 88.4437 22.4824 85.7919 20.9012L88.6054 15.6071C90.181 16.6941 92.8258 17.7741 94.746 17.7741C95.7307 17.7741 97.1797 17.3153 97.1797 16.1506C97.1797 14.4847 94.746 14.4 92.3123 13.7718C89.8856 13.1506 87.4589 11.9859 87.4589 8.15294C87.4589 2.90824 92.3123 0.578824 97.0953 0.578824C99.5712 0.578824 102.04 0.952941 104.298 1.94824L101.702 6.78353ZM171 22.6518H163.242V20.2729H163.157C161.793 22.3976 159.099 23.3506 156.545 23.3506C150.06 23.3506 145.502 18.0635 145.502 11.9435C145.502 5.83059 149.983 0.578824 156.461 0.578824C158.972 0.578824 161.624 1.49647 163.242 3.36706V1.29176H171V22.6518ZM153.521 11.9929C153.521 14.6965 155.357 16.7788 158.508 16.7788C161.659 16.7788 163.488 14.7035 163.488 11.9929C163.488 9.36706 161.659 7.16471 158.508 7.16471C155.357 7.16471 153.521 9.36706 153.521 11.9929ZM130.091 13.2424H113.758C113.758 16.32 115.426 17.9859 118.619 17.9859C120.279 17.9859 121.475 17.4494 122.326 16.0306H129.789C128.551 21.0706 123.648 23.3576 118.661 23.3576C111.416 23.3576 106 19.3553 106 11.9929C106 4.87765 110.98 0.585882 118.105 0.585882C125.695 0.585882 130.091 5.16706 130.091 12.4518V13.2424ZM122.888 8.86588C122.502 6.82588 120.581 5.49177 118.499 5.49177C116.234 5.49177 114.37 6.65647 113.892 8.86588H122.888ZM46.8033 11.6188C46.7962 11.4353 46.7822 11.2518 46.7681 11.0753V11.0682C46.5922 9.08471 45.9451 7.23529 44.8338 5.55529C44.3484 4.81412 43.7787 4.13647 43.1457 3.52235C42.2242 2.63294 41.1551 1.89176 39.9453 1.31294C38.1376 0.437647 36.1329 0 33.9946 0C33.7836 0 33.5655 0 33.3475 0.0141176C31.8493 0.0847059 30.3933 0.367059 29.0287 0.875294C27.6571 1.36941 26.4543 2.02588 25.4766 2.82353C25.2797 2.98588 25.0616 3.17647 24.8295 3.39529L24.6607 3.55765L24.4286 3.80471L24.3231 3.91059L24.2738 3.96706L23.9995 4.25647C23.8026 4.48235 23.6126 4.70824 23.4227 4.94118L23.4157 4.93412C23.0429 5.37882 22.6912 5.85882 22.438 6.28235C22.2621 6.55765 22.0933 6.83294 21.9316 7.11529L19.6948 11.6541L19.5752 11.8871L19.329 12.3882C18.8367 13.3835 18.3162 14.3788 17.7253 15.1976C16.417 16.6376 14.9329 17.3435 13.0337 17.3435C12.9001 17.3435 12.7664 17.3365 12.6258 17.3294C11.4792 17.28 10.4945 17.0118 9.62231 16.4965C9.53087 16.44 9.43943 16.3835 9.34799 16.3271C8.63757 15.8541 8.08893 15.24 7.68097 14.4776C7.21673 13.6165 7.01275 12.7341 7.04792 11.7953C7.04792 11.7671 7.04792 11.7459 7.04792 11.7247C7.11123 10.2353 7.67393 9.07765 8.81342 8.08235C9.08774 7.84941 9.37613 7.63765 9.68562 7.46118C9.72782 7.43294 9.77002 7.41177 9.81222 7.39059C10.6563 6.92471 11.6199 6.69882 12.7242 6.69882L13.0689 6.70588C14.8203 6.76941 16.1708 7.32 17.254 8.39294L20.6373 2.30118C19.8284 1.76471 18.9211 1.29176 17.9082 0.917647C17.873 0.903529 17.8308 0.889412 17.7886 0.875294C17.669 0.832941 17.5495 0.790588 17.4229 0.748235C16.3537 0.388235 15.2283 0.169412 14.0747 0.0705882C14.0466 0.0635294 14.0114 0.0635294 13.9833 0.0564706C13.8075 0.0423529 13.6246 0.0211765 13.4487 0.0141176C13.2658 0.00705882 13.0759 0 12.879 0H12.7664C10.6422 0.00705882 8.66571 0.444706 6.85801 1.31294C4.83929 2.28706 3.2004 3.71294 1.98355 5.54824C0.773724 7.38353 0.105508 9.42353 0.0140677 11.6118C0.00703385 11.8024 0 11.9859 0 12.1694C0 15.2259 1.11135 17.9224 3.31998 20.1812C5.62708 22.5529 8.63054 23.8306 12.2319 23.9788C12.464 23.9859 12.6891 23.9929 12.9212 23.9929C14.961 23.9929 16.8461 23.6259 18.5342 22.8988C18.9562 22.7153 19.3642 22.5035 19.7862 22.2706C20.0113 22.1365 20.2294 21.9953 20.4404 21.8471L20.6022 21.7412L20.8694 21.5576C21.186 21.3247 21.4884 21.0776 21.7768 20.8094L21.8753 20.7106C22.0441 20.5482 22.2129 20.3788 22.3817 20.2094L22.9866 19.5247L23.2187 19.2353L23.3243 19.08L23.4298 18.9247C24.3301 17.4071 27.2632 11.88 27.2632 11.88V11.8659L27.4391 11.5271L27.5868 11.2659C28.0158 10.4753 28.3324 9.91765 28.7474 9.32471L28.7614 9.31059C29.7251 7.90588 31.3851 6.91059 33.3405 6.74118C36.6182 6.45882 39.4881 8.61882 39.7553 11.5694C40.0156 14.52 37.5748 17.1388 34.2971 17.4212C33.6148 17.4776 32.9536 17.4353 32.3276 17.2941L32.3135 17.3012C29.9079 16.8 28.3746 15.0353 27.6219 14.2518L24.4708 20.0753C24.4708 20.0753 25.4485 21.0635 26.1237 21.5647C26.799 22.0588 27.6641 22.5459 28.3605 22.8494C30.0416 23.5694 31.8704 24 33.8961 24C34.1283 24 34.0861 24 34.3252 23.9929C37.9265 23.8447 41.134 22.4612 43.4481 20.0894C45.6427 17.8376 46.8314 15.2682 46.8384 12.2259V12.1341C46.8173 11.9576 46.8103 11.7882 46.8033 11.6188ZM58.8733 23.3718C57.2345 23.3718 55.7574 23.1812 54.4209 22.8C53.0845 22.4188 51.952 21.8188 51.0095 20.9929C50.067 20.1671 49.3354 19.1153 48.822 17.8376C48.3085 16.56 48.0553 15.0212 48.0553 13.2282V1.28471H55.5393V13.1294C55.5393 14.4706 55.8558 15.4447 56.4959 16.0518C57.136 16.6588 57.9449 16.9624 58.9296 16.9624C59.9355 16.9624 60.7514 16.68 61.3844 16.1153C62.0104 15.5506 62.327 14.6047 62.327 13.2847V1.28471H69.811V13.0659C69.811 14.9224 69.5507 16.4965 69.0232 17.7953C68.4957 19.0941 67.7571 20.16 66.8075 20.9859C65.8509 21.8118 64.6974 22.4118 63.3469 22.7929C61.9964 23.1812 60.5052 23.3718 58.8733 23.3718Z" fill="#0056D2"/>
</svg>
