<svg width="138" height="40" viewBox="0 0 138 40" fill="none" xmlns="http://www.w3.org/2000/svg">
<path d="M0 7.45312H4.81473V18.1465H14.9643V7.45312H19.7791V33.6798H14.9643V22.7731H4.81473V33.6798H0V7.45312ZM35.0235 25.1465C35.0235 27.3465 33.2363 29.1331 31.0357 29.1331C28.835 29.1331 27.0478 27.3465 27.0478 25.1465V13.8531H22.4865V25.1465C22.4865 29.8531 26.3276 33.6931 31.0357 33.6931C35.7437 33.6931 39.5848 29.8665 39.5848 25.1465V13.8531H35.0235V25.1465ZM52.3218 13.9865C50.0545 13.9865 48.4807 14.6398 46.9469 16.1465V7.45312H42.3723V23.5465C42.3723 29.5731 46.7335 33.6931 51.615 33.6931C57.0565 33.6931 61.8179 29.4931 61.8179 23.8398C61.8312 18.2531 57.43 13.9865 52.3218 13.9865ZM52.4285 29.4531C49.321 29.4531 46.9603 26.8665 46.9603 23.8398C46.9603 20.8131 49.3343 18.2131 52.4285 18.2131C55.056 18.2131 57.43 20.7998 57.43 23.8398C57.43 26.8665 55.056 29.4531 52.4285 29.4531ZM69.5135 15.1331C69.5135 12.8265 71.0473 12.1065 72.7277 12.1065C74.0748 12.1065 75.862 13.1331 77.0357 14.3731L80.0232 10.8665C78.5294 8.85312 75.5019 7.46646 73.0212 7.46646C68.0597 7.46646 64.4854 10.3465 64.4854 15.1331C64.4854 23.9998 75.3952 21.1865 75.3952 26.1598C75.3952 27.6931 73.9014 29.0398 72.1809 29.0398C69.4735 29.0398 68.6065 27.7198 67.3662 26.3331L64.0452 29.7598C66.1658 32.3465 68.7933 33.6665 71.9275 33.6665C76.6355 33.6665 80.4366 30.7465 80.4366 26.1865C80.4233 16.3465 69.5135 19.3998 69.5135 15.1331ZM92.4801 13.7331C87.5854 13.7331 83.2375 17.8531 83.2375 23.8798V39.9998H87.8121V31.2798C89.3326 32.7731 90.9197 33.4398 93.187 33.4398C98.2952 33.4398 102.696 29.1731 102.696 23.5865C102.683 17.9198 97.9217 13.7331 92.4801 13.7331ZM93.2937 29.1998C90.1861 29.1998 87.8254 26.5998 87.8254 23.5731C87.8254 20.5465 90.1995 17.9465 93.2937 17.9465C95.9211 17.9465 98.2952 20.5331 98.2952 23.5731C98.2952 26.5998 95.9211 29.1998 93.2937 29.1998ZM136.386 29.4531C133.692 29.4531 132.919 28.2798 132.919 26.4931V18.5731H137.12V14.5598H132.919V9.27979L128.291 11.3598V27.4931C128.291 31.6131 131.131 33.6931 135.039 33.6931C135.626 33.6931 136.426 33.6531 136.866 33.5465L138 29.3865C137.48 29.4131 136.893 29.4531 136.386 29.4531Z" fill="#45535E"/>
<path d="M124.302 18.8133C123.422 17.3067 122.195 16.0933 120.648 15.1867C119.501 14.52 118.3 14.0933 116.953 13.9067V9.10667C118.3 8.53333 119.14 7.26667 119.14 5.78667C119.14 3.77333 117.527 2.14667 115.513 2.14667C113.499 2.14667 111.858 3.77333 111.858 5.78667C111.858 7.26667 112.645 8.53333 113.992 9.10667V13.9067C112.912 14.0667 111.792 14.4 110.778 14.92C108.684 13.3333 101.855 8.13333 97.8543 5.10667C97.9476 4.76 98.0277 4.41333 98.0277 4.04C98.0277 1.81333 96.2271 0 93.9865 0C91.7592 0 89.9453 1.81333 89.9453 4.04C89.9453 6.26667 91.7592 8.08 93.9865 8.08C94.7467 8.08 95.4536 7.85333 96.0537 7.49333L96.894 8.13333L108.497 16.4933C107.884 17.0533 107.31 17.6933 106.857 18.4133C105.937 19.8667 105.363 21.48 105.363 23.24V23.6133C105.363 24.8533 105.603 26.0133 106.003 27.1067C106.35 28.0667 106.87 28.9333 107.51 29.72L103.656 33.5733C102.522 33.1467 101.229 33.4267 100.375 34.2933C99.7882 34.88 99.4547 35.6667 99.4681 36.5067C99.4681 37.3467 99.7882 38.12 100.388 38.7067C100.975 39.2933 101.762 39.6267 102.589 39.6267C103.416 39.6267 104.216 39.2933 104.803 38.7067C105.39 38.12 105.723 37.3333 105.723 36.5067C105.723 36.1867 105.67 35.8667 105.577 35.5733L109.551 31.6C110.098 31.9733 110.685 32.2933 111.325 32.5733C112.579 33.1067 113.952 33.44 115.459 33.44H115.739C117.407 33.44 118.98 33.0533 120.461 32.2533C122.021 31.4 123.235 30.2533 124.155 28.7733C125.075 27.2933 125.596 25.6533 125.596 23.8533V23.76C125.582 21.9467 125.169 20.32 124.302 18.8133ZM119.447 27.16C118.367 28.36 117.127 29.0933 115.726 29.0933H115.499C114.699 29.0933 113.912 28.8667 113.152 28.4667C112.285 28.0267 111.632 27.3867 111.085 26.5867C110.525 25.8 110.231 24.9467 110.231 24.0267V23.7467C110.231 22.8533 110.405 22 110.831 21.2C111.298 20.32 111.925 19.64 112.752 19.1067C113.565 18.5733 114.446 18.3067 115.406 18.3067H115.499C116.38 18.3067 117.207 18.48 117.993 18.88C118.794 19.3067 119.447 19.8933 119.954 20.6667C120.447 21.44 120.741 22.2667 120.834 23.1733C120.848 23.36 120.861 23.56 120.861 23.7333C120.861 24.9867 120.381 26.1333 119.447 27.16Z" fill="#F8761F"/>
</svg>
