<svg width="142" height="41" viewBox="0 0 142 41" fill="none" xmlns="http://www.w3.org/2000/svg">
<g opacity="0.3">
<path d="M125.786 18.9671C125.378 17.7856 124.461 17.0447 123.254 16.7243C121.34 16.2036 119.566 16.514 117.961 17.7456L117.223 18.3163C115.658 16.2637 112.309 15.683 109.428 17.9058L108.59 16.8545H105.789V30.1313H109.797V21.0498C109.976 20.9296 110.066 20.8696 110.185 20.8295C112.448 19.678 113.993 20.5792 114.043 23.1124V30.1313H118.12V21.0097C118.439 20.8395 118.768 20.6893 119.117 20.5592C121.051 19.9384 122.188 20.6993 122.357 22.7219C122.387 22.9822 122.387 23.2526 122.387 23.5129V30.1513H126.395C126.424 30.0312 126.434 29.921 126.444 29.7909C126.444 27.1175 126.484 24.4441 126.405 21.7807C126.375 20.8295 126.095 19.8783 125.786 18.9671Z" fill="#0C1327"/>
<path d="M70.295 12.3486C70.295 15.6428 70.305 18.8469 70.285 22.0409C70.285 22.7118 70.2252 23.3927 70.0956 24.0535C69.8663 25.1649 69.2583 26.066 68.0919 26.2463C67.1449 26.3865 66.1779 26.3865 65.2408 26.2463C64.234 26.1061 63.5461 25.3952 63.3069 24.414C63.0975 23.6229 62.9879 22.8019 62.9679 21.9909C62.9281 19.1072 62.958 16.2336 62.958 13.3499V12.3486H58.7212V13.2598C58.7212 15.9332 58.7113 18.6066 58.7312 21.27C58.7312 22.4114 58.791 23.5529 58.9106 24.6943C59.2496 27.608 60.8446 29.5705 63.4464 30.1913C65.3206 30.6318 67.2844 30.6619 69.1785 30.2814C71.9897 29.7507 73.6744 28.0686 74.2825 25.2851C74.4221 24.6543 74.5018 24.0134 74.5118 23.3626C74.5517 19.8782 74.5517 16.3737 74.5616 12.8793C74.5616 12.7091 74.5317 12.5389 74.5118 12.3386H70.295V12.3486Z" fill="#0C1327"/>
<path d="M85.5484 16.7143C84.382 16.6341 83.2855 16.494 82.1889 16.534C79.4176 16.6341 77.1746 18.4364 76.407 21.1098C75.9285 22.7519 75.9285 24.4941 76.397 26.1462C77.1248 28.7696 79.0089 30.2715 81.7004 30.4617C83.3951 30.5819 84.9503 30.2514 86.3459 29.2402L87.0836 30.1613H89.5758V11.2673H85.5484V16.7143ZM85.5384 26.3164C84.3222 27.1074 83.0163 27.2777 81.7303 26.6268C80.4344 25.966 80.2151 24.6944 80.1951 23.3927C80.1951 22.9522 80.255 22.5116 80.3846 22.0911C80.9129 20.1987 82.7771 19.3776 84.8306 20.1086C85.0798 20.1887 85.2992 20.3188 85.5384 20.429V26.3164Z" fill="#0C1327"/>
<path d="M104.034 24.1136C104.084 22.6317 103.894 21.2499 103.366 19.9483C102.618 18.0559 101.223 16.9044 99.219 16.574C98.4913 16.4739 97.7635 16.4538 97.0358 16.5239C94.424 16.6941 92.4004 18.3562 91.6926 20.8694C91.1842 22.5916 91.2141 24.434 91.7424 26.1561C92.3405 28.1186 93.6564 29.4003 95.5904 30.0311C97.0059 30.4816 98.4713 30.5217 99.9268 30.3515C101.013 30.2213 102.04 29.9109 102.907 29.16L103.436 26.036C102.818 26.2963 102.269 26.5667 101.691 26.7469C100.296 27.1774 98.8801 27.3176 97.4645 26.8771C96.2084 26.4866 95.4608 25.2951 95.7 24.1035H104.034V24.1136ZM95.6003 22.101C95.8097 20.4889 96.7667 19.6279 98.2321 19.6078C99.3785 19.6078 100.565 20.4088 100.684 22.101H95.6003Z" fill="#0C1327"/>
<path d="M136.986 16.8342L134.095 25.6654C133.526 24.0234 133.038 22.5815 132.549 21.1397C132.041 19.7179 131.553 18.2861 131.054 16.8442H126.578L131.882 29.6805L129.958 34.6068H134.015L141.003 16.8242H136.986V16.8342Z" fill="#0C1327"/>
<path d="M47.3731 22.5717C46.0074 23.6831 44.7514 24.7544 43.4355 25.7457C42.9669 26.0861 42.4386 26.3264 41.8903 26.4867C40.8934 26.787 40.1857 26.4266 39.8068 25.4453C39.5975 24.9247 39.4878 24.384 39.448 23.8333C39.3084 20.9296 39.1987 18.0259 39.0891 15.1222C39.0392 13.7905 39.0093 12.4488 38.9096 11.1171C38.8199 9.83551 38.5009 8.58392 37.8231 7.47251C36.5869 5.40989 33.4966 5.22966 32.2306 7.32232C31.9116 7.86301 31.5726 8.41371 31.2835 8.98443C29.5888 12.2886 27.924 15.6128 26.2393 18.917C24.2555 22.792 22.0325 26.5467 19.331 29.9811C18.8525 30.6019 18.3241 31.1726 17.726 31.6933C16.769 32.4943 15.7522 32.2039 15.3135 31.0324C15.1042 30.4317 14.9746 29.8009 14.9347 29.16C14.7952 26.9973 15.0643 24.8546 15.5528 22.7519C16.5596 18.4565 17.6462 14.181 18.673 9.89559C19.1914 7.71282 19.65 5.53005 19.2711 3.25716C18.9721 1.49492 18.055 0.393524 16.5995 0.0831302C15.0743 -0.237277 13.5989 0.423562 12.6917 1.89543C12.3428 2.49619 12.0238 3.11698 11.7447 3.74778C9.82073 8.0132 7.29863 11.9081 4.00893 15.2424C2.78277 16.504 1.38714 17.5954 0.00147652 18.7969C-0.0483674 20.7293 1.16782 22.1011 3.03199 22.1912C3.98899 22.2212 4.86624 21.9409 5.69365 21.4903C6.18212 21.23 6.6706 20.9296 7.25875 20.5992C7.08928 21.3601 6.95969 22.011 6.81016 22.6618C6.16219 25.4353 5.67372 28.2389 5.88306 31.1125C6.04256 33.2653 6.55097 35.2978 7.84691 37.0701C9.26248 39.0025 11.1865 39.9838 13.579 40.0038C15.7721 40.0138 17.706 39.2428 19.4705 37.9712C21.4244 36.5494 22.9596 34.7371 24.3353 32.7846C26.9471 29.09 28.9409 25.0548 30.7751 20.9396L31.3533 19.7381L31.4929 19.7781C31.4929 20.7394 31.453 21.6805 31.4929 22.6318C31.5826 24.8446 31.7919 27.0373 32.6692 29.12C33.6162 31.3528 35.2212 32.8147 37.6436 33.1151C38.8797 33.2853 40.1358 33.2352 41.352 32.9849C44.5121 32.284 46.9445 30.5218 48.1707 27.3778C48.6093 26.2664 48.8386 25.0949 48.4797 23.8934C48.2803 23.2425 47.9414 22.7419 47.3731 22.5717Z" fill="#0C1327"/>
</g>
<path d="M109.805 21.0524V30.1352H105.797V16.8565H108.599L109.436 17.908C112.317 15.6949 115.677 16.2757 117.233 18.3186L117.971 17.7478C119.576 16.5161 121.351 16.2056 123.265 16.7264C124.461 17.0468 125.379 17.7878 125.797 18.9695C126.106 19.8808 126.376 20.8421 126.406 21.7835C126.485 24.4572 126.445 27.131 126.445 29.7948C126.436 29.9249 126.416 30.0451 126.396 30.1553H122.388V27.842V23.5259C122.388 23.2656 122.388 22.9952 122.358 22.7348C122.188 20.712 121.052 19.9509 119.117 20.5718C118.768 20.702 118.449 20.8522 118.12 21.0224V30.1452H114.042V29.1939V23.3857V23.1254C113.993 20.5918 112.437 19.6905 110.184 20.8421C110.084 20.8722 109.994 20.9423 109.805 21.0524Z" fill="#675D55"/>
<path d="M70.2952 12.3511H74.5027C74.5326 12.5614 74.5525 12.7316 74.5525 12.8918C74.5426 16.3767 74.5426 19.8817 74.5027 23.3766C74.4927 24.0275 74.4129 24.6584 74.2734 25.2993C73.6652 28.0732 71.9901 29.7656 69.1685 30.2963C67.2742 30.6769 65.31 30.6468 63.4356 30.2062C60.8433 29.5853 59.2381 27.6226 58.8991 24.7085C58.7794 23.5668 58.7196 22.4252 58.7196 21.2836C58.6897 18.6099 58.7096 15.9361 58.7096 13.2724V12.3611H62.947V13.3625C62.947 16.2465 62.9171 19.1206 62.957 22.0046C62.967 22.8258 63.0866 23.6369 63.296 24.4281C63.5453 25.3994 64.2232 26.1104 65.2302 26.2606C66.1774 26.4008 67.1446 26.4008 68.0818 26.2606C69.2483 26.0804 69.8465 25.1791 70.0858 24.0676C70.2154 23.4066 70.2752 22.7357 70.2752 22.0547C70.3151 18.8502 70.2952 15.6457 70.2952 12.3511ZM89.5878 30.1661H87.0952L86.3574 29.2448C84.9616 30.2563 83.3962 30.5767 81.7112 30.4666C79.0093 30.2763 77.1249 28.7642 76.407 26.1505C75.9384 24.5082 75.9384 22.7657 76.417 21.1134C77.1947 18.4396 79.428 16.6371 82.1998 16.5369C83.2965 16.4969 84.3933 16.6371 85.5598 16.7172V11.2695H89.5878V30.1661ZM85.5498 26.3207V20.4424C85.3006 20.3223 85.0812 20.1921 84.8419 20.122C82.788 19.391 80.9336 20.2121 80.3952 22.1048C80.2655 22.5154 80.2057 22.956 80.2057 23.4066C80.2356 24.7085 80.455 25.9702 81.7412 26.6412C83.0273 27.2821 84.3334 27.1118 85.5498 26.3207Z" fill="#665C54"/>
<path d="M104.052 24.1179H95.7163C95.487 25.3095 96.2348 26.5012 97.4811 26.8918C98.8869 27.3324 100.313 27.1922 101.709 26.7616C102.287 26.5813 102.835 26.3109 103.453 26.0506L102.925 29.175C102.057 29.926 101.031 30.2365 99.9438 30.3667C98.4881 30.5369 97.0224 30.4968 95.6067 30.0462C93.6724 29.4153 92.3563 28.1235 91.7581 26.1707C91.2297 24.4483 91.1998 22.6057 91.7082 20.8833C92.4161 18.3698 94.4501 16.7074 97.0523 16.5372C97.7802 16.4771 98.508 16.4871 99.2359 16.5872C101.24 16.9077 102.636 18.0693 103.384 19.962C103.912 21.2538 104.101 22.6358 104.052 24.1179ZM95.6166 22.105H100.702C100.582 20.4226 99.3954 19.6115 98.2488 19.6115C96.7832 19.6315 95.826 20.5028 95.6166 22.105Z" fill="#675C55"/>
<path d="M131.065 16.8577C131.573 18.2997 132.062 19.7217 132.56 21.1537C133.049 22.5958 133.537 24.0378 134.106 25.6801L136.997 16.8477H141.005L134.016 34.6327H129.958L131.882 29.7058L126.578 16.8677H131.065V16.8577Z" fill="#665C55"/>
<path d="M31.3582 19.7311L30.78 20.9328C28.9454 25.0486 26.9414 29.0742 24.3391 32.7795C22.9532 34.7422 21.4178 36.5448 19.4736 37.9668C17.7188 39.2386 15.7846 40.0196 13.5811 39.9996C11.1882 39.9896 9.26394 38.9982 7.84815 37.0655C6.552 35.303 6.04351 33.2601 5.88399 31.1071C5.67461 28.223 6.16316 25.4291 6.81123 22.6552C6.97076 22.0043 7.0904 21.3534 7.2599 20.5923C6.68162 20.9328 6.1831 21.2232 5.69455 21.4836C4.86701 21.9342 3.98962 22.2146 3.03246 22.1845C1.16801 22.1044 -0.048375 20.7325 0.00147675 18.7998C1.38736 17.5981 2.77324 16.5065 4.01953 15.2448C7.30975 11.9101 9.83225 8.0246 11.7565 3.74858C12.0257 3.11769 12.3547 2.48681 12.7037 1.89597C13.621 0.413887 15.0966 -0.247043 16.6121 0.0834219C18.0678 0.393859 18.985 1.49541 19.2841 3.25789C19.673 5.53109 19.2044 7.72418 18.6859 9.89724C17.649 14.1733 16.5722 18.4593 15.5652 22.7553C15.0767 24.8583 14.8075 27.0013 14.947 29.1644C14.9869 29.7953 15.1165 30.4362 15.3259 31.037C15.7646 32.2087 16.7816 32.4991 17.7387 31.6979C18.337 31.1772 18.8654 30.6064 19.344 29.9855C22.0459 26.5507 24.2594 22.7954 26.2534 18.9199C27.9484 15.6153 29.6134 12.2906 31.2984 8.98596C31.5776 8.41515 31.9166 7.87439 32.2456 7.32362C33.5118 5.23067 36.5927 5.42094 37.839 7.48384C38.507 8.59541 38.836 9.84717 38.9257 11.129C39.0255 12.4608 39.0554 13.8027 39.1052 15.1346C39.2249 18.0387 39.3246 20.9428 39.4641 23.8469C39.504 24.3876 39.6237 24.9384 39.8231 25.4592C40.202 26.4305 40.9098 26.791 41.9069 26.5006C42.4652 26.3404 42.9937 26.1001 43.4523 25.7596C44.7684 24.7582 46.0246 23.6967 47.3906 22.5851C47.9589 22.7553 48.2979 23.2561 48.4873 23.897C48.8463 25.0986 48.6169 26.2703 48.1782 27.3819C46.9519 30.5163 44.5191 32.2888 41.3585 32.9898C40.1421 33.2401 38.8958 33.2902 37.6495 33.1199C35.2367 32.8195 33.6215 31.3575 32.6743 29.1243C31.7969 27.0514 31.5876 24.8583 31.4978 22.6352C31.458 21.6838 31.4978 20.7425 31.4978 19.7812L31.3582 19.7311Z" fill="#EC5250"/>
</svg>
