<svg width="155" height="38" viewBox="0 0 155 38" fill="none" xmlns="http://www.w3.org/2000/svg">
<path d="M40.4754 13.4668H56.0536V16.3839H49.9157V32.8134H46.5577V16.3839H40.4531L40.4754 13.4668ZM55.3864 18.8092H58.2663V21.5139H58.3219C58.422 21.1227 58.5999 20.7651 58.8557 20.4074C59.1114 20.0498 59.4228 19.7145 59.8008 19.4239C60.1566 19.1109 60.5681 18.8874 61.0351 18.6974C61.4687 18.5186 61.9357 18.418 62.3916 18.418C62.7475 18.418 63.0032 18.4404 63.1366 18.4404C63.2701 18.4627 63.4146 18.4962 63.548 18.4962V21.458C63.3479 21.4021 63.1144 21.3798 62.8809 21.3574C62.6474 21.3351 62.4472 21.3015 62.2137 21.3015C61.7022 21.3015 61.213 21.4021 60.746 21.6145C60.279 21.8157 59.9009 22.1286 59.5451 22.5198C59.2115 22.9333 58.9335 23.4251 58.7222 24.0174C58.5221 24.6098 58.4109 25.3027 58.4109 26.0851V32.7463H55.3308L55.3864 18.8092ZM77.6696 32.8134H74.6452V30.8575H74.5896C74.2004 31.584 73.6444 32.1204 72.8994 32.5563C72.1544 32.9922 71.3872 33.2046 70.62 33.2046C68.7964 33.2046 67.4621 32.7687 66.6392 31.841C65.8164 30.9357 65.405 29.5498 65.405 27.7169V18.8204H68.485V27.4151C68.485 28.6557 68.7186 29.5275 69.2078 30.0192C69.6748 30.5334 70.342 30.7904 71.187 30.7904C71.832 30.7904 72.3657 30.6898 72.7994 30.4775C73.233 30.2763 73.5999 30.0081 73.8557 29.6728C74.1337 29.3375 74.3227 28.9239 74.445 28.4657C74.5785 27.9963 74.6229 27.4822 74.6229 26.9457V18.8204H77.703V32.8246L77.6696 32.8134ZM82.9069 28.3204C83.0069 29.2257 83.3405 29.8404 83.9298 30.2316C84.5192 30.5892 85.2419 30.7681 86.0648 30.7681C86.3427 30.7681 86.6763 30.7457 87.0433 30.6898C87.3991 30.634 87.766 30.5557 88.0662 30.4328C88.3998 30.2987 88.6556 30.1198 88.8668 29.8628C89.0781 29.6057 89.1782 29.2928 89.1448 28.9128C89.1226 28.5216 88.9891 28.1863 88.7112 27.9292C88.4332 27.6722 88.0996 27.4933 87.6882 27.3145C87.2768 27.1581 86.7875 27.0351 86.2538 26.9233C85.7201 26.8116 85.1752 26.6886 84.6081 26.5657C84.041 26.4316 83.4739 26.2863 82.9402 26.0963C82.4065 25.9175 81.9395 25.6827 81.5058 25.3475C81.0944 25.0345 80.7386 24.6545 80.5051 24.1627C80.2493 23.671 80.1159 23.101 80.1159 22.3857C80.1159 21.6145 80.2938 20.9886 80.683 20.4745C81.0388 19.9604 81.5281 19.5468 82.0951 19.2339C82.6622 18.9209 83.296 18.6974 83.9966 18.5633C84.686 18.4292 85.3531 18.3845 85.9758 18.3845C86.6986 18.3845 87.388 18.4627 88.0329 18.6192C88.6778 18.7756 89.2894 19.0104 89.8009 19.368C90.3346 19.7033 90.7794 20.1727 91.113 20.7092C91.4688 21.2457 91.68 21.9163 91.7801 22.6986H88.5666C88.4109 21.9498 88.0774 21.458 87.5659 21.201C87.0321 20.9439 86.4317 20.8098 85.7423 20.8098C85.5421 20.8098 85.253 20.8321 84.9751 20.8657C84.6637 20.9215 84.408 20.9663 84.13 21.0668C83.8742 21.1674 83.6407 21.3239 83.4628 21.5027C83.2849 21.6815 83.1848 21.9386 83.1848 22.2516C83.1848 22.6427 83.3183 22.9221 83.574 23.1569C83.8298 23.3916 84.1633 23.5704 84.597 23.7492C85.0084 23.9057 85.4977 24.0286 86.0314 24.1404C86.5651 24.241 87.1322 24.3751 87.6993 24.498C88.2664 24.6322 88.8001 24.7774 89.345 24.9675C89.8898 25.1575 90.368 25.381 90.7794 25.7163C91.1908 26.0292 91.5466 26.4092 91.8023 26.8786C92.0581 27.3481 92.1915 27.9404 92.1915 28.611C92.1915 29.4381 92.0136 30.131 91.6244 30.7234C91.2353 31.2934 90.7571 31.7851 90.1567 32.1428C89.5674 32.5004 88.878 32.7575 88.1552 32.9475C87.4102 33.104 86.6874 33.2046 85.9758 33.2046C85.1085 33.2046 84.2857 33.104 83.5407 32.8916C82.7957 32.6793 82.1285 32.3775 81.5948 31.9863C81.061 31.5728 80.6163 31.081 80.316 30.4663C80.0047 29.8739 79.8268 29.1475 79.8046 28.2981H82.9069V28.3204ZM93.0366 18.8092H95.3717V14.5733H98.4517V18.7756H101.22V21.0668H98.4517V28.5439C98.4517 28.8792 98.474 29.1363 98.5073 29.3934C98.5296 29.6281 98.6074 29.8292 98.6852 29.9857C98.7853 30.1422 98.941 30.2651 99.1189 30.3434C99.319 30.4216 99.5859 30.4775 99.9417 30.4775C100.142 30.4775 100.375 30.4775 100.587 30.4551C100.798 30.4328 101.02 30.3992 101.232 30.3545V32.7575C100.898 32.8134 100.564 32.8357 100.231 32.8581C99.8972 32.914 99.5859 32.914 99.2301 32.914C98.4072 32.914 97.7623 32.8357 97.2842 32.6793C96.7949 32.5228 96.4169 32.2881 96.1278 32.0087C95.8498 31.6957 95.6608 31.3381 95.5607 30.9022C95.4606 30.4663 95.405 29.9187 95.3828 29.3598V21.1004H93.0477V18.7533L93.0366 18.8092ZM103.378 18.8092H106.28V20.7204H106.335C106.769 19.8933 107.358 19.3233 108.137 18.9657C108.915 18.608 109.727 18.4292 110.65 18.4292C111.75 18.4292 112.707 18.608 113.53 19.0215C114.352 19.4127 115.02 19.9268 115.553 20.6198C116.087 21.2904 116.498 22.0951 116.754 22.9892C117.01 23.8945 117.166 24.8669 117.166 25.8839C117.166 26.8339 117.032 27.7392 116.81 28.6222C116.554 29.4939 116.198 30.2987 115.709 30.9692C115.22 31.6398 114.608 32.1763 113.841 32.5898C113.074 33.0034 112.195 33.2046 111.172 33.2046C110.739 33.2046 110.272 33.1487 109.838 33.0704C109.404 32.9922 108.971 32.8693 108.559 32.6793C108.148 32.5004 107.759 32.2657 107.425 31.9863C107.069 31.7069 106.78 31.3716 106.558 31.0028H106.502V37.9993H103.411V18.8092H103.378ZM114.141 25.828C114.141 25.2133 114.063 24.5874 113.885 23.9951C113.73 23.4027 113.474 22.8886 113.14 22.4192C112.807 21.9498 112.395 21.5921 111.94 21.3127C111.45 21.0333 110.883 20.8992 110.272 20.8992C108.993 20.8992 108.014 21.3351 107.347 22.2404C106.702 23.1457 106.369 24.3527 106.369 25.8504C106.369 26.5769 106.447 27.2139 106.624 27.8063C106.802 28.3986 107.036 28.9128 107.392 29.3487C107.725 29.7845 108.137 30.1198 108.626 30.3769C109.115 30.634 109.649 30.7681 110.294 30.7681C111.017 30.7681 111.573 30.6116 112.062 30.3322C112.551 30.0528 112.929 29.6616 113.263 29.2257C113.574 28.7563 113.796 28.2422 113.93 27.6498C114.063 27.0351 114.141 26.4428 114.141 25.828ZM119.556 13.4668H122.636V16.3839H119.556V13.4668ZM119.556 18.8092H122.636V32.8134H119.556V18.8092ZM125.383 13.4668H128.463V32.8134H125.383V13.4668ZM137.848 33.2046C136.747 33.2046 135.746 33.0257 134.868 32.6346C134 32.2434 133.278 31.7628 132.655 31.1145C132.066 30.4663 131.599 29.6728 131.298 28.7675C130.987 27.8622 130.809 26.8563 130.809 25.8057C130.809 24.7551 130.965 23.7716 131.298 22.8663C131.61 21.961 132.066 21.1898 132.655 20.5192C133.244 19.871 133.989 19.3568 134.868 18.9992C135.746 18.6415 136.736 18.4292 137.848 18.4292C138.948 18.4292 139.949 18.608 140.828 18.9992C141.695 19.3568 142.418 19.871 143.04 20.5192C143.63 21.1674 144.097 21.961 144.397 22.8663C144.708 23.7716 144.886 24.7439 144.886 25.8057C144.886 26.8898 144.731 27.8733 144.397 28.7675C144.063 29.6616 143.63 30.444 143.04 31.1145C142.451 31.7628 141.706 32.2769 140.828 32.6346C139.96 32.9922 138.982 33.2046 137.848 33.2046ZM137.848 30.7457C138.515 30.7457 139.126 30.5892 139.616 30.3098C140.127 30.0304 140.516 29.6392 140.85 29.1698C141.183 28.7004 141.417 28.1639 141.573 27.5939C141.728 27.0016 141.806 26.4092 141.806 25.7833C141.806 25.191 141.728 24.5986 141.573 24.0063C141.417 23.4139 141.183 22.8998 140.85 22.4304C140.516 21.961 140.105 21.6033 139.616 21.3239C139.104 21.0445 138.515 20.888 137.848 20.888C137.18 20.888 136.569 21.0445 136.08 21.3239C135.568 21.6033 135.179 21.9945 134.845 22.4304C134.512 22.8998 134.278 23.4139 134.123 24.0063C133.967 24.5986 133.889 25.191 133.889 25.7833C133.889 26.398 133.967 26.9904 134.123 27.5939C134.278 28.1863 134.512 28.7004 134.845 29.1698C135.179 29.6392 135.59 30.0192 136.08 30.3098C136.591 30.6228 137.18 30.7457 137.848 30.7457ZM145.809 18.8092H148.144V14.5733H151.224V18.7756H153.993V21.0668H151.224V28.5439C151.224 28.8792 151.246 29.1363 151.28 29.3934C151.302 29.6281 151.38 29.8292 151.458 29.9857C151.558 30.1422 151.713 30.2651 151.891 30.3434C152.092 30.4216 152.358 30.4775 152.714 30.4775C152.914 30.4775 153.148 30.4775 153.359 30.4551C153.559 30.4328 153.793 30.3992 154.004 30.3545V32.7575C153.67 32.8134 153.337 32.8357 153.003 32.8581C152.67 32.914 152.358 32.914 152.003 32.914C151.18 32.914 150.535 32.8357 150.057 32.6793C149.579 32.5228 149.189 32.2881 148.9 32.0087C148.622 31.6957 148.433 31.3381 148.333 30.9022C148.233 30.4663 148.178 29.9187 148.155 29.3598V21.1004H145.82V18.7533V18.8092H145.809Z" fill="black"/>
<path d="M36.8829 13.4677H22.7947L18.4581 0L14.0994 13.4677L0 13.4454L11.3973 21.7831L7.02744 35.2396L18.4248 26.9019L29.8221 35.2396L25.4856 21.7719L36.8829 13.4677Z" fill="#00B67A"/>
<path d="M26.4669 24.8232L25.4884 21.7832L18.4609 26.9132L26.4669 24.8232Z" fill="#005128"/>
</svg>
