<svg width="139" height="40" viewBox="0 0 139 40" fill="none" xmlns="http://www.w3.org/2000/svg">
<path fill-rule="evenodd" clip-rule="evenodd" d="M47.6158 18.4504V1.50039H53.7745C55.08 1.50039 55.9171 1.78039 56.6646 2.06039C58.3487 2.90039 59.0962 4.50039 59.0962 5.90039C59.0962 7.49039 58.4384 8.62039 57.1329 9.46039C59.0962 9.93039 60.2123 11.2404 60.2123 13.3004C60.2123 15.6404 58.8072 17.3304 56.4752 18.0804C55.6381 18.3604 54.7013 18.4504 53.3062 18.4504H47.6158ZM55.1697 4.40039C54.7013 4.21039 54.233 4.12039 53.5852 4.12039H50.4161V8.52039H53.4058C54.2429 8.52039 54.811 8.43039 55.2694 8.15039C55.9072 7.79039 56.3058 7.11039 56.2958 6.37039C56.2958 5.53039 55.8274 4.78039 55.1697 4.40039ZM56.0168 11.4304C55.6481 11.2404 55.08 11.1504 54.1532 11.1504H50.4161V15.8304H53.8742C54.9903 15.8304 55.5584 15.6404 56.0168 15.4604C56.8539 15.0904 57.2326 14.3404 57.2326 13.4004C57.2326 12.4604 56.8539 11.8004 56.0168 11.4304ZM77.0143 18.4504V1.50039H79.9043V18.4604H77.0143V18.4504ZM98.0217 18.4504V1.50039H100.912V18.4604H98.0217V18.4504ZM110.16 1.40039C112.023 1.40039 113.897 1.87039 114.923 2.34039L114.834 5.15039C113.339 4.40039 111.944 3.93039 110.17 3.93039C108.585 3.93039 107.18 4.40039 107.18 5.71039C107.18 9.18039 115.86 7.77039 115.86 13.4804C115.86 16.6604 113.249 18.6304 109.323 18.6304C106.712 18.6304 104.938 17.8804 103.622 17.1304L104.838 14.7904C105.865 15.4504 107.549 16.1004 109.412 16.1004C111.186 16.1004 112.771 15.4404 112.771 13.9504C112.771 10.3004 104.18 11.8904 104.18 6.17039C104.18 3.09039 106.612 1.40039 110.16 1.40039ZM129.483 18.4504V11.1404H121.361V18.4504H118.471V1.50039H121.361V8.43039H129.483V1.50039H132.373V18.4604H129.483V18.4504ZM53.9639 21.3604C55.7378 21.3604 57.1329 21.7304 58.6278 22.3904L57.7907 24.8304C56.9536 24.4504 55.8274 23.9904 54.2429 23.9904C51.0739 23.9904 49.1106 26.7104 49.1106 29.9904C49.1106 33.3604 50.9742 36.0804 54.2429 36.0804C55.8274 36.0804 56.9536 35.6104 57.7907 35.2404L58.6278 37.6704C57.1329 38.3304 55.7378 38.7004 53.9639 38.7004C48.9213 38.7004 46.0313 35.1404 46.0313 30.0804C46.0213 25.2904 48.9213 21.3604 53.9639 21.3604ZM117.066 21.3604C118.93 21.3604 120.335 21.7304 121.73 22.3904L120.893 24.8304C120.056 24.4504 118.93 23.9904 117.345 23.9904C114.166 23.9904 112.213 26.7104 112.213 29.9904C112.213 33.3604 114.076 36.0804 117.345 36.0804C118.93 36.0804 120.056 35.6104 120.893 35.2404L121.73 37.6704C120.335 38.3304 118.93 38.7004 117.066 38.7004C112.023 38.7004 109.133 35.1404 109.133 30.0804C109.133 25.2904 112.023 21.3604 117.066 21.3604ZM75.061 29.9804C75.061 35.0404 71.892 38.6904 67.1284 38.6904C62.3649 38.6904 59.1958 35.1304 59.1958 30.0704C59.1958 25.0104 62.3748 21.3604 67.1284 21.3604C71.9817 21.3604 75.061 24.9204 75.061 29.9804ZM72.0714 29.9804C72.0714 26.3304 69.9288 23.9804 67.1284 23.9804C64.3281 23.9804 62.1855 26.3204 62.1855 30.0704C62.1855 33.7204 64.3281 36.0704 67.1284 36.0704C69.9188 36.0604 72.0714 33.7204 72.0714 29.9804ZM77.0143 32.0404V21.5504H79.9043V32.1404C79.9043 35.0404 81.3991 36.0704 83.8208 36.0704C86.2424 36.0704 87.7373 35.0404 87.7373 32.1404V21.5504H90.6273V32.0404C90.6273 36.6304 88.0163 38.6904 83.8108 38.6904C79.6352 38.6904 77.0143 36.6304 77.0143 32.0404ZM96.0585 26.1404H95.9688C96.0585 26.7004 96.0585 27.6404 96.0585 28.3904V38.4104H93.1685V21.5504H96.3475L104.091 33.0704H104.18C104.091 32.5104 104.091 31.5704 104.091 30.8204V21.5504H106.981V38.4104H104.46L96.0585 26.1404ZM123.972 38.4104V21.5504H126.862V38.4104H123.972ZM129.483 38.4104V21.5504H132.373V35.7904H139V38.4104H129.483ZM95.7795 1.59039H82.1565V4.21039H87.5678V18.4504H90.4579V4.22039H95.7795V1.59039V1.59039ZM71.882 18.4504C69.4504 13.3004 68.8026 11.8904 67.7762 11.8904H65.0655V18.4504H62.1755V1.59039H67.8659C72.2507 1.59039 73.8452 3.84039 73.8452 6.37039C73.8452 8.71039 72.6294 10.2104 70.7659 10.7704C71.5133 11.2404 72.3504 12.8304 75.1507 18.4504H71.882ZM68.0552 4.12039H65.0655V9.27039H67.9556C70.0085 9.27039 70.9452 8.24039 70.9452 6.65039C70.9452 5.25039 70.1081 4.12039 68.0552 4.12039Z" fill="#164C82"/>
<path fill-rule="evenodd" clip-rule="evenodd" d="M19.3233 9.65002C19.3233 14.99 14.9384 19.3 9.61679 19.3C4.38486 19.3 0 14.99 0 9.65002C0 4.31002 4.38486 1.73662e-05 9.61679 1.73662e-05C14.9384 1.73662e-05 19.3233 4.31002 19.3233 9.65002ZM39.8623 9.65002C39.8723 14.97 35.5771 19.29 30.2755 19.3C30.2655 19.3 30.2555 19.3 30.2456 19.3C24.9239 19.3 20.6288 14.99 20.6288 9.65002C20.6288 4.31002 24.9239 1.73662e-05 30.2456 1.73662e-05C35.5472 -0.00998263 39.8524 4.30002 39.8623 9.62002C39.8623 9.63002 39.8623 9.64002 39.8623 9.65002ZM19.3233 30.35C19.3233 35.69 14.9384 40 9.61679 40C4.38486 40 0 35.69 0 30.35C0 25.01 4.38486 20.7 9.61679 20.7C14.9384 20.7 19.3233 25.01 19.3233 30.35ZM39.8623 30.35C39.8723 35.67 35.5771 39.99 30.2755 40C30.2655 40 30.2555 40 30.2456 40C24.9439 40.01 20.6387 35.7 20.6288 30.38C20.6288 30.37 20.6288 30.36 20.6288 30.35C20.6188 25.03 24.914 20.71 30.2157 20.7C30.2256 20.7 30.2356 20.7 30.2456 20.7C35.5472 20.69 39.8524 25 39.8623 30.32C39.8623 30.33 39.8623 30.34 39.8623 30.35Z" fill="#00A0E2"/>
</svg>
