<svg width="138" height="40" viewBox="0 0 138 40" fill="none" xmlns="http://www.w3.org/2000/svg">
<g opacity="0.5">
<path d="M35.0212 25.1468C35.0212 27.3468 33.234 29.1335 31.0334 29.1335C28.8328 29.1335 27.0456 27.3468 27.0456 25.1468V13.8535H22.4844V25.1468C22.4844 29.8535 26.3254 33.6935 31.0334 33.6935C35.7414 33.6935 39.5824 29.8668 39.5824 25.1468V13.8535H35.0212V25.1468Z" fill="white"/>
<path d="M14.9641 18.1464H4.81466V7.45312H0V33.6931H4.81466V22.7731H14.9641V33.6931H19.7788V7.45312H14.9641V18.1464Z" fill="white"/>
<path d="M52.3244 13.9864C50.0571 13.9864 48.4834 14.6398 46.9496 16.1464V7.45312H42.375V23.5464C42.375 29.5731 46.7362 33.6931 51.6176 33.6931C57.0591 33.6931 61.8204 29.4931 61.8204 23.8398C61.8337 18.2531 57.4325 13.9864 52.3244 13.9864ZM52.4311 29.4531C49.3236 29.4531 46.9629 26.8664 46.9629 23.8398C46.9629 20.8131 49.3369 18.2131 52.4311 18.2131C55.0585 18.2131 57.4325 20.7998 57.4325 23.8398C57.4325 26.8664 55.0585 29.4531 52.4311 29.4531Z" fill="white"/>
<path d="M136.385 29.4526C133.691 29.4526 132.917 28.2793 132.917 26.4926V18.5726H137.118V14.5593H132.917V9.2793L128.289 11.3593V27.4926C128.289 31.6126 131.13 33.6926 135.038 33.6926C135.624 33.6926 136.425 33.6526 136.865 33.5459L137.998 29.3859C137.478 29.4126 136.891 29.4526 136.385 29.4526Z" fill="white"/>
<path d="M69.5151 15.1334C69.5151 12.8268 71.0488 12.1068 72.7293 12.1068C74.0763 12.1068 75.8635 13.1335 77.0371 14.3734L80.0246 10.8668C78.5309 8.85346 75.5034 7.4668 73.0227 7.4668C68.0613 7.4668 64.487 10.3468 64.487 15.1334C64.487 24.0001 75.3967 21.1868 75.3967 26.1601C75.3967 27.6934 73.9029 29.0401 72.1825 29.0401C69.475 29.0401 68.6081 27.7201 67.3678 26.3334L64.0469 29.7601C66.1675 32.3467 68.7949 33.6667 71.9291 33.6667C76.637 33.6667 80.4381 30.7467 80.4381 26.1868C80.4247 16.3468 69.5151 19.4001 69.5151 15.1334Z" fill="white"/>
<path d="M102.68 23.5721C102.68 17.9187 97.9184 13.7188 92.4769 13.7188C87.5822 13.7188 83.2344 17.8387 83.2344 23.8654V39.9987H87.809V31.2787C89.3294 32.772 90.9165 33.4387 93.1838 33.4387C98.2919 33.4254 102.68 29.1587 102.68 23.5721ZM93.2905 29.1987C90.183 29.1987 87.8223 26.5987 87.8223 23.5721C87.8223 20.5454 90.1963 17.9454 93.2905 17.9454C95.9179 17.9454 98.2919 20.5321 98.2919 23.5721C98.2919 26.5987 95.9179 29.1987 93.2905 29.1987Z" fill="white"/>
<path d="M120.647 15.1866C119.5 14.52 118.3 14.0933 116.953 13.9066V9.10665C118.3 8.53331 119.14 7.26665 119.14 5.78665C119.14 3.77333 117.526 2.14666 115.512 2.14666C113.498 2.14666 111.858 3.77333 111.858 5.78665C111.858 7.26665 112.645 8.53331 113.992 9.10665V13.9066C112.912 14.0666 111.791 14.4 110.778 14.92C108.684 13.3333 101.855 8.13332 97.8542 5.10666C97.9475 4.75999 98.0275 4.41332 98.0275 4.03999C98.0275 1.81333 96.227 0 93.9864 0C91.7458 0 89.9453 1.81333 89.9453 4.03999C89.9453 6.26665 91.7591 8.07998 93.9864 8.07998C94.7466 8.07998 95.4535 7.85332 96.0537 7.49332L96.8939 8.13332L108.497 16.4933C107.884 17.0533 107.31 17.6933 106.857 18.4133C105.936 19.8666 105.363 21.48 105.363 23.2399V23.6133C105.363 24.8533 105.603 26.0133 106.003 27.1066C106.35 28.0666 106.87 28.9333 107.51 29.7199L103.656 33.5733C102.522 33.1466 101.228 33.4266 100.375 34.2933C99.788 34.8799 99.4546 35.6666 99.4679 36.5066C99.4679 37.3466 99.788 38.1199 100.388 38.7066C100.975 39.2932 101.762 39.6266 102.589 39.6266C103.416 39.6266 104.216 39.2932 104.803 38.7066C105.39 38.1199 105.723 37.3332 105.723 36.5066C105.723 36.1866 105.67 35.8666 105.576 35.5733L109.551 31.5999C110.098 31.9733 110.684 32.2933 111.325 32.5733C112.578 33.1066 113.952 33.4399 115.459 33.4399H115.739C117.406 33.4399 118.98 33.0533 120.46 32.2533C122.021 31.3999 123.235 30.2533 124.155 28.7733C125.075 27.2933 125.595 25.6533 125.595 23.8533V23.7599C125.595 21.9866 125.182 20.3466 124.328 18.8533C123.435 17.3066 122.194 16.0933 120.647 15.1866ZM119.447 27.1599C118.366 28.3599 117.126 29.0933 115.726 29.0933H115.499C114.699 29.0933 113.912 28.8666 113.152 28.4666C112.285 28.0266 111.631 27.3866 111.084 26.5866C110.524 25.7999 110.231 24.9466 110.231 24.0266V23.7466C110.231 22.8533 110.404 22 110.831 21.2C111.298 20.32 111.925 19.64 112.752 19.1066C113.565 18.5733 114.445 18.3066 115.406 18.3066H115.499C116.379 18.3066 117.206 18.48 117.993 18.88C118.793 19.3066 119.447 19.8933 119.954 20.6666C120.447 21.44 120.74 22.2666 120.834 23.1733C120.847 23.3599 120.861 23.5599 120.861 23.7333C120.861 24.9866 120.38 26.1333 119.447 27.1599Z" fill="white"/>
</g>
</svg>
