<svg width="141" height="41" viewBox="0 0 141 41" fill="none" xmlns="http://www.w3.org/2000/svg">
<g opacity="0.5">
<path d="M125.786 18.9672C125.378 17.7857 124.461 17.0448 123.254 16.7244C121.34 16.2037 119.566 16.5141 117.961 17.7457L117.223 18.3164C115.658 16.2638 112.309 15.683 109.428 17.9059L108.59 16.8545H105.789V30.1314H109.797V21.0499C109.976 20.9297 110.066 20.8696 110.185 20.8296C112.448 19.6781 113.993 20.5793 114.043 23.1125V23.3728V29.1802V30.1314H118.12V21.0098C118.439 20.8396 118.768 20.6894 119.117 20.5592C121.051 19.9384 122.188 20.6994 122.357 22.722C122.387 22.9823 122.387 23.2527 122.387 23.513V27.8285V30.1514H126.395C126.424 30.0313 126.434 29.9211 126.444 29.791C126.444 27.1176 126.484 24.4442 126.405 21.7808C126.375 20.8296 126.095 19.8784 125.786 18.9672Z" fill="white"/>
<path d="M70.295 12.3499C70.295 15.644 70.305 18.8481 70.285 22.0422C70.285 22.713 70.2252 23.3939 70.0956 24.0547C69.8663 25.1661 69.2583 26.0673 68.0919 26.2475C67.1449 26.3877 66.1779 26.3877 65.2408 26.2475C64.234 26.1073 63.5461 25.3964 63.3069 24.4152C63.0975 23.6242 62.9879 22.8031 62.9679 21.9921C62.9281 19.1084 62.958 16.2348 62.958 13.3511V12.3499H58.7212V13.261C58.7212 15.9344 58.7113 18.6078 58.7312 21.2712C58.7312 22.4126 58.791 23.5541 58.9106 24.6955C59.2496 27.6092 60.8446 29.5717 63.4464 30.1925C65.3206 30.6331 67.2844 30.6631 69.1785 30.2826C71.9897 29.7519 73.6744 28.0698 74.2825 25.2863C74.4221 24.6555 74.5018 24.0147 74.5118 23.3638C74.5517 19.8794 74.5517 16.375 74.5616 12.8805C74.5616 12.7103 74.5317 12.5401 74.5118 12.3398H70.295V12.3499Z" fill="white"/>
<path d="M85.5484 16.7145C84.382 16.6344 83.2855 16.4942 82.1889 16.5343C79.4176 16.6344 77.1746 18.4367 76.407 21.1101C75.9285 22.7522 75.9285 24.4944 76.397 26.1465C77.1248 28.7698 79.0089 30.2717 81.7004 30.4619C83.3951 30.5821 84.9503 30.2517 86.3459 29.2404L87.0836 30.1616H89.5758V11.2676H85.5484V16.7145V16.7145ZM85.5384 26.3167C84.3222 27.1077 83.0163 27.2779 81.7303 26.6271C80.4344 25.9662 80.2151 24.6946 80.1951 23.393C80.1951 22.9524 80.255 22.5119 80.3846 22.0913C80.9129 20.1989 82.7771 19.3779 84.8306 20.1088C85.0799 20.1889 85.2992 20.3191 85.5384 20.4292V26.3167V26.3167Z" fill="white"/>
<path d="M104.034 24.1136C104.084 22.6317 103.894 21.2499 103.366 19.9483C102.618 18.0559 101.223 16.9044 99.219 16.574C98.4913 16.4739 97.7635 16.4538 97.0358 16.5239C94.424 16.6941 92.4003 18.3562 91.6926 20.8694C91.1842 22.5916 91.2141 24.434 91.7424 26.1561C92.3405 28.1186 93.6564 29.4003 95.5904 30.0311C97.0059 30.4816 98.4713 30.5217 99.9268 30.3515C101.013 30.2213 102.04 29.9109 102.907 29.16L103.436 26.036C102.818 26.2963 102.269 26.5667 101.691 26.7469C100.296 27.1774 98.8801 27.3176 97.4645 26.8771C96.2084 26.4866 95.4608 25.2951 95.7 24.1035H104.034V24.1136ZM95.6003 22.101C95.8097 20.4889 96.7667 19.6279 98.2321 19.6078C99.3785 19.6078 100.565 20.4088 100.684 22.101H95.6003Z" fill="white"/>
<path d="M136.986 16.8342L134.095 25.6654C133.526 24.0234 133.038 22.5815 132.549 21.1397C132.041 19.7179 131.553 18.2861 131.054 16.8442H126.578L131.882 29.6805L129.958 34.6068H134.015L141.003 16.8242H136.986V16.8342Z" fill="white"/>
<path d="M47.3732 22.5717C46.0074 23.6831 44.7514 24.7544 43.4355 25.7457C42.9669 26.0861 42.4386 26.3264 41.8903 26.4866C40.8934 26.787 40.1857 26.4266 39.8068 25.4453C39.5975 24.9247 39.4878 24.384 39.448 23.8333C39.3084 20.9296 39.1987 18.0259 39.0891 15.1222C39.0392 13.7905 39.0093 12.4488 38.9096 11.1171C38.8199 9.83551 38.5009 8.58392 37.8231 7.47251C36.5869 5.40989 33.4966 5.22966 32.2306 7.32232C31.9116 7.86301 31.5726 8.41371 31.2835 8.98443C29.5888 12.2886 27.924 15.6128 26.2393 18.917C24.2555 22.792 22.0325 26.5467 19.331 29.9811C18.8525 30.6019 18.3241 31.1726 17.726 31.6933C16.769 32.4943 15.7522 32.2039 15.3135 31.0324C15.1042 30.4317 14.9746 29.8009 14.9347 29.16C14.7952 26.9973 15.0643 24.8546 15.5528 22.7519C16.5596 18.4565 17.6462 14.181 18.673 9.89559C19.1914 7.71282 19.65 5.53005 19.2711 3.25716C18.9721 1.49492 18.055 0.393524 16.5995 0.0831302C15.0743 -0.237277 13.5989 0.423562 12.6917 1.89543C12.3428 2.49619 12.0238 3.11698 11.7447 3.74778C9.82073 8.0132 7.29863 11.9081 4.00893 15.2424C2.78277 16.504 1.38714 17.5954 0.00147652 18.7969C-0.0483674 20.7293 1.16782 22.1011 3.03199 22.1912C3.98899 22.2212 4.86624 21.9409 5.69365 21.4903C6.18212 21.23 6.6706 20.9296 7.25875 20.5992C7.08928 21.3601 6.95969 22.011 6.81016 22.6618C6.16219 25.4353 5.67372 28.2389 5.88306 31.1125C6.04256 33.2653 6.55097 35.2978 7.84691 37.0701C9.26248 39.0025 11.1865 39.9838 13.579 40.0038C15.7721 40.0138 17.706 39.2428 19.4705 37.9712C21.4244 36.5494 22.9596 34.7371 24.3353 32.7846C26.9471 29.09 28.9409 25.0548 30.7751 20.9396L31.3533 19.7381L31.4929 19.7781C31.4929 20.7394 31.453 21.6805 31.4929 22.6318C31.5826 24.8446 31.7919 27.0373 32.6692 29.12C33.6162 31.3528 35.2212 32.8147 37.6436 33.1151C38.8797 33.2853 40.1358 33.2352 41.352 32.9849C44.5121 32.284 46.9445 30.5218 48.1707 27.3778C48.6093 26.2664 48.8386 25.0949 48.4797 23.8934C48.2803 23.2425 47.9414 22.7419 47.3732 22.5717Z" fill="white"/>
</g>
</svg>
