<svg width="154" height="38" viewBox="0 0 154 38" fill="none" xmlns="http://www.w3.org/2000/svg">
<g opacity="0.5">
<path d="M62.3972 18.418C61.9302 18.418 61.4742 18.5186 61.0405 18.6974C60.5735 18.8762 60.1732 19.1109 59.8062 19.4239C59.417 19.7033 59.1168 20.0386 58.861 20.4074C58.6052 20.765 58.4273 21.1339 58.3272 21.5139H58.2716V18.8091H55.3915L55.3359 32.735H58.4162V26.0739C58.4162 25.3027 58.5163 24.5986 58.7276 24.0062C58.9277 23.4139 59.2169 22.9221 59.5505 22.5086C59.9063 22.1174 60.2955 21.8156 60.7514 21.6033C61.2185 21.4021 61.6966 21.2903 62.2193 21.2903C62.4528 21.2903 62.653 21.3127 62.8865 21.3462C63.12 21.3686 63.3535 21.4021 63.5537 21.4468V18.485C63.4202 18.485 63.2757 18.4627 63.1422 18.4291C63.0199 18.4403 62.7642 18.418 62.3972 18.418Z" fill="white"/>
<path d="M98.4546 14.5742H95.3743V18.8101H93.0391V21.1013H95.3743V29.3607C95.3965 29.9307 95.4521 30.4672 95.5522 30.9031C95.6523 31.3389 95.8302 31.7078 96.1193 32.0095C96.3973 32.2889 96.7865 32.5236 97.2758 32.6801C97.7651 32.8366 98.4101 32.9148 99.2218 32.9148C99.5777 32.9148 99.889 32.9148 100.223 32.8589C100.556 32.8366 100.89 32.8031 101.223 32.7583V30.3554C101.023 30.4113 100.79 30.4336 100.578 30.456C100.378 30.4783 100.145 30.4783 99.9335 30.4783C99.5777 30.4783 99.3219 30.4225 99.1106 30.3442C98.9327 30.266 98.777 30.1431 98.677 29.9866C98.5991 29.8301 98.5213 29.6289 98.499 29.3942C98.4768 29.1372 98.4434 28.8801 98.4434 28.5448V21.0678H101.212V18.7766H98.4434V14.5742H98.4546Z" fill="white"/>
<path d="M74.617 26.9358C74.617 27.4723 74.5614 27.9976 74.4391 28.4558C74.3056 28.9253 74.1277 29.3276 73.8497 29.6629C73.594 29.9982 73.2381 30.2553 72.7933 30.4676C72.3596 30.6688 71.8147 30.7806 71.1809 30.7806C70.3358 30.7806 69.6686 30.5235 69.2015 30.0094C68.7122 29.5176 68.4787 28.6458 68.4787 27.4053V18.8105H65.3984V27.707C65.3984 29.54 65.8099 30.937 66.6328 31.8311C67.4557 32.7588 68.7901 33.1947 70.6138 33.1947C71.381 33.1947 72.1483 32.9935 72.8934 32.5464C73.6384 32.0994 74.2056 31.5629 74.5836 30.8476H74.6392V32.8035H77.6639H77.6861V18.8105H74.617V26.9358Z" fill="white"/>
<path d="M56.0546 13.4688H40.4754L40.4531 16.3858H46.5581V32.8152H49.9163V16.3858H56.0546V13.4688Z" fill="white"/>
<path d="M90.7634 25.7165C90.352 25.3812 89.8627 25.1465 89.3289 24.9677C88.7951 24.7889 88.2503 24.6324 87.6831 24.4983C87.116 24.3642 86.5489 24.2412 86.0151 24.1407C85.4813 24.0401 84.9921 23.9059 84.5806 23.7495C84.1469 23.5707 83.8133 23.3918 83.5576 23.1571C83.3018 22.9224 83.1684 22.643 83.1684 22.2518C83.1684 21.9389 83.2685 21.6818 83.4464 21.503C83.6243 21.3242 83.8578 21.1677 84.1136 21.0671C84.3916 20.9665 84.6473 20.9106 84.9587 20.8659C85.2367 20.8436 85.5258 20.8101 85.726 20.8101C86.4154 20.8101 87.0048 20.9442 87.5497 21.2012C88.0612 21.4583 88.3948 21.9501 88.5505 22.6989H91.7642C91.6641 21.9277 91.4528 21.2571 91.097 20.7095C90.7634 20.173 90.3297 19.7036 89.7848 19.3683C89.2733 19.0106 88.6506 18.7759 88.0167 18.6195C87.3718 18.463 86.6823 18.3848 85.9595 18.3848C85.3479 18.3848 84.6807 18.4406 83.9801 18.5636C83.2907 18.6977 82.6457 18.9212 82.0786 19.2342C81.5115 19.5471 81.0222 19.9606 80.6664 20.4748C80.2771 20.9889 80.0992 21.6148 80.0992 22.3859C80.0992 23.1124 80.2327 23.6712 80.4884 24.163C80.7219 24.6548 81.0778 25.0348 81.4892 25.3477C81.9229 25.683 82.39 25.9177 82.9237 26.0965C83.4575 26.2754 84.0246 26.4318 84.5917 26.5659C85.1589 26.7001 85.6926 26.823 86.2375 26.9236C86.7824 27.0242 87.2606 27.1583 87.672 27.3148C88.0834 27.4936 88.4171 27.6724 88.6951 27.9295C88.9731 28.1865 89.1065 28.5218 89.1287 28.913C89.151 29.3042 89.0509 29.6059 88.8507 29.863C88.6506 30.1201 88.3837 30.2989 88.0501 30.433C87.7387 30.5671 87.3829 30.6342 87.027 30.6901C86.6712 30.7459 86.3376 30.7683 86.0485 30.7683C85.2256 30.7683 84.5139 30.5895 83.9134 30.2318C83.3241 29.8407 82.9904 29.2259 82.8904 28.3207H82.8681V28.2983H79.7656C79.7879 29.1477 79.9658 29.8742 80.2771 30.4665C80.5885 31.0812 81.0222 31.573 81.556 31.9865C82.0897 32.3777 82.7569 32.6795 83.502 32.8918C84.247 33.093 85.0699 33.2048 85.9373 33.2048C86.6601 33.2048 87.3718 33.1042 88.1168 32.9477C88.8396 32.7689 89.5291 32.5118 90.1184 32.143C90.7078 31.7854 91.1971 31.2936 91.5863 30.7236C91.9755 30.1312 92.1534 29.4383 92.1534 28.6112C92.1534 27.9407 92.02 27.3483 91.7642 26.8789C91.5307 26.4207 91.1748 26.0295 90.7634 25.7165Z" fill="white"/>
<path d="M143.049 20.508C142.438 19.8597 141.715 19.3456 140.836 18.988C139.969 18.5968 138.957 18.418 137.856 18.418C136.755 18.418 135.754 18.6191 134.876 18.988C134.008 19.3456 133.263 19.8597 132.674 20.508C132.085 21.1786 131.618 21.9497 131.317 22.855C130.984 23.7603 130.828 24.7327 130.828 25.7944C130.828 26.8562 131.006 27.8621 131.317 28.7562C131.629 29.6503 132.085 30.455 132.674 31.1033C133.286 31.7515 134.008 32.2433 134.876 32.6233C135.743 33.0144 136.744 33.1933 137.856 33.1933C138.99 33.1933 139.958 32.9921 140.836 32.6233C141.704 32.2656 142.449 31.7515 143.049 31.1033C143.638 30.4327 144.072 29.6615 144.406 28.7562C144.739 27.8509 144.895 26.8786 144.895 25.7944C144.895 24.7327 144.717 23.7603 144.406 22.855C144.094 21.9497 143.638 21.1562 143.049 20.508ZM141.581 27.605C141.426 28.175 141.192 28.7115 140.858 29.1809C140.525 29.6503 140.136 30.0303 139.624 30.3209C139.135 30.6003 138.523 30.7568 137.856 30.7568C137.189 30.7568 136.599 30.6227 136.088 30.3209C135.599 30.0415 135.187 29.6503 134.854 29.1809C134.52 28.7115 134.286 28.1974 134.131 27.605C133.975 27.0127 133.897 26.4203 133.897 25.7944C133.897 25.2021 133.975 24.6097 134.131 24.0174C134.286 23.425 134.52 22.9109 134.854 22.4415C135.187 22.0056 135.576 21.6144 136.088 21.335C136.577 21.0556 137.189 20.8991 137.856 20.8991C138.523 20.8991 139.113 21.0556 139.624 21.335C140.113 21.6144 140.525 21.9833 140.858 22.4415C141.192 22.9109 141.426 23.425 141.581 24.0174C141.737 24.6097 141.815 25.2021 141.815 25.7944C141.815 26.4203 141.737 27.0127 141.581 27.605Z" fill="white"/>
<path d="M128.471 13.4688H125.391V32.8152H128.471V13.4688Z" fill="white"/>
<path d="M153.363 30.4672C153.163 30.4895 152.929 30.4895 152.718 30.4895C152.362 30.4895 152.106 30.4336 151.895 30.3554C151.717 30.2772 151.562 30.1542 151.462 29.9978C151.384 29.8413 151.306 29.6401 151.284 29.4054C151.261 29.1483 151.228 28.8913 151.228 28.556V21.0789H153.997V18.7766H151.228V14.5742H148.148V18.8101H145.812V21.1013H148.148V29.3607C148.17 29.9307 148.226 30.4672 148.326 30.9031C148.426 31.3389 148.604 31.7078 148.893 32.0095C149.171 32.2889 149.56 32.5236 150.049 32.6801C150.539 32.8366 151.184 32.9148 151.995 32.9148C152.351 32.9148 152.662 32.9148 152.996 32.8589C153.33 32.8366 153.663 32.8031 153.997 32.7583V30.3554C153.797 30.4113 153.563 30.4448 153.363 30.4672Z" fill="white"/>
<path d="M122.643 18.8105H119.562V32.8147H122.643V18.8105Z" fill="white"/>
<path d="M122.643 13.4668H119.562V16.3839H122.643V13.4668Z" fill="white"/>
<path d="M115.557 20.6086C115.023 19.9156 114.356 19.4015 113.533 19.0103C112.71 18.5968 111.765 18.418 110.653 18.418C109.73 18.418 108.907 18.5968 108.14 18.9544C107.373 19.3121 106.783 19.8821 106.339 20.7091H106.283V18.798H103.414V37.9992H106.494V31.0027H106.55C106.783 31.3603 107.061 31.6956 107.417 31.9862C107.751 32.2656 108.14 32.5003 108.552 32.6792C108.963 32.858 109.397 32.9921 109.83 33.0703C110.264 33.1486 110.731 33.2044 111.165 33.2044C112.188 33.2044 113.066 33.0033 113.834 32.5897C114.601 32.1762 115.224 31.6397 115.713 30.9692C116.202 30.2986 116.558 29.4939 116.814 28.6221C117.047 27.7503 117.17 26.845 117.17 25.8839C117.17 24.878 117.014 23.8944 116.758 22.9891C116.502 22.0839 116.091 21.2791 115.557 20.6086ZM113.934 27.6497C113.8 28.2421 113.578 28.7562 113.266 29.2256C112.933 29.6615 112.544 30.0527 112.065 30.3321C111.587 30.6115 111.009 30.768 110.297 30.768C109.652 30.768 109.119 30.6339 108.629 30.3768C108.14 30.1197 107.729 29.7844 107.395 29.3486C107.039 28.9127 106.806 28.3986 106.628 27.8062C106.45 27.2139 106.372 26.5656 106.372 25.8503C106.372 24.3527 106.706 23.1456 107.351 22.2403C108.018 21.335 108.996 20.8991 110.275 20.8991C110.887 20.8991 111.454 21.0333 111.943 21.3127C112.41 21.5921 112.811 21.9609 113.144 22.4191C113.478 22.8886 113.734 23.4027 113.889 23.995C114.067 24.5874 114.145 25.2021 114.145 25.828C114.145 26.4427 114.067 27.035 113.934 27.6497Z" fill="white"/>
<path d="M22.7962 13.4677L18.4594 0L14.0892 13.4677L0 13.4453L11.3981 21.7718L7.0279 35.2394L18.426 26.9018L29.8241 35.2394L25.4873 21.7718L36.8854 13.4677H22.7962Z" fill="white"/>
</g>
</svg>
