<svg width="139" height="40" viewBox="0 0 139 40" fill="none" xmlns="http://www.w3.org/2000/svg">
<g opacity="0.5">
<path d="M54.2423 23.9796C55.8267 23.9796 56.9528 24.4496 57.7898 24.8196L58.6269 22.3796C57.1321 21.7196 55.737 21.3496 53.9633 21.3496C48.9211 21.3496 46.0312 25.2796 46.0312 30.0596C46.0312 35.1196 48.9211 38.6796 53.9633 38.6796C55.737 38.6796 57.1321 38.2996 58.6269 37.6496L57.7898 35.2196C56.9528 35.5896 55.8267 36.0596 54.2423 36.0596C50.9738 36.0596 49.1104 33.3396 49.1104 29.9696C49.1004 26.6996 51.0635 23.9796 54.2423 23.9796Z" fill="white"/>
<path d="M87.5594 18.4498H90.4492V4.21984H95.7704V1.58984H82.1484V4.21984H87.5594V18.4498Z" fill="white"/>
<path d="M109.407 16.1102C107.543 16.1102 105.859 15.4502 104.833 14.8002L103.617 17.1402C104.923 17.8902 106.696 18.6402 109.317 18.6402C113.233 18.6402 115.854 16.6702 115.854 13.4902C115.854 7.78016 107.175 9.18016 107.175 5.72016C107.175 4.41016 108.57 3.94016 110.164 3.94016C111.938 3.94016 113.333 4.41016 114.828 5.16016L114.917 2.35016C113.891 1.88016 112.018 1.41016 110.154 1.41016C106.607 1.41016 104.175 3.10016 104.185 6.19016C104.185 11.9002 112.775 10.3102 112.775 13.9702C112.765 15.4602 111.181 16.1102 109.407 16.1102Z" fill="white"/>
<path d="M121.351 11.15H129.472V18.45H132.362V1.5H129.472V8.43H121.351V1.5H118.461V18.45H121.351V11.15Z" fill="white"/>
<path d="M79.8976 1.5H77.0078V18.46H79.8976V1.5Z" fill="white"/>
<path d="M100.905 1.5H98.0156V18.46H100.905V1.5Z" fill="white"/>
<path d="M87.7534 32.1308C87.7534 35.0308 86.2587 36.0608 83.8373 36.0608C81.4058 36.0608 79.9211 35.0308 79.9211 32.1308V21.5508H77.0312V32.0408C77.0312 36.6308 79.642 38.6908 83.8472 38.6908C88.0424 38.6908 90.6632 36.6308 90.6632 32.0408V21.5508H87.7734V32.1308H87.7534Z" fill="white"/>
<path d="M104.078 30.8208C104.078 31.5708 104.078 32.5108 104.167 33.0708H104.078L96.335 21.5508H93.1562V38.4108H96.0461V28.3808C96.0461 27.6308 96.0461 26.6908 95.9564 26.1308H96.0461L104.446 38.4008H106.968V21.5508H104.078V30.8208Z" fill="white"/>
<path d="M117.336 23.9796C118.92 23.9796 120.046 24.4496 120.884 24.8196L121.721 22.3796C120.326 21.7196 118.92 21.3496 117.057 21.3496C112.015 21.3496 109.125 25.2796 109.125 30.0596C109.125 35.1196 112.015 38.6796 117.057 38.6796C118.92 38.6796 120.326 38.2996 121.721 37.6496L120.884 35.2196C120.046 35.5896 118.92 36.0596 117.336 36.0596C114.068 36.0596 112.204 33.3396 112.204 29.9696C112.204 26.6996 114.167 23.9796 117.336 23.9796Z" fill="white"/>
<path d="M126.851 21.5508H123.961V38.4108H126.851V21.5508Z" fill="white"/>
<path d="M132.366 35.7808V21.5508H129.477V38.4108H139.003V35.7808H132.366Z" fill="white"/>
<path d="M70.7616 10.7698C72.625 10.2098 73.8407 8.70984 73.8407 6.36984C73.8407 3.83984 72.2563 1.58984 67.8618 1.58984H62.1719V18.4498H65.0617V11.8998H67.7721C68.7985 11.8998 69.4562 13.2998 71.8777 18.4598H75.1461C72.346 12.8298 71.509 11.2398 70.7616 10.7698ZM67.9615 9.26984H65.0717V4.11984H68.0611C70.1139 4.11984 70.9509 5.23984 70.9509 6.64984C70.941 8.23984 70.0142 9.26984 67.9615 9.26984Z" fill="white"/>
<path d="M57.1315 9.46C58.4369 8.62 59.0946 7.49 59.0946 5.9C59.0946 4.5 58.3472 2.9 56.6731 2.06C55.9257 1.78 55.0887 1.5 53.7833 1.5H47.625V18.46H53.3149C54.72 18.46 55.6467 18.37 56.4838 18.09C58.8156 17.34 60.2206 15.65 60.2206 13.31C60.2106 11.24 59.0946 9.93 57.1315 9.46ZM50.4152 4.12H53.584C54.2417 4.12 54.7001 4.21 55.1684 4.4C55.8261 4.77 56.2845 5.52 56.2845 6.37C56.2944 7.11 55.8958 7.79 55.2581 8.15C54.7897 8.43 54.2317 8.52 53.3947 8.52H50.4052V4.12H50.4152ZM56.0154 15.46C55.5471 15.65 54.989 15.83 53.873 15.83H50.4152V11.15H54.152C55.0887 11.15 55.6467 11.24 56.0154 11.43C56.8525 11.81 57.2311 12.46 57.2311 13.4C57.2311 14.34 56.8525 15.08 56.0154 15.46Z" fill="white"/>
<path d="M67.1117 21.3594C62.3485 21.3594 59.1797 25.0094 59.1797 30.0694C59.1797 35.1294 62.3585 38.6894 67.1117 38.6894C71.865 38.6894 75.0438 35.0394 75.0438 29.9794C75.0537 24.9194 71.9746 21.3594 67.1117 21.3594ZM67.1117 36.0694C64.3116 36.0694 62.1691 33.7294 62.1691 30.0694C62.1691 26.3194 64.3116 23.9794 67.1117 23.9794C69.9119 23.9794 72.0543 26.3194 72.0543 29.9794C72.0643 33.7194 69.9119 36.0694 67.1117 36.0694Z" fill="white"/>
<path d="M9.6161 20.6992C4.38454 20.6992 0 25.0092 0 30.3492C0 35.6892 4.38454 39.9992 9.6161 39.9992C14.9373 39.9992 19.3219 35.6892 19.3219 30.3492C19.3219 25.0092 14.9373 20.6992 9.6161 20.6992Z" fill="white"/>
<path d="M30.2411 1.73662e-05C24.9199 1.73662e-05 20.625 4.31002 20.625 9.65002C20.625 14.99 24.9199 19.3 30.2411 19.3C30.2511 19.3 30.261 19.3 30.271 19.3C35.5723 19.29 39.8672 14.97 39.8572 9.65002C39.8572 9.64002 39.8572 9.63002 39.8572 9.62002C39.8472 4.30002 35.5424 -0.00998263 30.2411 1.73662e-05Z" fill="white"/>
<path d="M30.2411 20.6992C30.2312 20.6992 30.2212 20.6992 30.2112 20.6992C24.9099 20.7092 20.6151 25.0292 20.625 30.3492C20.625 30.3592 20.625 30.3692 20.625 30.3792C20.635 35.6992 24.9398 40.0092 30.2411 39.9992C30.2511 39.9992 30.261 39.9992 30.271 39.9992C35.5723 39.9892 39.8672 35.6692 39.8572 30.3492C39.8572 30.3392 39.8572 30.3292 39.8572 30.3192C39.8473 24.9992 35.5424 20.6892 30.2411 20.6992Z" fill="white"/>
<path d="M9.6161 0C4.38454 0 0 4.31 0 9.65C0 14.99 4.38454 19.3 9.6161 19.3C14.9373 19.3 19.3219 14.99 19.3219 9.65C19.3219 4.31 14.9373 0 9.6161 0Z" fill="white"/>
</g>
</svg>
