<svg width="20" height="20" viewBox="0 0 20 20" fill="none" xmlns="http://www.w3.org/2000/svg">
<g clip-path="url(#clip0_245_5938)">
<path d="M4.4725 6.25H0V20H4.4725V6.25Z" fill="#1976D2"/>
<path d="M16.655 6.41125C16.6075 6.39625 16.5625 6.38 16.5125 6.36625C16.4525 6.3525 16.3925 6.34125 16.3312 6.33125C16.0937 6.28375 15.8338 6.25 15.5288 6.25C12.9213 6.25 11.2675 8.14625 10.7225 8.87875V6.25H6.25V20H10.7225V12.5C10.7225 12.5 14.1025 7.7925 15.5288 11.25C15.5288 14.3363 15.5288 20 15.5288 20H20V10.7212C20 8.64375 18.5763 6.9125 16.655 6.41125Z" fill="#1976D2"/>
<path d="M2.1875 4.375C3.39562 4.375 4.375 3.39562 4.375 2.1875C4.375 0.979377 3.39562 0 2.1875 0C0.979377 0 0 0.979377 0 2.1875C0 3.39562 0.979377 4.375 2.1875 4.375Z" fill="#1976D2"/>
</g>
<defs>
<clipPath id="clip0_245_5938">
<rect width="20" height="20" fill="white"/>
</clipPath>
</defs>
</svg>
