<svg width="16" height="16" viewBox="0 0 16 16" fill="none" xmlns="http://www.w3.org/2000/svg">
<g clip-path="url(#clip0_170_7328)">
<path d="M15.9875 4.70404C15.95 3.8539 15.8125 3.26944 15.6156 2.76299C15.4124 2.22541 15.0998 1.74412 14.6903 1.34401C14.2902 0.937683 13.8058 0.621948 13.2744 0.421957C12.765 0.22502 12.1836 0.0875415 11.3335 0.0500586C10.477 0.00940124 10.2051 0 8.0328 0C5.86051 0 5.5886 0.00940124 4.73529 0.0468842C3.88515 0.0843671 3.30068 0.221967 2.79436 0.418783C2.25666 0.621948 1.77536 0.934509 1.37526 1.34401C0.968932 1.74412 0.653319 2.22858 0.453207 2.75994C0.256269 3.26944 0.118791 3.85073 0.0813085 4.70087C0.0406512 5.55736 0.03125 5.82926 0.03125 8.00156C0.03125 10.1739 0.0406512 10.4458 0.0781341 11.2991C0.115617 12.1492 0.253217 12.7337 0.450154 13.2401C0.653319 13.7777 0.968932 14.259 1.37526 14.6591C1.77536 15.0654 2.25983 15.3812 2.79118 15.5812C3.30068 15.7781 3.88197 15.9156 4.73224 15.9531C5.58543 15.9907 5.85745 16 8.02975 16C10.202 16 10.474 15.9907 11.3273 15.9531C12.1774 15.9156 12.7619 15.7781 13.2682 15.5812C14.3435 15.1654 15.1936 14.3153 15.6093 13.2401C15.8062 12.7306 15.9438 12.1492 15.9812 11.2991C16.0187 10.4458 16.0281 10.1739 16.0281 8.00156C16.0281 5.82926 16.025 5.55736 15.9875 4.70404ZM14.5466 11.2366C14.5122 12.018 14.381 12.4399 14.2716 12.7212C14.0027 13.4183 13.4495 13.9715 12.7525 14.2403C12.4712 14.3497 12.0462 14.481 11.2678 14.5153C10.4239 14.5529 10.1708 14.5622 8.03598 14.5622C5.90116 14.5622 5.64489 14.5529 4.80403 14.5153C4.02262 14.481 3.60067 14.3497 3.31936 14.2403C2.97249 14.1121 2.65676 13.909 2.40048 13.6433C2.13481 13.3838 1.93164 13.0713 1.80344 12.7244C1.69405 12.4431 1.5628 12.018 1.52849 11.2397C1.49088 10.3958 1.4816 10.1426 1.4816 8.00779C1.4816 5.87297 1.49088 5.6167 1.52849 4.77596C1.5628 3.99455 1.69405 3.5726 1.80344 3.29129C1.93164 2.9443 2.13481 2.62869 2.40366 2.37229C2.66299 2.10661 2.97555 1.90345 3.32254 1.77537C3.60384 1.66597 4.02897 1.53472 4.8072 1.50029C5.65111 1.46281 5.90434 1.45341 8.03903 1.45341C10.177 1.45341 10.4301 1.46281 11.271 1.50029C12.0524 1.53472 12.4743 1.66597 12.7556 1.77537C13.1025 1.90345 13.4182 2.10661 13.6745 2.37229C13.9402 2.63174 14.1434 2.9443 14.2716 3.29129C14.381 3.5726 14.5122 3.99761 14.5466 4.77596C14.5841 5.61987 14.5935 5.87297 14.5935 8.00779C14.5935 10.1426 14.5841 10.3927 14.5466 11.2366Z" fill="white"/>
<path d="M8.03205 3.89062C5.76293 3.89062 3.92188 5.73156 3.92188 8.0008C3.92188 10.27 5.76293 12.111 8.03205 12.111C10.3013 12.111 12.1422 10.27 12.1422 8.0008C12.1422 5.73156 10.3013 3.89062 8.03205 3.89062ZM8.03205 10.667C6.55996 10.667 5.36588 9.47301 5.36588 8.0008C5.36588 6.52859 6.55996 5.33463 8.03205 5.33463C9.50426 5.33463 10.6982 6.52859 10.6982 8.0008C10.6982 9.47301 9.50426 10.667 8.03205 10.667Z" fill="white"/>
<path d="M13.263 3.72907C13.263 4.25896 12.8333 4.68861 12.3033 4.68861C11.7734 4.68861 11.3438 4.25896 11.3438 3.72907C11.3438 3.19906 11.7734 2.76953 12.3033 2.76953C12.8333 2.76953 13.263 3.19906 13.263 3.72907Z" fill="white"/>
</g>
<defs>
<clipPath id="clip0_170_7328">
<rect width="16" height="16" fill="white"/>
</clipPath>
</defs>
</svg>
