<svg width="16" height="16" viewBox="0 0 16 16" fill="none" xmlns="http://www.w3.org/2000/svg">
<path fill-rule="evenodd" clip-rule="evenodd" d="M5.91906 15.7984C5.91906 15.9097 6.00937 16 6.12062 16H8.99344C9.10469 16 9.19469 15.9097 9.19469 15.7984V7.93687H11.2775C11.3819 7.93687 11.4691 7.85656 11.4781 7.7525L11.6784 5.38375C11.6881 5.26625 11.5956 5.16531 11.4775 5.16531H9.19469V3.485C9.19469 3.09094 9.51406 2.77156 9.90781 2.77156H11.5128C11.6244 2.77156 11.7144 2.68125 11.7144 2.57V0.201562C11.7144 0.0903125 11.6244 0 11.5128 0H8.80094C7.20938 0 5.91906 1.29 5.91906 2.88156V5.16531H4.48281C4.37156 5.16531 4.28125 5.25563 4.28125 5.36688V7.73531C4.28125 7.84688 4.37156 7.93687 4.48281 7.93687H5.91906V15.7984Z" fill="white"/>
</svg>
