<svg width="16" height="16" viewBox="0 0 16 16" fill="none" xmlns="http://www.w3.org/2000/svg">
<path d="M5.20958 14.007C10.8703 14.007 13.9658 9.31731 13.9658 5.25075C13.9658 5.11756 13.9631 4.98491 13.9571 4.853C14.558 4.41856 15.0802 3.87643 15.4923 3.25935C14.9409 3.50455 14.3473 3.66939 13.7249 3.74396C14.3603 3.36282 14.8481 2.76014 15.0782 2.0417C14.4836 2.39422 13.825 2.65034 13.124 2.78867C12.5624 2.19049 11.7628 1.81641 10.8775 1.81641C9.17808 1.81641 7.79981 3.19458 7.79981 4.89345C7.79981 5.13508 7.82687 5.36991 7.87962 5.5952C5.32186 5.4665 3.0537 4.24198 1.536 2.37982C1.27182 2.83454 1.11936 3.36291 1.11936 3.92669C1.11936 4.99427 1.66268 5.93699 2.48882 6.4883C1.98393 6.4728 1.50968 6.33419 1.09505 6.10349C1.09459 6.11642 1.09459 6.12899 1.09459 6.14275C1.09459 7.63321 2.15538 8.87764 3.56373 9.15962C3.30505 9.22998 3.03288 9.26787 2.75218 9.26787C2.55422 9.26787 2.36122 9.24842 2.17372 9.21237C2.56551 10.4352 3.7017 11.3249 5.04869 11.3499C3.99533 12.1755 2.66843 12.6673 1.22632 12.6673C0.978274 12.6673 0.733075 12.653 0.492188 12.6246C1.85422 13.4976 3.47154 14.0071 5.20967 14.0071" fill="white"/>
</svg>
