<svg width="130" height="130" viewBox="0 0 130 130" fill="none" xmlns="http://www.w3.org/2000/svg">
<g filter="url(#filter0_d_199_1997)">
<circle cx="65" cy="50" r="40" fill="#FFBC1F"/>
</g>
<path opacity="0.6" d="M80.428 56.4143L72.3523 52.7479C72.1076 52.6387 71.8166 52.6387 71.5718 52.7479L63.4961 56.4143C63.1456 56.5713 62.9141 56.9331 62.9141 57.3291C62.9141 57.7251 63.1456 58.087 63.4961 58.244L71.5718 61.9103C71.6975 61.9649 71.8298 61.9922 71.9621 61.9922C72.0943 61.9922 72.2266 61.9649 72.3523 61.9103L80.428 58.2508C80.7786 58.0938 81.0101 57.7319 81.0101 57.336C81.0101 56.94 80.7786 56.5781 80.428 56.4143Z" fill="white"/>
<path opacity="0.6" d="M71.9553 63.9996C71.5518 63.9996 71.1616 63.9177 70.7912 63.747L65.5 61.3438V62.2586C65.5 63.0711 65.9101 63.8358 66.5715 64.2522C68.4366 65.4197 70.196 66 71.9553 66C73.7146 66 75.4806 65.4129 77.3391 64.2522C78.0005 63.8358 78.4106 63.0711 78.4106 62.2586V61.3438L73.126 63.747C72.7556 63.9177 72.3588 63.9996 71.9553 63.9996Z" fill="white"/>
<path d="M61.626 47.3339C65.1843 47.3339 68.0813 44.3435 68.0813 40.6635C68.0813 36.9836 65.1843 34 61.626 34C58.0676 34 55.1641 36.9904 55.1641 40.6704C55.1641 44.3503 58.061 47.3339 61.626 47.3339Z" fill="white"/>
<path d="M60.3311 57.3356C60.3311 55.8813 61.1579 54.5636 62.4476 53.9765L69.9149 50.5764C69.1675 50.2009 68.3275 50.0029 67.4346 50.0029H55.8137C52.6125 50.0029 50 52.6929 50 56.0042V61.3364C50 61.7051 50.2844 62.0055 50.6482 62.0055H62.9172V60.8995L62.4542 60.6878C61.1579 60.0938 60.3311 58.7761 60.3311 57.3356Z" fill="white"/>
<defs>
<filter id="filter0_d_199_1997" x="0" y="0" width="130" height="130" filterUnits="userSpaceOnUse" color-interpolation-filters="sRGB">
<feFlood flood-opacity="0" result="BackgroundImageFix"/>
<feColorMatrix in="SourceAlpha" type="matrix" values="0 0 0 0 0 0 0 0 0 0 0 0 0 0 0 0 0 0 127 0" result="hardAlpha"/>
<feOffset dy="15"/>
<feGaussianBlur stdDeviation="12.5"/>
<feComposite in2="hardAlpha" operator="out"/>
<feColorMatrix type="matrix" values="0 0 0 0 1 0 0 0 0 0.698039 0 0 0 0 0 0 0 0 0.2 0"/>
<feBlend mode="normal" in2="BackgroundImageFix" result="effect1_dropShadow_199_1997"/>
<feBlend mode="normal" in="SourceGraphic" in2="effect1_dropShadow_199_1997" result="shape"/>
</filter>
</defs>
</svg>
