<svg width="34" height="43" viewBox="0 0 34 43" fill="none" xmlns="http://www.w3.org/2000/svg">
<g opacity="0.3">
<path d="M14.4439 4.88391C14.4521 4.8921 14.4521 4.90029 14.4602 4.90847C14.4684 4.90847 14.4602 4.90029 14.4602 4.8921C14.4521 4.88391 14.4521 4.88391 14.4439 4.88391Z" fill="#30BEAD"/>
<path d="M13.7694 14.7055C15.893 15.0444 18.0086 14.0679 18.9606 12.0988C19.7091 10.5573 19.9207 8.84644 19.9777 7.15167C20.0427 5.16638 19.5708 3.10845 18.1388 1.64772C16.6823 0.154713 14.461 -0.45056 12.5082 0.364541C10.71 1.11508 9.68473 2.89055 9.44063 4.74672C9.24535 5.09374 9.11516 5.48919 9.07447 5.93306C8.88733 7.86993 8.9036 9.74224 9.71727 11.55C10.417 13.1156 12.0606 14.4392 13.7694 14.7055ZM14.5993 4.9969C14.6318 5.04532 14.5586 5.02111 14.461 4.90006C14.4528 4.90006 14.4284 4.89199 14.3959 4.88391C14.3959 4.87584 14.404 4.86777 14.404 4.8597C14.4122 4.86777 14.4284 4.86777 14.4366 4.87584C14.4366 4.87584 14.4284 4.86777 14.4284 4.8597C14.4447 4.86777 14.4447 4.87584 14.4528 4.87584C14.4528 4.87584 14.461 4.87584 14.4691 4.88391C14.4935 4.90006 14.4935 4.90006 14.5098 4.9162C14.5423 4.94848 14.5749 4.97269 14.5993 4.9969ZM14.3145 4.83549C14.3064 4.85163 14.3145 4.85163 14.3471 4.84356C14.3552 4.84356 14.3633 4.85163 14.3715 4.85163C14.3552 4.85163 14.3389 4.85163 14.3226 4.85163C14.3226 4.84356 14.3064 4.83549 14.2982 4.82742C14.3064 4.82742 14.3145 4.82742 14.3145 4.83549ZM14.8515 8.12818C14.8922 8.1766 14.9085 8.19274 14.8515 8.12818V8.12818Z" fill="#30BEAD"/>
<path d="M8.8043 26.2783C9.42269 25.4067 9.66679 24.2688 9.70748 23.2197C9.72375 22.8 9.67493 22.3965 9.61797 21.9768C9.56102 21.5814 9.49592 21.2021 9.3576 20.8228C8.9589 19.7736 8.34051 18.7891 7.32342 18.2161C6.1436 17.5543 4.74409 17.5624 3.54799 18.1919C2.49022 18.7487 1.66841 19.8543 1.37549 21.0003C1.20462 21.6702 1.18835 22.34 1.25344 23.0098C1.02561 23.5506 0.919838 24.1478 0.976795 24.6804C1.05002 25.3502 1.16394 25.8667 1.49754 26.4639C1.81487 27.0289 2.25426 27.4404 2.76687 27.7955C3.71073 28.4412 5.02074 28.5541 6.11105 28.2555C7.23392 27.9408 8.13709 27.2225 8.8043 26.2783Z" fill="#30BEAD"/>
<path d="M23.0997 19.7333C22.8881 19.2571 22.5545 18.8214 22.1965 18.442C21.3178 17.5059 20.1135 17.0701 18.8605 16.949C18.3479 16.9006 17.8027 16.9652 17.3145 17.0943C16.6147 17.2799 16.0208 17.635 15.4756 18.095C14.5399 18.8778 14.0598 20.1691 14.0435 21.3554C14.0354 21.8558 14.133 22.3158 14.2876 22.7677C14.0761 23.6958 14.2388 24.6723 14.6701 25.5601C15.1827 26.6173 16.1916 27.3597 17.2901 27.739C17.9817 27.9812 18.7059 27.9247 19.4138 27.8117C19.9182 27.739 20.4227 27.5211 20.8621 27.279C21.3259 27.0208 21.7653 26.6818 22.1151 26.2864C22.4569 25.9071 22.7986 25.4713 23.0265 25.0113C23.4984 24.0348 23.7913 22.9453 23.6693 21.8558C23.5798 21.0407 23.4252 20.4677 23.0997 19.7333Z" fill="#30BEAD"/>
<path d="M17.3726 35.1718C16.8926 33.7837 16.087 32.5651 14.8258 31.7581C13.6786 31.0237 12.0594 30.7412 10.7575 31.2012C9.3417 31.7016 8.18628 32.8475 7.84454 34.3325C7.73877 34.8086 7.70622 35.2767 7.7469 35.7367C7.63299 36.1402 7.60858 36.5841 7.69808 37.0441C7.92591 38.174 8.21069 39.3038 8.79654 40.3045C9.50443 41.507 10.6517 42.4431 12.0105 42.8305C13.524 43.2582 15.135 42.8628 16.2742 41.7975C17.2668 40.8775 17.6411 39.5701 17.7713 38.2708C17.812 37.8754 17.7957 37.4718 17.7469 37.0764C17.6737 36.4388 17.5842 35.7932 17.3726 35.1718ZM12.0105 34.9781C12.0187 34.9781 12.0268 34.97 12.0349 34.97C12.0431 34.97 12.0512 34.97 12.0594 34.97C12.0431 34.97 12.0268 34.97 12.0105 34.9781Z" fill="#30BEAD"/>
<path d="M31.8083 4.56917C30.5064 3.64109 28.5617 3.67337 27.2598 4.59338C25.9987 5.48112 25.2175 6.78044 24.9897 8.29766C24.8514 9.17732 24.7375 10.0893 24.8595 10.9447C24.7212 11.3644 24.6561 11.8163 24.6968 12.2118C24.77 13.0591 25.0385 13.7855 25.5674 14.4634C26.5926 15.7788 28.4478 16.3034 30.0345 15.7304C30.783 15.456 31.4747 15.0767 32.0361 14.4957C32.6463 13.8662 33.0206 13.156 33.3461 12.357C33.5332 11.897 33.6553 11.4128 33.7529 10.9286C33.8913 10.2184 34.0214 9.48399 33.997 8.75766C33.9319 7.05483 33.2159 5.56989 31.8083 4.56917Z" fill="#30BEAD"/>
<path d="M5.23228 12.2037C6.12732 10.6381 5.69607 8.46714 4.55693 7.13554C3.98736 6.4657 3.11674 6.0299 2.2217 6.15096C1.17206 6.28815 0.488581 7.2001 0.309574 8.18468C0.187523 8.8303 0.187523 9.484 0.277027 10.1216C-0.235585 11.09 -0.0240311 12.4539 0.805912 13.1883C2.20543 14.415 4.36979 13.7128 5.23228 12.2037ZM2.84009 8.86258C2.80754 8.84644 2.78313 8.80609 2.77499 8.78188C2.79127 8.80609 2.80754 8.81416 2.82381 8.83837C2.83195 8.85451 2.83195 8.85451 2.84009 8.86258ZM2.44953 8.53977C2.45766 8.53977 2.47394 8.53977 2.48207 8.53977C2.48207 8.53977 2.48207 8.53977 2.49021 8.53977C2.49021 8.53977 2.49835 8.53977 2.49835 8.54784C2.49835 8.54784 2.49021 8.54784 2.48207 8.54784C2.47394 8.53977 2.45766 8.53977 2.44953 8.53977Z" fill="#30BEAD"/>
<path d="M30.3914 28.5783C29.0976 27.618 27.2831 27.7955 26.2823 29.0706C25.4931 30.0875 25.3385 31.4756 25.3954 32.7184C25.4036 32.8233 25.4117 32.9363 25.4198 33.0493C25.2164 33.9612 25.2164 34.8974 25.6395 35.8416C26.3556 37.4395 28.1782 38.0852 29.7567 37.3427C31.384 36.576 31.8885 34.7602 32.0106 33.1219C32.1245 31.4272 31.8397 29.6517 30.3914 28.5783ZM29.1464 31.871C29.1871 31.8387 29.1709 31.8387 29.1464 31.871V31.871Z" fill="#30BEAD"/>
</g>
</svg>
