<svg width="24" height="24" viewBox="0 0 24 24" fill="none" xmlns="http://www.w3.org/2000/svg">
<path d="M10 16.9493H6.21C2.84 16.9493 2 16.1093 2 12.7393V6.7393C2 3.3693 2.84 2.5293 6.21 2.5293H16.74C20.11 2.5293 20.95 3.3693 20.95 6.7393" stroke="#30BEAD" stroke-width="1.5" stroke-linecap="round" stroke-linejoin="round"/>
<path d="M10 21.4692V16.9492" stroke="#30BEAD" stroke-width="1.5" stroke-linecap="round" stroke-linejoin="round"/>
<path d="M2 12.9492H10" stroke="#30BEAD" stroke-width="1.5" stroke-linecap="round" stroke-linejoin="round"/>
<path d="M6.74219 21.4707H10.0022" stroke="#30BEAD" stroke-width="1.5" stroke-linecap="round" stroke-linejoin="round"/>
<path d="M22.0013 12.7998V18.5098C22.0013 20.8798 21.4113 21.4698 19.0413 21.4698H15.4913C13.1213 21.4698 12.5312 20.8798 12.5312 18.5098V12.7998C12.5312 10.4298 13.1213 9.83984 15.4913 9.83984H19.0413C21.4113 9.83984 22.0013 10.4298 22.0013 12.7998Z" stroke="#30BEAD" stroke-width="1.5" stroke-linecap="round" stroke-linejoin="round"/>
<path d="M17.2445 18.25H17.2535" stroke="#30BEAD" stroke-width="2" stroke-linecap="round" stroke-linejoin="round"/>
</svg>
