<svg width="24" height="24" viewBox="0 0 24 24" fill="none" xmlns="http://www.w3.org/2000/svg">
<path d="M11 2H9C4 2 2 4 2 9V15C2 20 4 22 9 22H15C20 22 22 20 22 15V13" stroke="#30BEAD" stroke-width="1.5" stroke-linecap="round" stroke-linejoin="round"/>
<path d="M16.0379 3.01928L8.15793 10.8993C7.85793 11.1993 7.55793 11.7893 7.49793 12.2193L7.06793 15.2293C6.90793 16.3193 7.67793 17.0793 8.76793 16.9293L11.7779 16.4993C12.1979 16.4393 12.7879 16.1393 13.0979 15.8393L20.9779 7.95928C22.3379 6.59928 22.9779 5.01928 20.9779 3.01928C18.9779 1.01928 17.3979 1.65928 16.0379 3.01928Z" stroke="#30BEAD" stroke-width="1.5" stroke-miterlimit="10" stroke-linecap="round" stroke-linejoin="round"/>
<path d="M14.9062 4.15039C15.5763 6.54039 17.4463 8.41039 19.8463 9.09039" stroke="#30BEAD" stroke-width="1.5" stroke-miterlimit="10" stroke-linecap="round" stroke-linejoin="round"/>
</svg>
