<svg width="24" height="24" viewBox="0 0 24 24" fill="none" xmlns="http://www.w3.org/2000/svg">
<path d="M15.3929 5.21L16.8029 8.02999C16.9929 8.41999 17.5029 8.78999 17.9329 8.86999L20.4829 9.28999C22.1129 9.55999 22.4929 10.74 21.3229 11.92L19.3329 13.91C19.0029 14.24 18.8129 14.89 18.9229 15.36L19.4929 17.82C19.9429 19.76 18.9029 20.52 17.1929 19.5L14.8029 18.08C14.3729 17.82 13.6529 17.82 13.2229 18.08L10.8329 19.5C9.12287 20.51 8.08288 19.76 8.53288 17.82L9.10289 15.36C9.21289 14.9 9.02288 14.25 8.69288 13.91L6.70289 11.92C5.53289 10.75 5.91289 9.56999 7.54289 9.28999L10.0929 8.86999C10.5229 8.79999 11.0329 8.41999 11.2229 8.02999L12.6329 5.21C13.3829 3.68 14.6229 3.68 15.3929 5.21Z" stroke="#30BEAD" stroke-width="1.5" stroke-linecap="round" stroke-linejoin="round"/>
<path d="M8 5H2" stroke="#30BEAD" stroke-width="1.5" stroke-linecap="round" stroke-linejoin="round"/>
<path d="M5 19H2" stroke="#30BEAD" stroke-width="1.5" stroke-linecap="round" stroke-linejoin="round"/>
<path d="M3 12H2" stroke="#30BEAD" stroke-width="1.5" stroke-linecap="round" stroke-linejoin="round"/>
</svg>
