<svg width="32" height="32" viewBox="0 0 32 32" fill="none" xmlns="http://www.w3.org/2000/svg">
<g clip-path="url(#clip0_152_739)">
<path d="M4.92969 2.18066H27.0712V2.87851H4.92969V2.18066Z" fill="#7B7B8A"/>
<path d="M4.92969 6.10449H27.0712V6.80234H4.92969V6.10449Z" fill="#7B7B8A"/>
<path d="M7.88281 10.0283H24.1165V10.7262H7.88281V10.0283Z" fill="#7B7B8A"/>
<path d="M27.0703 29.792H4.92876V29.0941H27.0703V29.792Z" fill="#7B7B8A"/>
<path d="M27.0703 25.8682H4.92876V25.1703H27.0703V25.8682Z" fill="#7B7B8A"/>
<path d="M24.1172 21.9434H7.88346V21.2455H24.1172V21.9434Z" fill="#7B7B8A"/>
<path d="M27.7532 31.9725C26.9641 31.9725 26.3244 31.3328 26.3244 30.5436C26.3244 28.6237 25.8366 26.719 24.9135 25.0355C23.9904 23.3521 22.6469 21.9166 21.0281 20.8843L9.44547 13.4976C7.42295 12.2077 5.74433 10.4141 4.59107 8.31078C3.43782 6.20744 2.82812 3.82764 2.82812 1.42883C2.82812 0.639686 3.46781 0 4.25696 0C5.0461 0 5.68579 0.639686 5.68579 1.42883C5.68579 3.34877 6.17363 5.25346 7.09674 6.93691C8.01978 8.62036 9.36328 10.0558 10.982 11.0882L22.5646 18.4749C24.5871 19.7647 26.2658 21.5583 27.4191 23.6617C28.5723 25.765 29.1819 28.1448 29.1819 30.5436C29.1821 31.3328 28.5424 31.9725 27.7532 31.9725V31.9725Z" fill="url(#paint0_linear_152_739)"/>
<path d="M27.4111 23.6613C26.2578 21.558 24.5791 19.7644 22.5566 18.4745L10.9741 11.0878C9.35529 10.0555 8.01179 8.62001 7.08875 6.93656C6.16564 5.25311 5.6778 3.34842 5.6778 1.42848C5.6778 0.843694 5.32637 0.341231 4.82328 0.120117C4.32019 0.341294 3.96875 0.843694 3.96875 1.42848C3.96875 3.82729 4.57838 6.20708 5.73164 8.31042C6.88489 10.4138 8.56357 12.2074 10.586 13.4972L22.1686 20.8839C23.7874 21.9163 25.1309 23.3517 26.054 25.0352C26.9771 26.7186 27.4649 28.6233 27.4649 30.5433C27.4649 31.1281 27.8164 31.6305 28.3194 31.8516C28.8225 31.6305 29.174 31.1281 29.174 30.5433C29.174 28.1445 28.5644 25.7647 27.4111 23.6613V23.6613Z" fill="url(#paint1_linear_152_739)"/>
<path d="M22.5595 18.4753L17.3689 15.165L14.6328 16.8095L21.0229 20.8848C21.6668 21.2954 22.2663 21.7709 22.814 22.2993H26.5611C25.4904 20.7819 24.1291 19.4764 22.5595 18.4753V18.4753Z" fill="url(#paint2_linear_152_739)"/>
<path d="M4.25696 31.9725C3.46781 31.9725 2.82812 31.3328 2.82812 30.5436C2.82812 28.1448 3.43776 25.765 4.59101 23.6617C5.74427 21.5583 7.42295 19.7647 9.44541 18.4749L21.028 11.0882C22.6467 10.0558 23.9903 8.62036 24.9133 6.93691C25.8364 5.25346 26.3243 3.34877 26.3243 1.42883C26.3244 0.639686 26.9641 0 27.7532 0C28.5424 0 29.1821 0.639686 29.1821 1.42883C29.1821 3.82764 28.5724 6.20744 27.4192 8.31078C26.2659 10.4141 24.5872 12.2077 22.5647 13.4976L10.9821 20.8843C9.36334 21.9165 8.01984 23.3521 7.0968 25.0355C6.17369 26.719 5.68585 28.6237 5.68585 30.5436C5.68579 31.3328 5.0461 31.9725 4.25696 31.9725V31.9725Z" fill="url(#paint3_linear_152_739)"/>
<path d="M10.9761 20.8837L22.5587 13.4971C24.5812 12.2072 26.2599 10.4136 27.4131 8.31025C28.5664 6.20691 29.176 3.82711 29.176 1.4283C29.176 0.794328 28.763 0.257167 28.1916 0.0703125C27.6201 0.257167 27.2071 0.794391 27.2071 1.4283C27.2071 3.34824 26.7192 5.25293 25.7961 6.93638C24.8731 8.61983 23.5295 10.0553 21.9108 11.0877L10.3282 18.4743C8.3057 19.7642 6.62708 21.5578 5.47382 23.6612C4.32057 25.7645 3.71094 28.1443 3.71094 30.5431C3.71094 31.1771 4.12393 31.7142 4.69541 31.9011C5.26689 31.7142 5.67988 31.177 5.67988 30.5431C5.67988 28.6232 6.16772 26.7185 7.09083 25.035C8.01387 23.3516 9.35731 21.9161 10.9761 20.8837V20.8837Z" fill="url(#paint4_linear_152_739)"/>
<path d="M15.9995 12.8456C17.3626 12.8456 18.4677 11.7405 18.4677 10.3774C18.4677 9.01423 17.3626 7.90918 15.9995 7.90918C14.6363 7.90918 13.5312 9.01423 13.5312 10.3774C13.5312 11.7405 14.6363 12.8456 15.9995 12.8456Z" fill="url(#paint5_linear_152_739)"/>
<path d="M15.9974 12.4372C17.1351 12.4372 18.0573 11.515 18.0573 10.3773C18.0573 9.23964 17.1351 8.31738 15.9974 8.31738C14.8598 8.31738 13.9375 9.23964 13.9375 10.3773C13.9375 11.515 14.8598 12.4372 15.9974 12.4372Z" fill="url(#paint6_linear_152_739)"/>
<path d="M17.6793 8.56348C17.747 8.92884 17.7331 9.3151 17.6229 9.69647C17.2446 11.006 15.8762 11.761 14.5666 11.3826C14.1853 11.2724 13.8511 11.0782 13.5781 10.826C13.743 11.7155 14.3924 12.4812 15.3206 12.7493C16.6302 13.1277 17.9986 12.3728 18.3769 11.0632C18.6452 10.135 18.3439 9.17731 17.6793 8.56348V8.56348Z" fill="url(#paint7_linear_152_739)"/>
<path d="M10.6088 27.9872C11.972 27.9872 13.077 26.8821 13.077 25.519C13.077 24.1558 11.972 23.0508 10.6088 23.0508C9.24568 23.0508 8.14062 24.1558 8.14062 25.519C8.14062 26.8821 9.24568 27.9872 10.6088 27.9872Z" fill="url(#paint8_linear_152_739)"/>
<path d="M10.6068 27.5788C11.7445 27.5788 12.6667 26.6566 12.6667 25.5189C12.6667 24.3812 11.7445 23.459 10.6068 23.459C9.46913 23.459 8.54688 24.3812 8.54688 25.5189C8.54688 26.6566 9.46913 27.5788 10.6068 27.5788Z" fill="url(#paint9_linear_152_739)"/>
<path d="M12.2731 23.7041C12.3408 24.0695 12.3268 24.4557 12.2167 24.8371C11.8383 26.1466 10.47 26.9016 9.16036 26.5232C8.77906 26.413 8.44488 26.2188 8.17188 25.9666C8.33671 26.8562 8.98612 27.6218 9.91437 27.8899C11.224 28.2683 12.5923 27.5134 12.9707 26.2039C13.2389 25.2756 12.9376 24.3179 12.2731 23.7041V23.7041Z" fill="url(#paint10_linear_152_739)"/>
<path d="M21.6479 8.92176C23.011 8.92176 24.1161 7.81671 24.1161 6.45356C24.1161 5.0904 23.011 3.98535 21.6479 3.98535C20.2847 3.98535 19.1797 5.0904 19.1797 6.45356C19.1797 7.81671 20.2847 8.92176 21.6479 8.92176Z" fill="url(#paint11_linear_152_739)"/>
<path d="M21.6537 8.5134C22.7913 8.5134 23.7136 7.59114 23.7136 6.45348C23.7136 5.31581 22.7913 4.39355 21.6537 4.39355C20.516 4.39355 19.5938 5.31581 19.5938 6.45348C19.5938 7.59114 20.516 8.5134 21.6537 8.5134Z" fill="url(#paint12_linear_152_739)"/>
<path d="M22.7495 4.24609C22.916 4.57833 23.0098 4.95329 23.0098 5.35022C23.0098 6.71336 21.9048 7.81842 20.5416 7.81842C20.1447 7.81842 19.7697 7.72462 19.4375 7.55809C19.8428 8.36688 20.6792 8.92217 21.6454 8.92217C23.0085 8.92217 24.1136 7.81711 24.1136 6.45397C24.1136 5.48776 23.5583 4.65136 22.7495 4.24609Z" fill="url(#paint13_linear_152_739)"/>
<path d="M21.6479 31.9999C23.011 31.9999 24.1161 30.8948 24.1161 29.5317C24.1161 28.1685 23.011 27.0635 21.6479 27.0635C20.2847 27.0635 19.1797 28.1685 19.1797 29.5317C19.1797 30.8948 20.2847 31.9999 21.6479 31.9999Z" fill="url(#paint14_linear_152_739)"/>
<path d="M21.6537 31.5915C22.7913 31.5915 23.7136 30.6693 23.7136 29.5316C23.7136 28.3939 22.7913 27.4717 21.6537 27.4717C20.516 27.4717 19.5938 28.3939 19.5938 29.5316C19.5938 30.6693 20.516 31.5915 21.6537 31.5915Z" fill="url(#paint15_linear_152_739)"/>
<path d="M22.7495 27.3242C22.916 27.6565 23.0098 28.0314 23.0098 28.4283C23.0098 29.7915 21.9048 30.8965 20.5416 30.8965C20.1447 30.8965 19.7697 30.8027 19.4375 30.6362C19.8428 31.445 20.6792 32.0003 21.6454 32.0003C23.0085 32.0003 24.1136 30.8952 24.1136 29.5321C24.1136 28.5659 23.5583 27.7294 22.7495 27.3242Z" fill="url(#paint16_linear_152_739)"/>
<path d="M10.0932 4.99793C11.4564 4.99793 12.5614 3.89288 12.5614 2.52973C12.5614 1.16658 11.4564 0.0615234 10.0932 0.0615234C8.73005 0.0615234 7.625 1.16658 7.625 2.52973C7.625 3.89288 8.73005 4.99793 10.0932 4.99793Z" fill="url(#paint17_linear_152_739)"/>
<path d="M10.0912 4.58957C11.2288 4.58957 12.1511 3.66731 12.1511 2.52965C12.1511 1.39199 11.2288 0.469727 10.0912 0.469727C8.95351 0.469727 8.03125 1.39199 8.03125 2.52965C8.03125 3.66731 8.95351 4.58957 10.0912 4.58957Z" fill="url(#paint18_linear_152_739)"/>
<path d="M11.1948 0.322266C11.3613 0.654501 11.4551 1.02947 11.4551 1.42639C11.4551 2.78953 10.3501 3.8946 8.98694 3.8946C8.59001 3.8946 8.21505 3.80079 7.88281 3.63427C8.28808 4.44305 9.12448 4.99834 10.0907 4.99834C11.4538 4.99834 12.5589 3.89328 12.5589 2.53014C12.559 1.56393 12.0037 0.727536 11.1948 0.322266V0.322266Z" fill="url(#paint19_linear_152_739)"/>
<path d="M16.4448 24.1669C17.8079 24.1669 18.913 23.0618 18.913 21.6987C18.913 20.3355 17.8079 19.2305 16.4448 19.2305C15.0816 19.2305 13.9766 20.3355 13.9766 21.6987C13.9766 23.0618 15.0816 24.1669 16.4448 24.1669Z" fill="url(#paint20_linear_152_739)"/>
<path d="M16.4427 23.7585C17.5804 23.7585 18.5027 22.8363 18.5027 21.6986C18.5027 20.5609 17.5804 19.6387 16.4427 19.6387C15.3051 19.6387 14.3828 20.5609 14.3828 21.6986C14.3828 22.8363 15.3051 23.7585 16.4427 23.7585Z" fill="url(#paint21_linear_152_739)"/>
<path d="M17.5464 19.4912C17.7128 19.8234 17.8067 20.1984 17.8067 20.5953C17.8067 21.9585 16.7016 23.0635 15.3385 23.0635C14.9416 23.0635 14.5666 22.9697 14.2344 22.8032C14.6396 23.612 15.476 24.1673 16.4422 24.1673C17.8054 24.1673 18.9104 23.0622 18.9104 21.6991C18.9105 20.7329 18.3552 19.8964 17.5464 19.4912Z" fill="url(#paint22_linear_152_739)"/>
</g>
<defs>
<linearGradient id="paint0_linear_152_739" x1="18.3284" y1="13.365" x2="13.3751" y2="18.9534" gradientUnits="userSpaceOnUse">
<stop stop-color="#FF7044"/>
<stop offset="1" stop-color="#F92814"/>
</linearGradient>
<linearGradient id="paint1_linear_152_739" x1="14.5749" y1="15.2513" x2="-6.82585" y2="7.37684" gradientUnits="userSpaceOnUse">
<stop stop-color="#FF7044" stop-opacity="0"/>
<stop offset="1" stop-color="#FFA425"/>
</linearGradient>
<linearGradient id="paint2_linear_152_739" x1="21.0552" y1="19.8642" x2="17.666" y2="16.475" gradientUnits="userSpaceOnUse">
<stop stop-color="#F92814" stop-opacity="0"/>
<stop offset="1" stop-color="#C1272D"/>
</linearGradient>
<linearGradient id="paint3_linear_152_739" x1="15.0051" y1="14.5063" x2="18.1803" y2="19.2055" gradientUnits="userSpaceOnUse">
<stop stop-color="#FF7044"/>
<stop offset="1" stop-color="#F92814"/>
</linearGradient>
<linearGradient id="paint4_linear_152_739" x1="18.5727" y1="21.538" x2="10.3172" y2="0.0103293" gradientUnits="userSpaceOnUse">
<stop stop-color="#FF7044" stop-opacity="0"/>
<stop offset="1" stop-color="#FFA425"/>
</linearGradient>
<linearGradient id="paint5_linear_152_739" x1="15.4101" y1="9.26195" x2="17.5934" y2="13.2227" gradientUnits="userSpaceOnUse">
<stop stop-color="#FFDA45"/>
<stop offset="1" stop-color="#FFA425"/>
</linearGradient>
<linearGradient id="paint6_linear_152_739" x1="16.2066" y1="10.8919" x2="15.3434" y2="8.39368" gradientUnits="userSpaceOnUse">
<stop stop-color="#FFDA45" stop-opacity="0"/>
<stop offset="1" stop-color="#FCEE21"/>
</linearGradient>
<linearGradient id="paint7_linear_152_739" x1="15.8666" y1="11.3398" x2="20.8811" y2="6.2192" gradientUnits="userSpaceOnUse">
<stop stop-color="#FFDA45" stop-opacity="0"/>
<stop offset="1" stop-color="#B53759"/>
</linearGradient>
<linearGradient id="paint8_linear_152_739" x1="10.0128" y1="24.408" x2="12.1961" y2="28.3688" gradientUnits="userSpaceOnUse">
<stop stop-color="#FFDA45"/>
<stop offset="1" stop-color="#FFA425"/>
</linearGradient>
<linearGradient id="paint9_linear_152_739" x1="10.8094" y1="26.0379" x2="9.94606" y2="23.5397" gradientUnits="userSpaceOnUse">
<stop stop-color="#FFDA45" stop-opacity="0"/>
<stop offset="1" stop-color="#FCEE21"/>
</linearGradient>
<linearGradient id="paint10_linear_152_739" x1="10.4536" y1="26.4848" x2="15.4681" y2="21.3643" gradientUnits="userSpaceOnUse">
<stop stop-color="#FFDA45" stop-opacity="0"/>
<stop offset="1" stop-color="#B53759"/>
</linearGradient>
<linearGradient id="paint11_linear_152_739" x1="20.7244" y1="5.53007" x2="23.9211" y2="8.72675" gradientUnits="userSpaceOnUse">
<stop stop-color="#18CFFC"/>
<stop offset="1" stop-color="#4A98F7"/>
</linearGradient>
<linearGradient id="paint12_linear_152_739" x1="21.9498" y1="6.8733" x2="20.4269" y2="4.71425" gradientUnits="userSpaceOnUse">
<stop stop-color="#18CFFC" stop-opacity="0"/>
<stop offset="1" stop-color="#65E1DC"/>
</linearGradient>
<linearGradient id="paint13_linear_152_739" x1="21.7311" y1="7.39998" x2="25.1238" y2="1.09008" gradientUnits="userSpaceOnUse">
<stop stop-color="#0469BC" stop-opacity="0"/>
<stop offset="1" stop-color="#0469BC"/>
</linearGradient>
<linearGradient id="paint14_linear_152_739" x1="20.7244" y1="28.6082" x2="23.9211" y2="31.8049" gradientUnits="userSpaceOnUse">
<stop stop-color="#18CFFC"/>
<stop offset="1" stop-color="#4A98F7"/>
</linearGradient>
<linearGradient id="paint15_linear_152_739" x1="21.9498" y1="29.9514" x2="20.4269" y2="27.7924" gradientUnits="userSpaceOnUse">
<stop stop-color="#18CFFC" stop-opacity="0"/>
<stop offset="1" stop-color="#65E1DC"/>
</linearGradient>
<linearGradient id="paint16_linear_152_739" x1="21.7311" y1="30.478" x2="25.1238" y2="24.1681" gradientUnits="userSpaceOnUse">
<stop stop-color="#0469BC" stop-opacity="0"/>
<stop offset="1" stop-color="#0469BC"/>
</linearGradient>
<linearGradient id="paint17_linear_152_739" x1="9.16972" y1="1.60624" x2="12.3664" y2="4.80298" gradientUnits="userSpaceOnUse">
<stop stop-color="#92F37F"/>
<stop offset="1" stop-color="#4AB272"/>
</linearGradient>
<linearGradient id="paint18_linear_152_739" x1="10.3873" y1="2.94954" x2="8.86437" y2="0.790482" gradientUnits="userSpaceOnUse">
<stop stop-color="#92F37F" stop-opacity="0"/>
<stop offset="1" stop-color="#FFEE83"/>
</linearGradient>
<linearGradient id="paint19_linear_152_739" x1="10.1765" y1="3.47609" x2="13.5692" y2="-2.83381" gradientUnits="userSpaceOnUse">
<stop stop-color="#4AB272" stop-opacity="0"/>
<stop offset="1" stop-color="#009245"/>
</linearGradient>
<linearGradient id="paint20_linear_152_739" x1="15.5213" y1="20.7752" x2="18.718" y2="23.9719" gradientUnits="userSpaceOnUse">
<stop stop-color="#92F37F"/>
<stop offset="1" stop-color="#4AB272"/>
</linearGradient>
<linearGradient id="paint21_linear_152_739" x1="16.7389" y1="22.1184" x2="15.2159" y2="19.9594" gradientUnits="userSpaceOnUse">
<stop stop-color="#92F37F" stop-opacity="0"/>
<stop offset="1" stop-color="#FFEE83"/>
</linearGradient>
<linearGradient id="paint22_linear_152_739" x1="16.528" y1="22.645" x2="19.9207" y2="16.3351" gradientUnits="userSpaceOnUse">
<stop stop-color="#4AB272" stop-opacity="0"/>
<stop offset="1" stop-color="#009245"/>
</linearGradient>
<clipPath id="clip0_152_739">
<rect width="32" height="32" fill="white"/>
</clipPath>
</defs>
</svg>
