<svg width="24" height="24" viewBox="0 0 24 24" fill="none" xmlns="http://www.w3.org/2000/svg">
<path d="M9.1625 10.87C9.0625 10.86 8.9425 10.86 8.8325 10.87C6.4525 10.79 4.5625 8.84 4.5625 6.44C4.5625 3.99 6.5425 2 9.0025 2C11.4525 2 13.4425 3.99 13.4425 6.44C13.4325 8.84 11.5425 10.79 9.1625 10.87Z" stroke="#30BEAD" stroke-width="1.5" stroke-linecap="round" stroke-linejoin="round"/>
<path d="M16.4112 4C18.3512 4 19.9112 5.57 19.9112 7.5C19.9112 9.39 18.4113 10.93 16.5413 11C16.4613 10.99 16.3713 10.99 16.2812 11" stroke="#30BEAD" stroke-width="1.5" stroke-linecap="round" stroke-linejoin="round"/>
<path d="M4.15875 14.56C1.73875 16.18 1.73875 18.82 4.15875 20.43C6.90875 22.27 11.4188 22.27 14.1688 20.43C16.5888 18.81 16.5888 16.17 14.1688 14.56C11.4288 12.73 6.91875 12.73 4.15875 14.56Z" stroke="#30BEAD" stroke-width="1.5" stroke-linecap="round" stroke-linejoin="round"/>
<path d="M18.3438 20C19.0638 19.85 19.7437 19.56 20.3037 19.13C21.8637 17.96 21.8637 16.03 20.3037 14.86C19.7537 14.44 19.0838 14.16 18.3738 14" stroke="#30BEAD" stroke-width="1.5" stroke-linecap="round" stroke-linejoin="round"/>
</svg>
