<svg width="20" height="20" viewBox="0 0 20 20" fill="none" xmlns="http://www.w3.org/2000/svg">
<path d="M15.1161 18.0176C14.3828 18.2343 13.5161 18.3343 12.4995 18.3343H7.49948C6.48281 18.3343 5.61615 18.2343 4.88281 18.0176C5.06615 15.8509 7.29115 14.1426 9.99948 14.1426C12.7078 14.1426 14.9328 15.8509 15.1161 18.0176Z" stroke="#30BEAD" stroke-width="1.5" stroke-linecap="round" stroke-linejoin="round"/>
<path d="M12.4974 1.66602H7.4974C3.33073 1.66602 1.66406 3.33268 1.66406 7.49935V12.4993C1.66406 15.6493 2.61406 17.3743 4.88073 18.016C5.06406 15.8493 7.28906 14.141 9.9974 14.141C12.7057 14.141 14.9307 15.8493 15.1141 18.016C17.3807 17.3743 18.3307 15.6493 18.3307 12.4993V7.49935C18.3307 3.33268 16.6641 1.66602 12.4974 1.66602ZM9.9974 11.8077C8.3474 11.8077 7.01406 10.466 7.01406 8.81603C7.01406 7.16603 8.3474 5.83268 9.9974 5.83268C11.6474 5.83268 12.9807 7.16603 12.9807 8.81603C12.9807 10.466 11.6474 11.8077 9.9974 11.8077Z" stroke="#30BEAD" stroke-width="1.5" stroke-linecap="round" stroke-linejoin="round"/>
<path d="M12.9823 8.81733C12.9823 10.4673 11.649 11.809 9.99896 11.809C8.34896 11.809 7.01562 10.4673 7.01562 8.81733C7.01562 7.16733 8.34896 5.83398 9.99896 5.83398C11.649 5.83398 12.9823 7.16733 12.9823 8.81733Z" stroke="#30BEAD" stroke-width="1.5" stroke-linecap="round" stroke-linejoin="round"/>
</svg>
