<svg width="32" height="32" viewBox="0 0 32 32" fill="none" xmlns="http://www.w3.org/2000/svg">
<path d="M10.1981 27.8804C10.1581 27.8804 10.1048 27.9071 10.0648 27.9071C7.47813 26.6271 5.37146 24.5071 4.07812 21.9204C4.07812 21.8804 4.10479 21.8271 4.10479 21.7871C5.73146 22.2671 7.41146 22.6271 9.07813 22.9071C9.37146 24.5871 9.71813 26.2538 10.1981 27.8804Z" fill="#30BEAD"/>
<path d="M27.9187 21.9338C26.5987 24.5871 24.3987 26.7338 21.7188 28.0271C22.2254 26.3338 22.6521 24.6271 22.9321 22.9071C24.6121 22.6271 26.2654 22.2671 27.8921 21.7871C27.8787 21.8404 27.9187 21.8938 27.9187 21.9338Z" fill="#30BEAD"/>
<path d="M28.0254 10.2793C26.3454 9.77266 24.6521 9.35932 22.9321 9.06599C22.6521 7.34599 22.2387 5.63932 21.7188 3.97266C24.4787 5.29266 26.7054 7.51932 28.0254 10.2793Z" fill="#30BEAD"/>
<path d="M10.1954 4.12008C9.71542 5.74674 9.36875 7.40008 9.08875 9.08008C7.36875 9.34674 5.66208 9.77341 3.96875 10.2801C5.26208 7.60008 7.40875 5.40008 10.0621 4.08008C10.1021 4.08008 10.1554 4.12008 10.1954 4.12008Z" fill="#30BEAD"/>
<path d="M20.6504 8.78602C17.5571 8.43935 14.4371 8.43935 11.3438 8.78602C11.6771 6.95935 12.1037 5.13268 12.7037 3.37268C12.7304 3.26602 12.7171 3.18602 12.7304 3.07935C13.7838 2.82602 14.8637 2.66602 15.9971 2.66602C17.1171 2.66602 18.2104 2.82602 19.2504 3.07935C19.2637 3.18602 19.2638 3.26602 19.2904 3.37268C19.8904 5.14602 20.3171 6.95935 20.6504 8.78602Z" fill="#30BEAD"/>
<path d="M8.79187 20.6543C6.95187 20.321 5.13854 19.8943 3.37854 19.2943C3.27187 19.2677 3.19187 19.281 3.08521 19.2677C2.83187 18.2143 2.67188 17.1343 2.67188 16.001C2.67188 14.881 2.83187 13.7877 3.08521 12.7477C3.19187 12.7343 3.27187 12.7343 3.37854 12.7077C5.15187 12.121 6.95187 11.681 8.79187 11.3477C8.45854 14.441 8.45854 17.561 8.79187 20.6543Z" fill="#30BEAD"/>
<path d="M29.3388 16.001C29.3388 17.1343 29.1788 18.2143 28.9254 19.2677C28.8188 19.281 28.7387 19.2677 28.6321 19.2943C26.8587 19.881 25.0454 20.321 23.2188 20.6543C23.5654 17.561 23.5654 14.441 23.2188 11.3477C25.0454 11.681 26.8721 12.1077 28.6321 12.7077C28.7387 12.7343 28.8188 12.7477 28.9254 12.7477C29.1788 13.801 29.3388 14.881 29.3388 16.001Z" fill="#30BEAD"/>
<path d="M20.6504 23.2129C20.3171 25.0529 19.8904 26.8662 19.2904 28.6262C19.2638 28.7329 19.2637 28.8129 19.2504 28.9196C18.2104 29.1729 17.1171 29.3329 15.9971 29.3329C14.8637 29.3329 13.7838 29.1729 12.7304 28.9196C12.7171 28.8129 12.7304 28.7329 12.7037 28.6262C12.1171 26.8529 11.6771 25.0529 11.3438 23.2129C12.8904 23.3862 14.4371 23.5062 15.9971 23.5062C17.5571 23.5062 19.1171 23.3862 20.6504 23.2129Z" fill="#30BEAD"/>
<path d="M21.023 21.0171C17.6882 21.4379 14.3222 21.4379 10.9874 21.0171C10.5667 17.6823 10.5667 14.3164 10.9874 10.9816C14.3222 10.5608 17.6882 10.5608 21.023 10.9816C21.4437 14.3164 21.4437 17.6823 21.023 21.0171Z" fill="#30BEAD"/>
</svg>
