<svg width="132" height="27" viewBox="0 0 132 27" fill="none" xmlns="http://www.w3.org/2000/svg">
<path d="M6.06171 20.734H16.6697V26.5019H0V0.3125H16.4803V6.0804H6.06171V10.4141H15.5331V16.0885H6.06171V20.734Z" fill="#0C1327"/>
<path d="M33.2748 0.3125H38.9576V26.5019H33.2748V24.7247C31.9488 26.2525 30.0545 27.0007 27.6235 27.0007C25.1294 27.0007 22.9825 26.0342 21.2145 24.1324C19.4465 22.2305 18.5625 19.8922 18.5625 17.1485C18.5625 14.4049 19.4465 12.0354 21.2145 10.1335C22.9825 8.23167 25.1294 7.26516 27.6235 7.26516C30.0545 7.26516 31.9172 8.01342 33.2748 9.54114V0.3125ZM25.5082 20.4534C26.3291 21.264 27.4341 21.7005 28.7601 21.7005C30.0861 21.7005 31.1911 21.2952 32.0119 20.4534C32.8328 19.6428 33.2748 18.5204 33.2748 17.1173C33.2748 15.7143 32.8643 14.6231 32.0119 13.7813C31.1911 12.9707 30.0861 12.5342 28.7601 12.5342C27.4341 12.5342 26.3291 12.9395 25.5082 13.7813C24.6874 14.5919 24.2454 15.7143 24.2454 17.1173C24.2454 18.5204 24.6558 19.6428 25.5082 20.4534Z" fill="#0C1327"/>
<path d="M55.346 7.79492H61.0289V26.5016H55.346V24.7245C54.2095 26.2522 52.4099 27.0005 49.9157 27.0005C47.8952 27.0005 46.2219 26.3146 44.8643 24.9427C43.5068 23.5709 42.8438 21.6691 42.8438 19.2684V7.79492H48.5266V18.4577C48.5266 19.549 48.8423 20.3908 49.4422 20.9831C50.0736 21.5755 50.8629 21.8561 51.81 21.8561C52.8835 21.8561 53.7675 21.5443 54.3989 20.8896C55.0303 20.2349 55.346 19.2684 55.346 18.0213V7.79492Z" fill="#0C1327"/>
<path d="M90.7682 0.3125V26.5019H87.2954V6.01804L78.6133 20.2663H78.1713L69.4891 6.04922V26.5019H65.9531V0.3125H69.9311L78.3923 14.1555L86.7902 0.3125H90.7682Z" fill="#0C1327"/>
<path d="M97.7725 4.3649C97.1411 4.3649 96.6044 4.14665 96.1939 3.74134C95.7519 3.30485 95.5625 2.806 95.5625 2.21363C95.5625 1.62125 95.7835 1.09122 96.1939 0.654734C96.6044 0.218245 97.1411 0 97.7725 0C98.3723 0 98.9091 0.218245 99.3195 0.654734C99.7615 1.09122 99.9509 1.62125 99.9509 2.21363C99.9509 2.806 99.7299 3.33603 99.3195 3.74134C98.9091 4.17783 98.3723 4.3649 97.7725 4.3649ZM96.0992 26.5012V7.79446H99.3826V26.5012H96.0992Z" fill="#0C1327"/>
<path d="M124.895 7.29492C127.011 7.29492 128.747 7.98083 130.042 9.32148C131.368 10.6933 131.999 12.5328 131.999 14.84V26.5005H128.716V14.9647C128.716 13.5305 128.337 12.4081 127.579 11.5975C126.821 10.7868 125.811 10.4127 124.548 10.4127C123.127 10.4127 121.991 10.8804 121.17 11.8157C120.318 12.751 119.907 14.1852 119.907 16.0871V26.5005H116.624V14.9647C116.624 13.5305 116.276 12.4081 115.55 11.5975C114.824 10.7868 113.845 10.4127 112.614 10.4127C111.225 10.4127 110.057 10.8804 109.141 11.8469C108.226 12.7822 107.752 14.2164 107.752 16.1182V26.5005H104.469V7.79377H107.752V10.288C109.047 8.29261 110.909 7.29492 113.403 7.29492C115.961 7.29492 117.823 8.35497 118.96 10.4751C120.286 8.35497 122.243 7.29492 124.895 7.29492Z" fill="#0C1327"/>
</svg>
