<svg xmlns="http://www.w3.org/2000/svg" width="13.469" height="11.202" viewBox="0 0 13.469 11.202">
    <g data-name="Group 1951">
        <path d="M181.141 478.233a.5.5 0 011 0v7.368a.5.5 0 01-.5.5h-10.2a.5.5 0 01-.5-.5v-7.368a.5.5 0 011 0v6.868h9.2z" data-name="Path 1193" transform="translate(-169.807 -474.899)"/>
        <path d="M169.807 475.399a.5.5 0 01.5-.5h12.469a.5.5 0 01.5.5v2.834a.5.5 0 01-.5.5h-12.469a.5.5 0 01-.5-.5zm12.469 2.334v-1.834h-11.469v1.834z" data-name="Path 1194" transform="translate(-169.807 -474.899)"/>
        <path d="M175.408 481a.5.5 0 010-1h2.267a.5.5 0 110 1z" data-name="Path 1195" transform="translate(-169.807 -474.899)"/>
    </g>
</svg>
