<svg xmlns="http://www.w3.org/2000/svg" width="25.017" height="25.017" data-name="Group 1911" viewBox="0 0 25.017 25.017">
    <g data-name="Group 1887">
        <g data-name="Group 1885">
            <path d="M13.449 21.417a1.006 1.006 0 011.741 1.008 3.1 3.1 0 01-5.356 0 1.003 1.003 0 011.734-1.008 1.088 1.088 0 001.881 0z" data-name="Path 1115"/>
            <path d="M20.411 13.29a1.004 1.004 0 01-1.937.529 22.454 22.454 0 01-.693-5.51 1.004 1.004 0 012.008.032c-.011.682.088 1.9.141 2.532-.016-.113.265 1.626.481 2.417z" data-name="Path 1116"/>
            <path d="M5.546 6.211a1.004 1.004 0 011.919.592c-.086.279-.193.9-.166.715-.156 1.512.107 5.779-2.03 9.218h12.469a1.004 1.004 0 110 2.008H3.092a1 1 0 01-.557-1.839 4.477 4.477 0 001.295-1.7c1.561-2.952 1.327-6.478 1.45-7.726a8.676 8.676 0 01.266-1.268z" data-name="Path 1117"/>
            <path d="M19.788 8.327a1.004 1.004 0 01-2.008 0 5.275 5.275 0 00-8.2-4.393 1.004 1.004 0 11-1.115-1.67 7.284 7.284 0 0111.323 6.063z" data-name="Path 1118"/>
            <path d="M.294 1.714a1.004 1.004 0 011.42-1.42L24.723 23.3a1.004 1.004 0 01-1.42 1.42z" data-name="Path 1119"/>
        </g>
    </g>
</svg>
