<svg xmlns="http://www.w3.org/2000/svg" width="24.916" height="24.916" viewBox="0 0 24.916 24.916">
    <defs>
        <style>
            .prefix__cls-1{fill:#e2b609}
        </style>
    </defs>
    <g id="prefix__Group_1884" data-name="Group 1884" transform="translate(-139 -629.599)">
        <path id="prefix__Path_1115" d="M18.144 31a1 1 0 111.73 1 3.085 3.085 0 01-5.334 0 1 1 0 011.73-1 1.084 1.084 0 001.874 0z" class="prefix__cls-1" data-name="Path 1115" transform="translate(134.251 619.932)"/>
        <path id="prefix__Path_1116" d="M28.62 16.945a1 1 0 11-1.929.527A22.364 22.364 0 0126 11.984a1 1 0 012 .032c-.011.679.087 1.891.14 2.522-.015-.113.26 1.619.48 2.407z" class="prefix__cls-1" data-name="Path 1116" transform="translate(130.709 625.89)"/>
        <path id="prefix__Path_1117" d="M6.94 9.1a1 1 0 011.911.589c-.086.278-.192.892-.166.712-.156 1.506.106 5.756-2.022 9.181h12.42a1 1 0 010 2H4.5a1 1 0 01-.555-1.832 4.459 4.459 0 001.29-1.693c1.555-2.94 1.322-6.452 1.444-7.695A8.641 8.641 0 016.94 9.1z" class="prefix__cls-1" data-name="Path 1117" transform="translate(137.583 626.688)"/>
        <path id="prefix__Path_1118" d="M23.723 9.247a1 1 0 11-2 0 5.253 5.253 0 00-8.163-4.378 1 1 0 01-1.11-1.664 7.255 7.255 0 0111.273 6.042z" class="prefix__cls-1" data-name="Path 1118" transform="translate(134.984 628.645)"/>
        <path id="prefix__Path_1119" d="M.793 2.207A1 1 0 012.207.793l22.916 22.916a1 1 0 11-1.414 1.414z" class="prefix__cls-1" data-name="Path 1119" transform="translate(138.5 629.099)"/>
    </g>
</svg>
