<svg xmlns="http://www.w3.org/2000/svg" width="84" height="84" viewBox="0 0 84 84">
    <defs>
        <style>
            .prefix__cls-2{fill:#01a8ba}
        </style>
    </defs>
    <g id="prefix__Group_1865" data-name="Group 1865" transform="translate(-185 -558)">
        <g id="prefix__Rectangle_227" data-name="Rectangle 227" transform="translate(185 558)" style="stroke:#01a8ba;stroke-width:2px;fill:none">
            <rect width="84" height="84" rx="15" style="stroke:none"/>
            <rect width="82" height="82" x="1" y="1" rx="14" style="fill:none"/>
        </g>
        <g id="prefix__noun_Restaurant_1533716" transform="translate(193.15 573.962)">
            <g id="prefix__Group" transform="translate(18.6 3.8)">
                <path id="prefix__Compound_Path" d="M71.359 47.7V4.771a.971.971 0 00-.971-.971 6.994 6.994 0 00-6.945 6.508l-1.554 23.118a.826.826 0 00.243.729 1.02 1.02 0 00.729.34h6.557V47.7a.971.971 0 001.943 0zm-1.943-15.148H63.88l1.506-22.1a5.051 5.051 0 014.03-4.612z" class="prefix__cls-2" data-name="Compound Path" transform="translate(-40.859 -3.8)"/>
                <path id="prefix__Path" d="M19.571 4a.971.971 0 00-.971.971v8.159a6.508 6.508 0 005.537 6.411V47.71a.971.971 0 001.943 0V19.541a6.508 6.508 0 005.488-6.411V4.971a.971.971 0 10-1.943 0v8.159a4.468 4.468 0 01-3.545 4.42V4.971a.971.971 0 10-1.943 0V17.55a4.517 4.517 0 01-3.594-4.42V4.971A.971.971 0 0019.571 4z" class="prefix__cls-2" transform="translate(-18.6 -3.903)"/>
            </g>
        </g>
    </g>
</svg>
