<svg xmlns="http://www.w3.org/2000/svg" width="18.436" height="23.142" viewBox="0 0 18.436 23.142">
    <path id="prefix__Icon_feather-bookmark" d="M8.852 3.651C9.55 3.433 9 3.5 21.588 3.5a3.348 3.348 0 013.348 3.348v18.784a1 1 0 01-1.581.814l-7.637-5.455-7.637 5.454a1 1 0 01-1.581-.813V6.848a3.349 3.349 0 012.352-3.197zm.595 1.91a1.353 1.353 0 00-.886.886c-.089.286-.061-.76-.061 17.242l6.637-4.74a1 1 0 011.162 0l6.637 4.74V6.848A1.348 1.348 0 0021.588 5.5c-12.732 0-11.861-.027-12.142.061z" data-name="Icon feather-bookmark" transform="translate(-6.5 -3.49)" style="fill:#9d9d9c"/>
</svg>
