<svg xmlns="http://www.w3.org/2000/svg" width="15.506" height="15.506" viewBox="0 0 15.506 15.506">
    <path d="M1.484.1C1.915-.034 1.11.005 13.389.005A2.111 2.111 0 0115.5 2.116c0 8.708.04 8.244-.093 8.676a2.115 2.115 0 01-1.4 1.4c-.47.144-.071.093-10.08.093L.854 15.359A.5.5 0 010 15.005V2.116A2.112 2.112 0 011.484.1zm.3.955a1.115 1.115 0 00-.731.731C.977 2.021 1 1.105 1 13.798c2.529-2.529 2.434-2.515 2.722-2.515 10.525 0 9.765.022 9.994-.049a1.115 1.115 0 00.735-.735c.072-.234.049.367.049-8.383a1.111 1.111 0 00-1.111-1.111c-12.067 0-11.373-.023-11.608.05z" data-name="Icon feather-message-square"/>
</svg>
