<svg xmlns="http://www.w3.org/2000/svg" width="21.466" height="20.309" viewBox="0 0 21.466 20.309">
    <g data-name="Group 1917">
        <g data-name="Group 1890">
            <g data-name="Group 1791">
                <g data-name="Group 1768">
                    <g data-name="Group 1770">
                        <path d="M19.574 12.842a.946.946 0 111.892 0v4.35a3.121 3.121 0 01-3.121 3.121H3.121A3.121 3.121 0 010 17.188v-4.346a.946.946 0 111.892 0v4.35a1.229 1.229 0 001.229 1.229h15.224a1.228 1.228 0 001.229-1.229z" data-name="Path 1120"/>
                        <path d="M4.627 8.069a.946.946 0 111.338-1.338l4.768 4.773L15.5 6.731a.946.946 0 011.338 1.338L11.4 13.504a.946.946 0 01-1.338 0z" data-name="Path 1121"/>
                        <path d="M11.679 12.837a.946.946 0 11-1.892 0V.946a.946.946 0 111.892 0z" data-name="Path 1122"/>
                    </g>
                </g>
            </g>
        </g>
    </g>
</svg>
