<svg xmlns="http://www.w3.org/2000/svg" width="12.874" height="13.857" viewBox="0 0 12.874 13.857">
    <g data-name="Group 1938">
        <g data-name="Group 1772">
            <path d="M2.305.526a.263.263 0 00.206-.114.208.208 0 000-.229.24.24 0 00-.206-.114H.295a.214.214 0 00-.206.114.207.207 0 000 .229.24.24 0 00.206.114z" data-name="Path 1143" transform="translate(7.251 13.262)"/>
            <path d="M2.307.595H.294A.316.316 0 01.042.458a.278.278 0 010-.3.281.281 0 01.252-.16h2.012a.287.287 0 01.252.137.292.292 0 010 .274.248.248 0 01-.251.186zM.295.115a.192.192 0 00-.16.091.25.25 0 000 .183.192.192 0 00.16.091h2.012a.192.192 0 00.16-.091.252.252 0 000-.183.192.192 0 00-.16-.091z" data-name="Path 1144" transform="translate(7.251 13.262)"/>
        </g>
        <g data-name="Group 1773">
            <path d="M.526.32a.229.229 0 10-.457 0v1.349a.229.229 0 10.457 0z" data-name="Path 1145" transform="translate(12.279 2.561)"/>
            <path d="M.3 1.944a.287.287 0 01-.3-.3V.3a.3.3 0 11.595 0v1.349a.287.287 0 01-.295.295zM.3.138a.169.169 0 00-.183.183V1.67a.168.168 0 00.183.183.169.169 0 00.183-.183V.32A.168.168 0 00.3.137z" data-name="Path 1146" transform="translate(12.279 2.561)"/>
        </g>
        <g data-name="Group 1774">
            <path d="M.082.389a.3.3 0 00.206.137H2.3a.24.24 0 00.206-.114.208.208 0 000-.229A.263.263 0 002.3.046H.288A.24.24 0 00.082.16a.39.39 0 000 .229z" data-name="Path 1147" transform="translate(7.258)"/>
            <path d="M2.3.595H.288a.317.317 0 01-.274-.16.339.339 0 01.046-.3A.252.252 0 01.288 0H2.3a.317.317 0 01.274.16.243.243 0 01-.023.274.281.281 0 01-.251.161zM.288.114a.173.173 0 00-.16.091c-.023.046-.046.114 0 .16a.192.192 0 00.16.091H2.3a.173.173 0 00.16-.09c.023-.046.046-.114 0-.16A.153.153 0 002.3.115H.288z" data-name="Path 1148" transform="translate(7.258)"/>
        </g>
        <g data-name="Group 1775">
            <path d="M.123.16a.208.208 0 000 .229.263.263 0 00.206.134.79.79 0 01.457.16.749.749 0 01.274.434.21.21 0 00.274.16.237.237 0 00.183-.3 1.211 1.211 0 00-.41-.654 1.313 1.313 0 00-.8-.3C.239.069.146.092.123.16z" data-name="Path 1149" transform="translate(11.264)"/>
            <path d="M1.289 1.349a.29.29 0 01-.137-.023.317.317 0 01-.16-.183.661.661 0 00-.253-.411.78.78 0 00-.434-.16.317.317 0 01-.274-.16.243.243 0 01.023-.274A.316.316 0 01.306 0a1.249 1.249 0 01.823.3 1.469 1.469 0 01.434.686c.023.137 0 .206-.046.252a.361.361 0 01-.183.114zM.169.206C.146.252.123.32.169.366a.192.192 0 00.16.091.8.8 0 01.5.183.822.822 0 01.3.48.152.152 0 00.091.114.29.29 0 00.137.023.126.126 0 00.114-.069.188.188 0 00.023-.16 1.191 1.191 0 00-.389-.617A1.056 1.056 0 00.35.137C.259.114.19.137.167.206z" data-name="Path 1150" transform="translate(11.264)"/>
        </g>
        <g data-name="Group 1776">
            <path d="M4.046.298a.215.215 0 00-.229-.229H.275a.213.213 0 00-.229.229.208.208 0 00.069.16.225.225 0 00.183.069h3.548c.133.022.2-.092.2-.229z" data-name="Path 1151" transform="translate(2.767 8.826)"/>
            <path d="M3.819.595H.274A.223.223 0 01.068.504.279.279 0 010 .3.287.287 0 01.3 0h3.544a.287.287 0 01.3.3.324.324 0 01-.325.295zM.275.138a.175.175 0 00-.183.183.325.325 0 00.046.137.193.193 0 00.137.046h3.544a.183.183 0 000-.366z" data-name="Path 1152" transform="translate(2.767 8.826)"/>
        </g>
        <g data-name="Group 1777">
            <path d="M1.096 1.035a1.137 1.137 0 00.412-.663.2.2 0 00-.18-.275h-.05a.22.22 0 00-.229.16.758.758 0 01-.732.595.214.214 0 00-.206.114.207.207 0 000 .229.24.24 0 00.206.114 1.154 1.154 0 00.777-.274z" data-name="Path 1153" transform="translate(11.276 12.48)"/>
            <path d="M.294 1.378a.263.263 0 01-.252-.137.278.278 0 010-.3.31.31 0 01.252-.16.78.78 0 00.434-.16A.607.607 0 00.98.209a.29.29 0 01.343-.206.283.283 0 01.229.343 1.156 1.156 0 01-.434.686 1.136 1.136 0 01-.823.343zM1.277.12a.161.161 0 00-.16.114.822.822 0 01-.3.48.85.85 0 01-.5.183.192.192 0 00-.16.091.25.25 0 000 .183.192.192 0 00.16.091 1.216 1.216 0 00.755-.274 1.166 1.166 0 00.389-.64.16.16 0 00-.137-.206.08.08 0 01-.046-.018z" data-name="Path 1154" transform="translate(11.276 12.48)"/>
        </g>
        <g data-name="Group 1778">
            <path d="M.526.298a.229.229 0 10-.457 0v1.349a.229.229 0 10.457 0z" data-name="Path 1155" transform="translate(12.279 5.922)"/>
            <path d="M.3 1.944a.287.287 0 01-.3-.3V.3a.3.3 0 01.595 0v1.349a.287.287 0 01-.295.295zM.3.138a.169.169 0 00-.183.183V1.67a.168.168 0 00.183.183.169.169 0 00.183-.183V.32A.168.168 0 00.3.137z" data-name="Path 1156" transform="translate(12.279 5.922)"/>
        </g>
        <g data-name="Group 1779">
            <path d="M.526.32A.225.225 0 00.297.091.215.215 0 00.068.32v1.349a.225.225 0 00.229.229.215.215 0 00.229-.229z" data-name="Path 1157" transform="translate(12.279 9.329)"/>
            <path d="M.3 1.944a.287.287 0 01-.3-.3V.3a.3.3 0 11.595 0v1.349a.274.274 0 01-.295.295zM.3.16a.168.168 0 00-.183.183v1.349a.187.187 0 00.183.183.168.168 0 00.183-.183V.343A.169.169 0 00.3.16z" data-name="Path 1158" transform="translate(12.279 9.329)"/>
        </g>
        <g data-name="Group 1780">
            <path d="M.286.069A.263.263 0 00.08.183a.208.208 0 000 .229.24.24 0 00.206.114h2.01a.263.263 0 00.206-.114.207.207 0 000-.229.24.24 0 00-.206-.114H.286z" data-name="Path 1159" transform="translate(3.007)"/>
            <path d="M2.298.595H.286A.287.287 0 01.034.458a.292.292 0 010-.274A.291.291 0 01.286 0h2.012a.287.287 0 01.252.137.278.278 0 010 .3.3.3 0 01-.252.158zM.286.114a.192.192 0 00-.16.091.252.252 0 000 .183.192.192 0 00.16.091h2.012a.192.192 0 00.16-.091.25.25 0 000-.183.192.192 0 00-.16-.091H.286z" data-name="Path 1160" transform="translate(3.007)"/>
        </g>
        <g data-name="Group 1781">
            <path d="M.298.526h7.111a.229.229 0 000-.457H.298a.213.213 0 00-.229.229.208.208 0 00.069.16c.022.045.068.068.16.068z" data-name="Path 1161" transform="translate(2.744 3.75)"/>
            <path d="M7.386.595H.3A.223.223 0 01.094.504.248.248 0 010 .3.287.287 0 01.3 0h7.111a.287.287 0 01.3.3.324.324 0 01-.325.295zM.297.115a.187.187 0 00-.183.183.325.325 0 00.046.137.193.193 0 00.137.046h7.111a.175.175 0 00.183-.183.162.162 0 00-.183-.183z" data-name="Path 1162" transform="translate(2.744 3.75)"/>
        </g>
        <g data-name="Group 1782">
            <path d="M.069 1.624a.224.224 0 00.229.229.215.215 0 00.229-.229V.275A.225.225 0 00.298.046a.215.215 0 00-.229.229v1.349z" data-name="Path 1163" transform="translate(0 5.945)"/>
            <path d="M.3 1.921a.287.287 0 01-.3-.3V.274A.282.282 0 01.3 0a.287.287 0 01.3.3v1.349a.282.282 0 01-.3.272zM.3.115a.168.168 0 00-.183.183v1.349A.187.187 0 00.3 1.83a.168.168 0 00.183-.183V.3A.169.169 0 00.3.114z" data-name="Path 1164" transform="translate(0 5.945)"/>
        </g>
        <g data-name="Group 1783">
            <path d="M.069 1.669a.225.225 0 00.229.229.215.215 0 00.229-.229V.32A.225.225 0 00.298.091.215.215 0 00.069.32v1.349z" data-name="Path 1165" transform="translate(0 2.561)"/>
            <path d="M.3 1.944a.287.287 0 01-.3-.3V.3A.287.287 0 01.3 0a.287.287 0 01.3.3v1.349a.287.287 0 01-.3.295zM.3.138a.168.168 0 00-.183.183V1.67a.187.187 0 00.183.183.168.168 0 00.183-.183V.32A.187.187 0 00.3.137z" data-name="Path 1166" transform="translate(0 2.561)"/>
        </g>
        <g data-name="Group 1784">
            <path d="M.069 1.624a.215.215 0 00.229.229.213.213 0 00.229-.229V.275A.215.215 0 00.298.046a.213.213 0 00-.229.229v1.349z" data-name="Path 1167" transform="translate(0 9.375)"/>
            <path d="M.3 1.9a.268.268 0 01-.3-.274V.274A.282.282 0 01.3 0a.287.287 0 01.3.3v1.349a.264.264 0 01-.3.251zM.3.116a.169.169 0 00-.183.183v1.349a.168.168 0 00.183.183.169.169 0 00.183-.183V.3A.168.168 0 00.3.114z" data-name="Path 1168" transform="translate(0 9.375)"/>
        </g>
        <g data-name="Group 1785">
            <path d="M7.386.069H.298a.229.229 0 100 .457h7.111a.213.213 0 00.229-.229.25.25 0 00-.252-.228z" data-name="Path 1169" transform="translate(2.744 6.242)"/>
            <path d="M7.386.595H.3A.3.3 0 01.3 0h7.111a.287.287 0 01.3.3.308.308 0 01-.325.295zM.297.115a.175.175 0 00-.183.183.162.162 0 00.183.183h7.111a.175.175 0 00.183-.183.162.162 0 00-.183-.183z" data-name="Path 1170" transform="translate(2.744 6.242)"/>
        </g>
        <g data-name="Group 1786">
            <path d="M2.547.183a.232.232 0 00-.208-.137H.329A.24.24 0 00.123.16a.208.208 0 000 .229.263.263 0 00.206.137h2.01a.24.24 0 00.206-.114.388.388 0 00.002-.229z" data-name="Path 1171" transform="translate(2.986 13.285)"/>
            <path d="M2.318.572H.306a.317.317 0 01-.274-.16.243.243 0 01.023-.274.263.263 0 01.252-.137h2.012a.317.317 0 01.274.16.243.243 0 01-.023.274.263.263 0 01-.252.137zM.306.092a.173.173 0 00-.16.091C.123.229.1.297.146.343a.153.153 0 00.16.091h2.012a.173.173 0 00.16-.091c.023-.046.046-.114 0-.16a.192.192 0 00-.16-.091z" data-name="Path 1172" transform="translate(2.986 13.285)"/>
        </g>
        <g data-name="Group 1787">
            <path d="M.468.343a1.211 1.211 0 00-.412.663.237.237 0 00.183.3.21.21 0 00.274-.16.749.749 0 01.732-.62.365.365 0 00.229-.114.207.207 0 000-.229.253.253 0 00-.229-.114 1.154 1.154 0 00-.777.274z" data-name="Path 1173" transform="translate(.035)"/>
            <path d="M.285 1.349H.216a.258.258 0 01-.206-.343A1.249 1.249 0 01.422.3l.046.043L.422.3a1.3 1.3 0 01.823-.3.263.263 0 01.252.137.277.277 0 01.023.3.375.375 0 01-.275.158.685.685 0 00-.411.137.823.823 0 00-.274.412.253.253 0 01-.275.205zm.96-1.235a1.1 1.1 0 00-.731.275 1.353 1.353 0 00-.412.64.16.16 0 00.137.206s.183.046.206-.115a.822.822 0 01.3-.48.85.85 0 01.5-.183.192.192 0 00.16-.091.25.25 0 000-.183.178.178 0 00-.16-.069z" data-name="Path 1174" transform="translate(.035)"/>
        </g>
        <g data-name="Group 1788">
            <path d="M1.472.966a.232.232 0 00-.206-.137.79.79 0 01-.457-.16.749.749 0 01-.274-.434C.512.097.397.074.306.074H.26a.237.237 0 00-.183.3 1.211 1.211 0 00.412.66 1.313 1.313 0 00.8.3.273.273 0 00.206-.114.782.782 0 00-.023-.254z" data-name="Path 1175" transform="translate(.037 12.502)"/>
            <path d="M1.266 1.355a1.249 1.249 0 01-.823-.3A1.468 1.468 0 01.009.369a.282.282 0 01.23-.363.29.29 0 01.343.206.661.661 0 00.252.412.685.685 0 00.412.137.317.317 0 01.274.16.277.277 0 01-.023.3.252.252 0 01-.231.134zM.283.097H.239c-.046 0-.16.046-.137.229a1.191 1.191 0 00.389.617 1.056 1.056 0 00.755.274.142.142 0 00.137-.091c.023-.046.046-.114 0-.16a.193.193 0 00-.16-.091.8.8 0 01-.5-.183.822.822 0 01-.3-.48C.42.124.329.097.283.097z" data-name="Path 1176" transform="translate(.037 12.502)"/>
        </g>
    </g>
</svg>
