<svg xmlns="http://www.w3.org/2000/svg" width="84" height="84" viewBox="0 0 84 84">
    <defs>
        <style>
            .prefix__cls-2{fill:#01a8ba}
        </style>
    </defs>
    <g id="prefix__Group_1959" data-name="Group 1959" transform="translate(-185 -396)">
        <g id="prefix__Group_1864" data-name="Group 1864">
            <g id="prefix__Rectangle_228" data-name="Rectangle 228" transform="translate(185 396)" style="stroke:#01a8ba;stroke-width:2px;fill:none">
                <rect width="84" height="84" rx="15" style="stroke:none"/>
                <rect width="82" height="82" x="1" y="1" rx="14" style="fill:none"/>
            </g>
        </g>
        <g id="prefix__Group_1934" data-name="Group 1934">
            <g id="prefix__noun_education_2039743" transform="translate(195.968 407.635)">
                <g id="prefix__Group_1744" data-name="Group 1744" transform="translate(8.5 44.151)">
                    <path id="prefix__Path_555" d="M14.248 83.5H53.9a.551.551 0 00.583-.583.56.56 0 00-.35-.525l.233-.525-.233.525c-1.983-.991-3.149-2.507-3.149-4.14s1.166-3.149 3.149-4.14a.6.6 0 00.292-.35.457.457 0 00-.058-.466A.462.462 0 0053.9 73H14.248a5.248 5.248 0 000 10.5zm0-9.33H51.8l-.816.991a4.711 4.711 0 000 6.239l.816.991H14.248a4.057 4.057 0 01-4.082-4.082 4.106 4.106 0 014.082-4.143z" class="prefix__cls-2" data-name="Path 555" transform="translate(-8.708 -72.708)"/>
                    <path id="prefix__Path_556" d="M53.69 83.579H14.039a5.539 5.539 0 010-11.079H53.69a.657.657 0 01.7.466.76.76 0 01.058.7.828.828 0 01-.466.525c-1.924.933-2.974 2.391-2.974 3.907 0 1.458.991 2.8 2.741 3.732l.117-.233.525.233-.117.233a.812.812 0 01.292.641.826.826 0 01-.876.875zm-39.651-10.5a4.956 4.956 0 000 9.913H53.69a.275.275 0 00.292-.292c0-.117 0-.175-.175-.292l-.233-.117c-1.924-1.05-3.09-2.624-3.09-4.257 0-1.749 1.225-3.324 3.324-4.373a.216.216 0 00.117-.175c.058-.117.058-.117 0-.233l-.058-.058c0-.058-.117-.117-.175-.117zm38.193 9.388H14.039A4.331 4.331 0 019.666 78.1a4.418 4.418 0 014.373-4.432h38.193l-1.224 1.458a4.512 4.512 0 000 5.889zm-38.193-8.218a3.833 3.833 0 00-3.79 3.848 3.783 3.783 0 003.79 3.79h36.91l-.408-.525a4.913 4.913 0 010-6.589l.408-.525z" class="prefix__cls-2" data-name="Path 556" transform="translate(-8.5 -72.5)"/>
                </g>
                <g id="prefix__Group_1745" data-name="Group 1745" transform="translate(15.459 4.5)">
                    <path id="prefix__Path_557" d="M46.925 35.379c4.432-6.181 4.082-14.869.816-18.542-1.4-1.574-4.606-3.732-10.846-.875l-.758.292-.058-.875c-.058-.525-.117-1.108-.175-1.633l-.117-.583.641-.058c4.432-.292 6.706-2.857 6.706-7.522A.6.6 0 0042.552 5c-3.732 0-6.123 1.4-7.114 4.257l-.408 1.166-.641-1.05a3.949 3.949 0 00-3.5-2.041.584.584 0 00-.583.583.551.551 0 00.583.583c1.283 0 3.557.875 4.023 6.764l.058.991-.875-.408a13.346 13.346 0 00-5.364-1.283 6.875 6.875 0 00-5.306 2.274c-3.265 3.674-3.615 12.42.816 18.542 2.857 3.965 6.822 5.248 11.137 3.615l.233-.058.233.058a9.212 9.212 0 003.557.7 9.5 9.5 0 007.524-4.314zM36.2 11.3a5.193 5.193 0 015.073-5.073l.7-.058-.058.7a5.193 5.193 0 01-5.073 5.073l-.7.058zm-.408 26.414a.639.639 0 00-.466 0c-3.907 1.691-7.522.583-10.146-3.032-3.615-5.073-4.082-13.528-.875-17.085 2.274-2.566 6.123-2.507 10.962.175a.53.53 0 00.583 0c4.9-2.682 8.688-2.8 10.962-.175 3.207 3.557 2.741 12.07-.875 17.085a8.1 8.1 0 01-6.647 3.79 8.822 8.822 0 01-3.502-.76z" class="prefix__cls-2" data-name="Path 557" transform="translate(-20.647 -4.708)"/>
                    <path id="prefix__Path_558" d="M31.61 39.777c-2.974 0-5.656-1.516-7.813-4.432-4.548-6.239-4.14-15.161-.816-18.892a7.243 7.243 0 015.539-2.391A14.338 14.338 0 0134 15.346l.408.175L34.35 15c-.466-5.656-2.507-6.472-3.732-6.472a.826.826 0 01-.875-.875.9.9 0 01.875-.875A4.115 4.115 0 0134.35 8.99l.292.525.233-.583c1.05-2.974 3.5-4.432 7.405-4.432a.971.971 0 01.641.233.8.8 0 01.233.641c0 4.84-2.391 7.522-7 7.813h-.292l.058.292.233 2.157.408-.175c6.356-2.915 9.738-.641 11.2.933 3.324 3.732 3.674 12.653-.816 18.892-2.1 2.857-4.723 4.373-7.755 4.432a9.584 9.584 0 01-3.674-.7H35.4l-.175.058a10.189 10.189 0 01-3.615.701zm3.79-1.341l.292.058a8.925 8.925 0 003.5.7c2.8-.058 5.306-1.516 7.289-4.2 4.315-6.064 4.023-14.577.816-18.193-1.341-1.516-4.432-3.557-10.5-.816l-1.166.466-.058-1.283-.173-1.63-.175-.875.991-.117c4.257-.292 6.414-2.741 6.414-7.23 0-.058 0-.117-.117-.175s-.058-.058-.175-.058c-3.674 0-5.889 1.341-6.822 4.082l-.583 1.749-.991-1.574a3.706 3.706 0 00-3.265-1.924.312.312 0 00-.292.292.275.275 0 00.292.292c1.4 0 3.848.933 4.315 7.055l.058 1.458-1.341-.641a13.284 13.284 0 00-5.248-1.283 6.558 6.558 0 00-5.073 2.157c-3.207 3.615-3.557 12.128.816 18.193 2.8 3.848 6.589 5.073 10.787 3.5zm-3.79.117c-2.624 0-4.956-1.341-6.881-3.965-3.674-5.19-4.14-13.819-.875-17.435 2.332-2.682 6.356-2.624 11.312.117a.265.265 0 00.292 0c5.073-2.8 8.98-2.8 11.37-.117 3.265 3.615 2.857 12.3-.875 17.435-1.866 2.566-4.2 3.907-6.881 3.907a10.3 10.3 0 01-3.615-.758h-.233a8.513 8.513 0 01-3.614.816zm-3.09-22.741a5.457 5.457 0 00-4.2 1.749C21.231 21 21.639 29.282 25.2 34.3c2.566 3.5 6.006 4.548 9.8 2.915a.952.952 0 01.7 0 8.878 8.878 0 003.382.758c2.507 0 4.665-1.225 6.414-3.674 3.5-4.9 3.965-13.295.875-16.735-2.682-3.149-7.289-1.574-10.612.233a.794.794 0 01-.875 0 13.409 13.409 0 00-6.365-1.985zm7.114-3.732l.117-1.05c.35-3.207 2.1-4.956 5.306-5.306l1.05-.117-.058 1.05c-.35 3.207-2.1 4.956-5.306 5.364zm.641-.991l-.058.35.35-.058c2.915-.35 4.49-1.924 4.781-4.84v-.35L41 6.249a5.051 5.051 0 00-4.726 4.84z" class="prefix__cls-2" data-name="Path 558" transform="translate(-20.434 -4.5)"/>
                </g>
            </g>
        </g>
    </g>
</svg>
