<svg xmlns="http://www.w3.org/2000/svg" width="22.784" height="18.433" data-name="Group 1924" viewBox="0 0 22.784 18.433">
    <g data-name="logout icon">
        <path d="M18.07 14.233l4.476-4.472a.757.757 0 00.242-.544.64.64 0 00-.212-.514l-.03-.03-4.472-4.472a.766.766 0 00-1.088 0 .733.733 0 000 1.088l3.2 3.173H7.101a.756.756 0 000 1.511h13.115l-3.173 3.2a.766.766 0 000 1.088.721.721 0 001.027-.028z" data-name="Path 1196"/>
        <path d="M11.634 16.922H4.019a2.5 2.5 0 01-2.508-2.508V4.019a2.541 2.541 0 012.508-2.508h7.615a.748.748 0 00.755-.755.748.748 0 00-.755-.756H4.019A4.077 4.077 0 000 4.019v10.365a4.043 4.043 0 004.019 4.049h7.615a.755.755 0 100-1.511z" data-name="Path 1197"/>
    </g>
</svg>
