<svg xmlns="http://www.w3.org/2000/svg" width="27.402" height="24.015" viewBox="0 0 27.402 24.015">
    <defs>
        <style>
            .prefix__cls-1{fill:#dd4e1d}
        </style>
    </defs>
    <g id="prefix__Group_1970" data-name="Group 1970" transform="translate(-762.299 -277.994)">
        <path id="prefix__Icon_feather-folder" d="M4.487 4.659c.684-.213.381-.159 7.4-.159a1 1 0 01.759.349l2.239 2.612c11.852 0 11.3-.062 12.015.159a3.544 3.544 0 012.328 2.328c.223.717.159-.143.159 15.013a3.539 3.539 0 01-3.541 3.539c-22.184 0-20.636.066-21.361-.16a3.544 3.544 0 01-2.325-2.325c-.227-.727-.16.442-.16-17.977a3.54 3.54 0 012.487-3.379zm.594 1.91a1.544 1.544 0 00-1.012 1.012C3.967 7.909 4 6.566 4 24.962A1.538 1.538 0 005.538 26.5h20.308a1.538 1.538 0 001.538-1.538V11a1.538 1.538 0 00-1.538-1.538H14.423a1 1 0 01-.759-.349L11.425 6.5c-6.58 0-6.037-.027-6.344.069z" class="prefix__cls-1" data-name="Icon feather-folder" transform="translate(760.309 273.5)"/>
        <path id="prefix__Path_1227" d="M13.541 16.769a7.829 7.829 0 00.864.576 10.21 10.21 0 011.2-.072q1.513 0 1.821.5a.5.5 0 01.021.535.03.03 0 01-.01.021l-.021.021v.01q-.062.391-.731.391a4.244 4.244 0 01-1.183-.206A7.5 7.5 0 0114.169 18a18.527 18.527 0 00-4.033.854q-1.574 2.7-2.49 2.7a.6.6 0 01-.288-.072l-.247-.123q-.01-.01-.062-.051a.425.425 0 01-.062-.37 2.234 2.234 0 01.576-.941A4.973 4.973 0 018.921 19a.15.15 0 01.237.062.059.059 0 01.021.041q.535-.875 1.1-2.027a15.7 15.7 0 001.07-2.7 8.317 8.317 0 01-.314-1.641 4 4 0 01.067-1.312q.113-.412.432-.412h.226a.434.434 0 01.36.154.822.822 0 01.093.7.223.223 0 01-.041.082.268.268 0 01.01.082v.309a13.474 13.474 0 01-.144 1.976 5.206 5.206 0 001.5 2.449zM7.615 21a4.543 4.543 0 001.41-1.626 5.865 5.865 0 00-.9.864 3.42 3.42 0 00-.51.762zm4.1-9.466a3.059 3.059 0 00-.021 1.358q.01-.072.072-.453 0-.031.072-.442a.231.231 0 01.041-.082.03.03 0 01-.01-.021.021.021 0 00-.005-.015.021.021 0 01-.005-.015.592.592 0 00-.134-.37.03.03 0 01-.01.021v.021zm-1.276 6.8a15.092 15.092 0 012.922-.833 1.552 1.552 0 01-.134-.1 1.843 1.843 0 01-.165-.139 5.45 5.45 0 01-1.307-1.811 13.749 13.749 0 01-.854 2.027q-.309.576-.463.854zm6.647-.165a2.462 2.462 0 00-1.44-.247 3.892 3.892 0 001.276.288 1 1 0 00.185-.01q0-.01-.021-.031z" class="prefix__cls-1" data-name="Path 1227" transform="translate(763.922 274.918)"/>
    </g>
</svg>
