<svg xmlns="http://www.w3.org/2000/svg" width="21.729" height="20.314" viewBox="0 0 21.729 20.314">
    <path id="prefix__Icon_ionic-md-heart-empty" d="M24.574 10.852c-.339 3.886-3.886 7.1-8.767 11.585L13.738 24.3C7.747 18.9 3.275 15.132 2.9 10.852a6.283 6.283 0 0110.836-4.9 6.282 6.282 0 0110.838 4.9zM3.9 10.765c.335 3.842 4.713 7.505 8.674 11.143l1.166 1.05c4.46-4.034 9.86-8.409 9.86-12.724 0-5.138-6.276-7.032-9.48-3.225l-.382.454-.382-.454A5.3 5.3 0 003.9 10.765z" data-name="Icon ionic-md-heart-empty" transform="translate(-2.874 -3.99)" style="fill:#c6c6c6"/>
</svg>
