<svg xmlns="http://www.w3.org/2000/svg" width="14.692" height="11.956" viewBox="0 0 14.692 11.956">
    <defs>
        <style>
            .prefix__cls-1{fill:#dd4e1d}
        </style>
    </defs>
    <g id="prefix__Group_1949" data-name="Group 1949" transform="translate(-168.754 -373.023)">
        <path id="prefix__Path_1189" d="M16.685 17.5a.5.5 0 010 1h-3.838l-1.22 1.83a.5.5 0 01-.416.223H8.474c-.355 0-.344-.114-1.636-2.053H3a.5.5 0 010-1h4.106c.355 0 .344.114 1.636 2.053h2.2l1.22-1.83a.5.5 0 01.416-.223z" class="prefix__cls-1" data-name="Path 1189" transform="translate(166.257 361)"/>
        <path id="prefix__Path_1190" d="M6.2 5.541c.28-.059-.148-.041 6.9-.041a1.869 1.869 0 011.672 1.036c2.575 5.143 2.414 4.77 2.414 4.938 0 4.42.031 4.291-.084 4.661a1.872 1.872 0 01-1.229 1.229c-.383.119.479.084-11.5.084A1.869 1.869 0 012.5 15.58c0-4.456-.023-4.178.053-4.329l2.568-5.042A1.869 1.869 0 016.2 5.541zm.208.978a.869.869 0 00-.5.31c-.079.1.129-.3-2.405 4.763 0 4.33-.017 4.067.039 4.246a.872.872 0 00.571.571c.184.057-.5.039 11.207.039a.868.868 0 00.869-.869v-3.987l-2.312-4.609c-.712-.442-7.177-.526-7.471-.464z" class="prefix__cls-1" data-name="Path 1190" transform="translate(166.257 367.526)"/>
    </g>
</svg>
