<svg xmlns="http://www.w3.org/2000/svg" width="24.647" height="24.648" data-name="Group 1931" viewBox="0 0 24.647 24.648">
    <path d="M11.11 2.432a.771.771 0 010 1.542c-8.73 0-8.175-.029-8.489.068a1.53 1.53 0 00-1 1c-.1.32-.068-.877-.068 16.525a1.525 1.525 0 001.525 1.525c17.563 0 16.208.03 16.525-.068a1.53 1.53 0 001-1c.1-.318.068.312.068-8.489a.771.771 0 011.542 0c0 8.63.054 8.329-.138 8.947a3.072 3.072 0 01-2.017 2.017c-.624.194.385.138-16.983.138a3.067 3.067 0 01-3.071-3.063c0-17.515-.058-16.351.138-16.982a3.072 3.072 0 012.021-2.018c.634-.197.316-.142 8.947-.142z" data-name="Path 1231"/>
    <path d="M19.175.939a3.206 3.206 0 014.534 4.534c-11.832 11.832-10.953 11.03-11.263 11.109L7.854 17.73a.771.771 0 01-.732-.2c-.414-.414-.3-.347.945-5.324.076-.306-.78.621 11.108-11.267zM9.511 12.782l-.785 3.138 3.138-.785L22.619 4.382a1.665 1.665 0 00-2.354-2.354z" data-name="Path 1232"/>
</svg>
