<svg xmlns="http://www.w3.org/2000/svg" width="84" height="84" viewBox="0 0 84 84">
    <g id="prefix__Group_1935" data-name="Group 1935" transform="translate(-185 -720)">
        <g id="prefix__Group_1866" data-name="Group 1866">
            <g id="prefix__Rectangle_229" data-name="Rectangle 229" transform="translate(185 720)" style="stroke:#01a8ba;stroke-width:2px;fill:none">
                <rect width="84" height="84" rx="15" style="stroke:none"/>
                <rect width="82" height="82" x="1" y="1" rx="14" style="fill:none"/>
            </g>
            <path id="prefix__noun_education_152968" d="M52.157 32.1V18.753h.084l14.023-5.374a.734.734 0 00.5-.756.639.639 0 00-.5-.672L33.768.7h-.252a.308.308 0 00-.252.084L1.1 11.868a.7.7 0 00-.5.672.807.807 0 00.5.756L14.539 18.5v13.437q0 .5 1.008 1.008a23.854 23.854 0 004.282 1.344l.42.084v7.389a.807.807 0 00.5.756.976.976 0 00.84-.168l3.023-3.359 3.023 3.359a.651.651 0 00.84.168.734.734 0 00.5-.756v-5.879l.588.084c1.427.084 2.687.168 3.779.168a54.415 54.415 0 0012.931-1.6c5.884-1.507 5.884-1.927 5.884-2.435zm-31.908.672l-.672-.168c-1.6-.42-2.687-.84-3.191-1.008l-.336-.168V19.089l4.2 1.6zm4.87 4.45a.654.654 0 00-.588-.252.762.762 0 00-.588.252l-2.267 2.519V21.272l5.624 2.184v16.29zm-21.5-24.6L33.516 2.211l30.229 10.413-30.229 11.587zM50.562 31.6l-.336.084a55.787 55.787 0 01-16.962 2.856c-1.176 0-2.435-.084-3.863-.168h-.5V24.127l4.366 1.679a.71.71 0 00.588 0l16.794-6.382V31.6z" transform="translate(193.716 741.3)" style="fill:#01a8ba"/>
        </g>
    </g>
</svg>
