<svg xmlns="http://www.w3.org/2000/svg" width="14.8" height="14.8" viewBox="0 0 14.8 14.8">
    <path id="prefix__noun_mention_2059205" d="M14.8 7.4a7.784 7.784 0 00-1.67-4.648A7.558 7.558 0 009.7.406 6.683 6.683 0 007.4 0a7.038 7.038 0 00-3.159.722 6.953 6.953 0 00-2.526 1.985A7.426 7.426 0 000 7.4a7.694 7.694 0 002.3 5.37 8.237 8.237 0 005.1 2.03h.045a7.515 7.515 0 002.255-.361 6.589 6.589 0 001.94-.993.809.809 0 00.226-.316.351.351 0 00-.09-.361.505.505 0 00-.677-.135 5.387 5.387 0 01-1.985.948 6.683 6.683 0 01-1.624.226h-.045A7.317 7.317 0 012.978 12a6.5 6.5 0 01-1.94-4.557 6.9 6.9 0 011.714-4.375 5.929 5.929 0 011.8-1.354A6.14 6.14 0 017.4 1.038a6.735 6.735 0 012.8.632 6.642 6.642 0 012.389 2.03 6.793 6.793 0 011.173 3.7 1.4 1.4 0 01-2.8 0 3.06 3.06 0 00-.541-1.9 2.2 2.2 0 00-.361-.451 4.3 4.3 0 00-1.309-.948A3.4 3.4 0 007.4 3.835a3.915 3.915 0 00-1.263.226 3.246 3.246 0 00-.948.541 3.691 3.691 0 00-1.083 1.444 3.156 3.156 0 00-.271 1.309 3.648 3.648 0 00.271 1.4 3.074 3.074 0 001.038 1.354 3.669 3.669 0 002.256.811 3.525 3.525 0 001.8-.5 3.951 3.951 0 001.309-1.309l.09-.135.135.135a4.089 4.089 0 00.722.5 2.518 2.518 0 00.948.18 2.4 2.4 0 001.715-.722A2.428 2.428 0 0014.8 7.4zM7.4 9.972A2.572 2.572 0 119.972 7.4 2.6 2.6 0 017.4 9.972z" style="fill-rule:evenodd"/>
</svg>
