<svg xmlns="http://www.w3.org/2000/svg" width="84" height="84" viewBox="0 0 84 84">
    <g id="prefix__Group_1867" data-name="Group 1867" transform="translate(-185 -882)">
        <g id="prefix__Rectangle_230" data-name="Rectangle 230" transform="translate(185 882)" style="stroke:#01a8ba;stroke-width:2px;fill:none">
            <rect width="84" height="84" rx="15" style="stroke:none"/>
            <rect width="82" height="82" x="1" y="1" rx="14" style="fill:none"/>
        </g>
        <g id="prefix__Group_1936" data-name="Group 1936">
            <g id="prefix__noun_job_2114346" transform="translate(144.303 960.591)">
                <path id="prefix__Path_559" d="M47.626 15.815a2.447 2.447 0 00-2.444-2.444H32.13V9.964a3.4 3.4 0 00-3.395-3.394h-8.6a3.4 3.4 0 00-3.395 3.395v3.406H3.692a2.447 2.447 0 00-2.444 2.442l-.025 11.869a.952.952 0 00.537.858c.539.261 1.093.5 1.65.742v16.182a2.447 2.447 0 002.444 2.444h37.165a2.447 2.447 0 002.444-2.444V29.04a34.84 34.84 0 001.679-.824.952.952 0 00.508-.844zM18.647 9.964a1.493 1.493 0 011.491-1.491h8.6a1.511 1.511 0 011.491 1.491v3.406H18.647zm24.913 35.5a.554.554 0 01-.541.54H5.854a.547.547 0 01-.541-.54V30.037a50.16 50.16 0 0014.663 2.887v1.438a1.781 1.781 0 001.779 1.779h5.362a1.781 1.781 0 001.783-1.779v-1.455a47.653 47.653 0 0014.66-3.055zM21.88 34.237v-3.429h5.113v3.429zm7.02-3.244v-.31a1.781 1.781 0 00-1.783-1.783h-5.361a1.781 1.781 0 00-1.779 1.779v.332a46.005 46.005 0 01-16.85-3.928l.024-11.267a.548.548 0 01.541-.541h41.489a.548.548 0 01.541.543l.024 10.978A43.157 43.157 0 0128.9 30.993z" data-name="Path 559" transform="translate(57.777 -64)" style="fill:#01a8ba"/>
            </g>
        </g>
    </g>
</svg>
