<svg xmlns="http://www.w3.org/2000/svg" width="14.049" height="11.068" viewBox="0 0 14.049 11.068">
    <g data-name="Group 1793">
        <path d="M4.566 0a3.044 3.044 0 013.041 3.073A3.057 3.057 0 114.566 0zm0 .647A2.41 2.41 0 106.96 3.073 2.4 2.4 0 004.566.647z" data-name="Path 1185"/>
        <path d="M.619 10.805a.312.312 0 01-.615-.1 4.59 4.59 0 019.122 0 .329.329 0 01-.291.356.288.288 0 01-.356-.259 3.954 3.954 0 00-7.861 0z" data-name="Path 1186"/>
        <path d="M10.55 2.62a2.378 2.378 0 11-2.361 2.361A2.382 2.382 0 0110.55 2.62zm0 .647a1.731 1.731 0 101.747 1.714 1.726 1.726 0 00-1.747-1.714z" data-name="Path 1187"/>
        <path d="M9.256 8.669a.327.327 0 01-.453-.129.372.372 0 01.162-.453 3.817 3.817 0 011.585-.388 3.547 3.547 0 013.494 3.008.3.3 0 01-.259.356.336.336 0 01-.388-.259 2.86 2.86 0 00-2.847-2.458 2.945 2.945 0 00-1.294.323z" data-name="Path 1188"/>
    </g>
</svg>
