<svg xmlns="http://www.w3.org/2000/svg" width="20.391" height="15.481" viewBox="0 0 20.391 15.481">
    <path id="prefix__noun_Reply_678139" d="M20.056 15.415a.407.407 0 00.336-.384A11.481 11.481 0 0017.9 8.266C16.457 6.443 13.77 4.284 8.924 4h-.336V.35a.489.489 0 00-.24-.384.362.362 0 00-.384.048L.144 6.731A.342.342 0 000 7.019a.436.436 0 00.144.336l7.821 6.669a.3.3 0 00.384.048.427.427 0 00.24-.384V9.706a.384.384 0 00-.768 0v3.119L1.008 7.019l6.765-5.806v3.119a.413.413 0 00.384.384c7.293.048 9.932 4.51 10.843 7.2l.48 1.391-1.056-1.007a11.606 11.606 0 00-7.1-2.927h-.048a.409.409 0 10-.048.816c4.03.384 6.717 1.967 8.349 4.99a.447.447 0 00.336.192.371.371 0 00.143.044z" transform="translate(0 .066)" style="fill:#9d9d9c"/>
</svg>
