<svg xmlns="http://www.w3.org/2000/svg" width="13.672" height="13.026" viewBox="0 0 13.672 13.026">
    <defs>
        <style>
            .prefix__cls-1{fill:#01a8ba}
        </style>
    </defs>
    <g id="prefix__school_icon" data-name="school icon" transform="translate(0 -.022)">
        <path id="prefix__Path_1210" d="M13.318 6.467h-3.2v-.84a.378.378 0 00-.155-.287L7.178 3.132v-.464a2.045 2.045 0 001.038-.088l.084-.023a1.652 1.652 0 01.8-.066.28.28 0 00.133.022.357.357 0 00.309-.353V.415a.333.333 0 00-.266-.331A2.161 2.161 0 008.084.15a1.181 1.181 0 01-1.06-.044.37.37 0 00-.486.11.356.356 0 00-.066.2v2.716L3.666 5.384a.315.315 0 00-.133.265v.839H.353A.331.331 0 000 6.82v5.9a.331.331 0 00.353.331h12.965a.345.345 0 00.353-.331v-5.9a.4.4 0 00-.353-.353zM7.907 9.272a1.547 1.547 0 00-2.165 0l-.022.044a1.47 1.47 0 00-.42 1.038v2.01H4.219V5.8l2.606-2.1 2.606 2.1v6.56H8.349v-2.01a1.578 1.578 0 00-.442-1.078zm-1.921 1.082a.939.939 0 01.243-.6.766.766 0 01.571-.239.894.894 0 01.6.243.816.816 0 01.243.6v2.01H5.986v-2.01zm1.192-8.393V.923A2.045 2.045 0 008.216.835L8.26.812a2.592 2.592 0 01.6-.11v1.06a2.339 2.339 0 00-.685.11l-.088.022a1.443 1.443 0 01-.909.067zm5.787 5.213v5.213h-2.849V7.173zm-9.431 0v5.213H.685V7.173z" class="prefix__cls-1" data-name="Path 1210"/>
        <path id="prefix__Path_1211" d="M48.353 40.248h1.171a.349.349 0 00.353-.353v-2.342a.349.349 0 00-.353-.353h-1.171a.349.349 0 00-.353.353v2.341a.349.349 0 00.353.354zm.331-.685v-1.656h.486v1.657z" class="prefix__cls-1" data-name="Path 1211" transform="translate(-37.398 -28.966)"/>
        <path id="prefix__Path_1212" d="M26.537 24.2a1.313 1.313 0 00-.883.353 1.2 1.2 0 00-.353.861 1.259 1.259 0 00.353.861 1.272 1.272 0 00.883.353 1.186 1.186 0 00.839-.331l.044-.022a1.259 1.259 0 00.353-.861 1.313 1.313 0 00-.353-.883 1.407 1.407 0 00-.883-.331zm.53 1.237a.455.455 0 01-.155.375.576.576 0 01-.773 0 .517.517 0 01-.155-.375.635.635 0 01.155-.4.517.517 0 01.375-.155.627.627 0 01.375.155.48.48 0 01.178.4z" class="prefix__cls-1" data-name="Path 1212" transform="translate(-19.712 -18.838)"/>
        <path id="prefix__Path_1213" d="M5.653 40.248h1.171a.349.349 0 00.353-.353v-2.342a.349.349 0 00-.353-.353H5.653a.349.349 0 00-.353.353v2.341a.349.349 0 00.353.354zm.817-2.341v1.657h-.463v-1.657z" class="prefix__cls-1" data-name="Path 1213" transform="translate(-4.129 -28.966)"/>
    </g>
</svg>
