<svg xmlns="http://www.w3.org/2000/svg" width="21.8" height="24" viewBox="0 0 21.8 24">
    <defs>
        <style>
            .prefix__cls-1{fill:#9d9d9c}
        </style>
    </defs>
    <g id="prefix__Group_1882" data-name="Group 1882" transform="translate(-270.7 -571)">
        <path id="prefix__Path_1108" d="M30.1 6.3A4.3 4.3 0 1125.8 2a4.3 4.3 0 014.3 4.3zm-2 0a2.3 2.3 0 10-2.3 2.3 2.3 2.3 0 002.3-2.3z" class="prefix__cls-1" data-name="Path 1108" transform="translate(262.4 569)"/>
        <path id="prefix__Path_1109" d="M12.1 16.8a4.3 4.3 0 11-4.3-4.3 4.3 4.3 0 014.3 4.3zm-2 0a2.3 2.3 0 10-2.3 2.3 2.3 2.3 0 002.3-2.3z" class="prefix__cls-1" data-name="Path 1109" transform="translate(267.2 566.2)"/>
        <path id="prefix__Path_1110" d="M30.1 27.3a4.3 4.3 0 11-4.3-4.3 4.3 4.3 0 014.3 4.3zm-2 0a2.3 2.3 0 10-2.3 2.3 2.3 2.3 0 002.3-2.3z" class="prefix__cls-1" data-name="Path 1110" transform="translate(262.4 563.4)"/>
        <path id="prefix__Path_1111" d="M12.382 21.129a1 1 0 011.006-1.729l7.512 4.379a1 1 0 11-1.007 1.728z" class="prefix__cls-1" data-name="Path 1111" transform="translate(264.964 564.396)"/>
        <path id="prefix__Path_1112" d="M19.883 8.9a1 1 0 011.008 1.727l-7.5 4.378a1 1 0 11-1.008-1.727z" class="prefix__cls-1" data-name="Path 1112" transform="translate(264.964 567.196)"/>
    </g>
</svg>
