<svg xmlns="http://www.w3.org/2000/svg" width="98.2" height="75.1" viewBox="0 0 98.2 75.1">
    <path d="M93.6 10.7H51L29.5 0H4.6A4.653 4.653 0 000 4.6v65.9a4.588 4.588 0 004.6 4.6h89a4.653 4.653 0 004.6-4.6V15.3a4.653 4.653 0 00-4.6-4.6zm1.5 59.9a1.538 1.538 0 01-1.5 1.5h-89a1.538 1.538 0 01-1.5-1.5v-66a1.538 1.538 0 011.5-1.5h24.2l21.5 10.7h43.3a1.538 1.538 0 011.5 1.5z" data-name="Path 1203"/>
    <path d="M62.6 46.7a1.216 1.216 0 00-1.2 1.2v5.7a1.58 1.58 0 01-1.6 1.6H39.9a1.58 1.58 0 01-1.6-1.6V48a1.216 1.216 0 00-1.2-1.2 1.29 1.29 0 00-1.2 1.2v5.7a4.055 4.055 0 004.1 4.1h19.9a4.055 4.055 0 004.1-4.1V48a1.493 1.493 0 00-1.4-1.3z" data-name="Path 1204"/>
    <path d="M43.6 38.9l5-5v14a1.216 1.216 0 001.2 1.2 1.29 1.29 0 001.2-1.2v-14l5 5a1.489 1.489 0 00.9.4 1.222 1.222 0 00.9-.4 1.267 1.267 0 000-1.8L50.7 30c-.1-.1-.3-.2-.4-.3a.367.367 0 01-.3-.1h-.2a.9.9 0 00-.5.1h-.1c-.1.1-.2.1-.3.2L41.8 37a1.311 1.311 0 001.8 1.9z" data-name="Path 1205"/>
</svg>
