<svg xmlns="http://www.w3.org/2000/svg" width="22.646" height="19.894" viewBox="0 0 22.646 19.894">
    <defs>
        <style>
            .prefix__cls-1{fill:#dd4e1d}
        </style>
    </defs>
    <g id="prefix__Group_1973" data-name="Group 1973" transform="translate(-521.299 -676.993)">
        <path id="prefix__Icon_feather-folder" d="M4.153 4.638c.616-.192.36-.138 6.067-.138a1 1 0 01.759.349l1.764 2.058c9.72 0 9.128-.051 9.735.138a3.068 3.068 0 012.013 2.013c.2.639.138-.046.138 12.258a3.063 3.063 0 01-3.063 3.063c-17.925 0-16.78.059-17.412-.137a3.068 3.068 0 01-2.017-2.017c-.2-.634-.137.3-.137-14.662a3.064 3.064 0 012.153-2.925zm.594 1.91a1.068 1.068 0 00-.7.7C3.978 7.471 4 6.6 4 21.316a1.063 1.063 0 001.063 1.063c17.713 0 16.592.023 16.82-.048a1.068 1.068 0 00.7-.7c.07-.223.048.7.048-11.663a1.063 1.063 0 00-1.063-1.063h-9.285a1 1 0 01-.759-.349L9.76 6.5c-5.103 0-4.796-.02-5.013.048z" class="prefix__cls-1" data-name="Icon feather-folder" transform="translate(519.308 672.5)"/>
        <path id="prefix__Path_1224" d="M7.5 4.5l5.349 3.439L7.5 11.377z" class="prefix__cls-1" data-name="Path 1224" transform="translate(522.854 680.22)"/>
    </g>
</svg>
