<svg width="373" height="7" viewBox="0 0 373 7" fill="none" xmlns="http://www.w3.org/2000/svg">
<g clip-path="url(#clip0_148_1379)">
<path d="M372.049 4.57058C372.249 4.40058 372.129 4.01058 371.599 4.08058L371.219 4.74058L372.049 4.57058Z" fill="#30BEAD"/>
<path d="M368.422 3.33984C367.792 3.65984 367.052 4.21984 367.462 4.82984C368.092 4.18984 368.242 4.45984 368.922 3.69984C369.462 3.61984 369.862 3.90984 369.772 4.15984C369.962 3.98984 370.612 4.30984 370.902 3.88984C370.202 3.37984 369.312 3.35984 368.382 3.77984C368.182 3.63984 368.382 3.45984 368.422 3.33984Z" fill="#30BEAD"/>
<path d="M315.672 2.31055L316.012 2.39055C315.912 2.34055 315.802 2.32055 315.672 2.31055Z" fill="#30BEAD"/>
<path d="M282.977 1.94078C283.227 1.92078 283.327 1.86078 283.347 1.80078C283.117 1.85078 282.927 1.89078 282.977 1.94078Z" fill="#30BEAD"/>
<path d="M277.398 1.22056C277.518 1.24056 277.618 1.25056 277.728 1.26056C277.598 1.20056 277.478 1.17056 277.398 1.22056Z" fill="#30BEAD"/>
<path d="M315.673 2.30961L314.803 2.09961C314.733 2.31961 315.243 2.25961 315.673 2.30961Z" fill="#30BEAD"/>
<path d="M361.148 4.93953C361.328 4.90953 361.488 4.84953 361.618 4.76953C361.468 4.79953 361.318 4.81953 361.168 4.83953C361.168 4.86953 361.158 4.89953 361.148 4.93953Z" fill="#30BEAD"/>
<path d="M330.078 1.77H330.348C330.428 1.69 330.498 1.6 330.568 1.5L330.078 1.77Z" fill="#30BEAD"/>
<path d="M341.133 1.67044C340.883 1.65044 340.793 2.21044 340.703 2.45044C340.843 2.22044 341.033 2.11044 341.253 2.06044C341.253 1.96044 341.223 1.83044 341.133 1.67044Z" fill="#30BEAD"/>
<path d="M358.672 2.66008L358.982 2.58008C358.902 2.61008 358.762 2.63008 358.672 2.66008Z" fill="#30BEAD"/>
<path d="M322.163 1.64922C322.143 1.56922 322.102 1.48922 322.062 1.44922C322.062 1.51922 322.103 1.58922 322.163 1.64922Z" fill="#30BEAD"/>
<path d="M12.8688 5.86953C12.8788 5.82953 12.8688 5.79953 12.8688 5.76953C12.7988 5.82953 12.7888 5.86953 12.8688 5.86953Z" fill="#30BEAD"/>
<path d="M0.046875 3.09023L0.226875 3.06023C0.246875 2.95023 0.266875 2.85023 0.266875 2.74023L0.046875 3.09023Z" fill="#30BEAD"/>
<path d="M267.188 0.489531C267.207 0.499531 267.217 0.499531 267.237 0.499531C267.497 0.439531 267.347 0.449531 267.188 0.489531Z" fill="#30BEAD"/>
<path d="M173.427 0.910156C174.487 1.41016 171.697 1.55016 173.297 2.11016C173.147 1.89016 174.747 1.24016 173.427 0.910156Z" fill="#30BEAD"/>
<path d="M360.856 4.85938C360.706 4.86937 360.556 4.86937 360.406 4.86937C360.606 4.88937 360.746 4.88937 360.856 4.85938Z" fill="#30BEAD"/>
<path d="M173.297 2.10938C173.297 2.11937 173.297 2.11937 173.297 2.10938L173.467 2.16938C173.397 2.14938 173.357 2.12937 173.297 2.10938Z" fill="#30BEAD"/>
<path d="M243.648 0.830078C243.698 0.930078 243.788 1.00008 243.888 1.08008C243.888 1.02008 243.828 0.950078 243.648 0.830078Z" fill="#30BEAD"/>
<path d="M261.188 1.63078L260.758 1.55078C260.918 1.61078 261.058 1.63078 261.188 1.63078Z" fill="#30BEAD"/>
<path d="M234.546 1.63043C234.306 1.59043 234.226 1.51043 233.906 1.58043C233.936 1.61043 233.966 1.63043 234.006 1.65043C234.126 1.57043 234.276 1.54043 234.546 1.63043Z" fill="#30BEAD"/>
<path d="M225.078 1.63086C225.128 1.67086 225.198 1.71086 225.248 1.74086C225.338 1.73086 225.448 1.72086 225.548 1.71086L225.078 1.63086Z" fill="#30BEAD"/>
<path d="M41.6586 5.59984C41.4486 5.43984 41.3186 5.26984 41.2186 5.08984C41.3686 5.49984 39.9786 5.63984 41.6586 5.59984Z" fill="#30BEAD"/>
<path d="M361.139 4.61914C361.079 4.75914 360.999 4.82914 360.859 4.85914C360.969 4.84914 361.069 4.83914 361.179 4.82914C361.199 4.74914 361.209 4.66914 361.139 4.61914Z" fill="#30BEAD"/>
<path d="M234.166 6.06047L232.656 5.98047C233.076 6.03047 233.626 6.06047 234.166 6.06047Z" fill="#30BEAD"/>
<path d="M109.631 5.51953L109.281 5.58953C109.421 5.59953 109.541 5.58953 109.631 5.51953Z" fill="#30BEAD"/>
<path d="M228.192 6.05992C227.922 5.85992 227.642 5.74992 227.342 5.66992C227.282 5.70992 227.212 5.74992 227.172 5.81992L228.192 6.05992Z" fill="#30BEAD"/>
<path d="M41.2188 5.08984C41.2287 5.09984 41.2287 5.09984 41.2188 5.08984C41.2287 5.09984 41.2287 5.09984 41.2188 5.08984Z" fill="#30BEAD"/>
<path d="M31.3094 6.43016C32.7394 6.45016 31.9794 5.71016 32.2894 5.28016C33.9994 5.07016 33.0794 5.82016 33.6594 6.20016C34.7294 6.00016 35.5494 5.33016 36.3494 5.35016C36.4094 5.47016 36.5594 5.52016 36.3794 5.67016C37.5094 5.08016 39.7294 5.64016 41.0494 4.90016C41.1494 4.97016 41.1994 5.03016 41.2194 5.08016C41.0094 4.71016 40.9694 4.33016 41.0194 4.07016C41.6594 4.06016 42.2094 3.60016 42.4594 4.09016C42.0694 4.08016 42.0294 4.27016 41.8494 4.42016L42.5194 4.21016C43.1294 4.90016 41.5994 4.45016 41.5994 4.96016C42.9094 4.73016 44.4394 4.16016 45.4494 4.36016C45.6594 5.04016 43.0994 4.59016 44.4394 5.19016L42.8794 4.93016C44.0694 6.00016 41.9294 4.86016 43.0294 6.00016C45.0794 6.20016 45.3194 5.65016 47.3694 5.85016C47.8294 5.47016 47.2194 5.29016 47.6794 4.91016C50.5894 4.23016 49.9694 6.62016 52.0994 5.71016C52.6494 5.26016 52.8694 4.40016 54.3894 4.85016L53.8694 5.62016C55.8494 5.70016 54.9995 4.52016 57.0794 5.03016C56.7094 5.33016 55.5194 5.28016 55.8194 5.38016C57.1694 5.99016 56.7694 4.94016 57.8094 4.94016L58.0194 5.62016C60.1294 5.51016 62.4595 5.02016 64.7995 4.90016C64.6695 5.10016 64.2694 5.31016 64.8195 5.52016C67.7694 5.18016 71.1195 5.60016 73.9695 6.01016L75.0594 5.42016C75.3094 5.43016 75.5294 5.69016 75.2595 5.80016C76.3695 6.02016 75.3195 5.43016 75.8494 5.20016C76.4794 5.16016 76.6795 5.54016 76.2794 5.71016C78.2394 5.21016 81.8595 4.64016 83.9194 5.27016L83.5194 5.44016C85.1294 5.68016 85.3295 4.24016 86.8195 4.78016L86.5294 4.88016C90.0194 5.13016 93.8694 4.60016 96.5294 5.48016C97.0395 4.63016 99.9794 5.86016 100.199 4.68016C102.189 5.26016 101.619 5.48016 104.419 5.87016C105.169 5.92016 105.539 5.13016 106.459 5.01016L106.479 5.63016L107.739 4.98016L108.409 5.72016L109.279 5.56016C108.929 5.52016 108.539 5.28016 108.599 5.11016C109.959 4.83016 111.909 5.54016 111.939 5.85016L115.149 5.33016C115.079 5.58016 114.539 5.66016 114.119 5.82016C115.829 5.19016 114.429 6.47016 115.999 5.89016C115.789 5.75016 116.109 5.52016 116.149 5.40016C116.929 5.77016 118.709 5.78016 120.029 5.62016L119.779 6.04016C122.159 6.15016 124.799 5.84016 127.469 5.84016C126.509 5.64016 126.729 4.91016 127.519 4.83016L127.829 5.48016C128.339 5.08016 127.009 5.23016 128.049 4.74016C129.049 4.82016 128.719 5.48016 128.149 5.69016L129.359 5.46016C129.429 5.65016 129.149 5.76016 129.069 6.00016C129.569 5.60016 131.159 6.65016 131.879 5.95016L131.949 6.14016C134.619 6.15016 135.829 5.92016 138.009 5.89016C138.049 5.33016 138.899 5.45016 139.549 5.00016C141.149 5.18016 142.919 5.62016 144.849 5.57016C146.199 5.29016 145.249 5.09016 145.849 4.76016C145.949 5.27016 147.869 5.22016 146.879 5.59016C149.189 5.51016 149.829 5.49016 152.759 5.07016C152.439 4.86016 152.089 4.77016 152.269 4.59016C152.799 4.51016 153.479 4.80016 153.399 5.05016L153.259 5.10016C156.539 4.33016 160.829 6.59016 163.449 5.53016L163.299 5.58016L165.999 5.10016C167.249 5.19016 165.249 5.48016 166.169 5.80016C169.089 4.94016 170.789 5.92016 173.199 5.35016C175.059 6.86016 179.809 5.24016 182.329 6.21016L182.179 5.85016C182.829 5.50016 182.969 6.05016 183.449 6.14016C183.379 5.86016 182.739 5.82016 183.149 5.63016C188.659 5.20016 194.519 6.15016 200.159 6.47016C202.219 6.57016 201.329 4.63016 203.929 5.48016L203.189 6.14016C207.359 5.35016 211.709 6.17016 215.789 5.49016C215.549 5.64016 215.539 5.84016 215.139 5.84016C215.999 6.32016 218.329 5.86016 218.339 5.47016C218.979 5.51016 218.489 5.82016 218.879 6.02016C219.739 6.30016 221.049 5.41016 221.509 5.88016C221.589 5.96016 221.269 6.04016 221.109 6.07016C221.669 5.84016 223.729 6.13016 223.189 5.58016C224.719 5.84016 226.119 5.33016 227.339 5.66016C228.139 5.04016 229.959 5.96016 230.209 5.08016C230.099 5.98016 232.889 5.81016 233.859 5.38016C233.539 5.65016 234.699 5.66016 234.319 6.04016C235.419 6.03016 236.439 5.86016 236.239 5.39016C238.279 6.47016 240.329 4.52016 241.479 5.91016C244.759 5.42016 247.799 5.09016 250.749 4.88016C250.639 5.78016 247.489 4.97016 247.609 5.92016C250.409 5.55016 252.029 4.77016 254.799 4.99016C255.519 5.11016 254.389 5.38016 254.149 5.54016C256.949 5.17016 259.559 5.62016 262.049 5.13016C262.039 5.21016 261.769 5.31016 261.519 5.37016C262.009 5.34016 262.659 5.50016 262.609 5.09016L262.129 5.20016C261.349 4.60016 264.079 3.96016 264.169 3.64016C263.339 4.82016 266.629 3.94016 265.309 5.42016C265.629 5.34016 266.039 5.15016 265.959 4.87016C266.439 4.95016 266.589 5.11016 266.109 5.42016C267.869 5.20016 267.239 4.76016 268.839 4.77016C268.829 4.97016 268.509 5.05016 268.349 5.28016C269.159 4.89016 269.969 4.51016 271.309 4.67016C271.229 4.79016 271.389 4.95016 270.979 4.94016C273.289 4.88016 274.919 3.91016 277.449 4.28016C276.699 5.14016 278.309 4.56016 278.449 5.31016L279.809 5.09016L279.259 4.73016C280.449 4.74016 281.509 4.20016 282.539 4.44016L281.649 4.75016L283.889 4.61016L282.619 4.33016C283.829 3.95016 282.489 3.39016 284.079 3.59016C283.759 3.67016 285.269 3.60016 285.899 4.04016C286.489 3.80016 287.099 3.55016 287.979 3.74016C288.209 3.98016 287.799 4.57016 287.939 4.72016C288.519 4.10016 290.739 4.55016 291.469 3.88016C291.219 4.04016 291.209 4.43016 291.289 4.51016L291.779 4.00016C292.329 4.16016 292.409 4.24016 292.319 4.55016C293.979 4.64016 291.789 3.60016 293.769 4.01016C293.619 4.05016 293.689 4.13016 293.369 4.20016C295.349 4.41016 297.199 3.88016 299.019 4.13016C299.559 4.88016 297.429 4.31016 298.039 4.95016C300.669 4.81016 303.479 4.05016 306.019 4.23016L305.549 4.15016C305.899 3.09016 307.439 4.67016 308.729 4.17016C308.419 4.25016 308.319 4.76016 308.399 4.64016C310.139 4.81016 311.959 4.38016 314.599 4.05016L314.269 4.32016C315.299 4.56016 316.969 4.46016 318.079 4.58016C318.409 4.31016 319.039 4.35016 318.659 3.96016C322.079 5.51016 325.179 3.13016 328.209 4.42016C327.849 4.42016 327.349 4.66016 327.629 4.66016L330.209 4.41016C330.009 3.95016 329.869 4.13016 329.329 3.77016C329.659 3.50016 330.389 3.28016 331.029 3.28016C329.869 3.59016 331.039 4.02016 331.539 4.28016C331.459 4.14016 331.629 3.98016 331.589 3.84016C332.939 4.66016 331.819 2.91016 333.659 3.46016L333.559 3.70016C334.249 3.58016 334.879 3.26016 335.629 3.32016C335.939 3.85016 334.899 3.57016 334.849 4.01016C335.889 3.98016 336.909 3.00016 337.859 3.53016C337.419 3.68016 336.779 3.68016 336.329 3.83016C337.359 4.46016 337.479 4.30016 338.239 4.40016L338.159 4.39016L339.929 4.67016L339.479 4.50016C340.789 3.11016 342.139 4.25016 343.899 3.33016C342.189 4.19016 343.619 3.83016 343.489 4.44016C343.939 4.61016 344.619 4.80016 344.429 4.97016C345.259 4.48016 345.819 5.36016 346.989 4.64016C347.039 4.84016 347.879 4.66016 347.689 5.15016C348.769 5.00016 347.429 4.81016 347.529 4.57016C349.199 3.90016 351.449 5.38016 353.849 4.46016C355.919 4.08016 356.299 3.43016 358.219 3.10016C358.869 3.41016 357.689 3.81016 357.689 3.81016C358.739 4.10016 359.519 4.04016 360.509 3.82016C360.309 3.99016 360.519 4.13016 360.819 4.35016C361.609 4.30016 361.349 3.64016 362.389 3.93016C362.209 4.15016 361.979 4.50016 361.599 4.71016C362.529 4.53016 363.449 4.17016 364.419 3.99016C364.679 4.33016 363.839 4.51016 363.499 4.73016C364.579 4.58016 366.309 4.42016 366.639 3.88016L365.939 3.69016C366.329 3.66016 366.139 4.15016 365.849 4.25016C364.919 4.67016 364.509 4.06016 364.459 3.87016L365.149 3.74016C364.439 2.60016 362.389 3.92016 361.009 3.86016L361.589 3.03016L360.169 3.72016C359.869 3.50016 359.659 3.04016 360.339 2.91016C359.349 2.50016 359.459 3.21016 358.609 2.75016C358.519 2.68016 358.559 2.64016 358.649 2.61016L357.679 2.86016C357.869 2.69016 357.519 2.27016 358.109 2.39016C356.369 1.91016 355.309 3.01016 354.649 2.38016L354.799 2.33016C352.389 2.61016 354.569 2.94016 352.759 3.66016L351.539 2.15016L351.299 2.76016C351.049 2.74016 350.559 2.69016 350.649 2.45016C349.719 2.87016 350.809 2.72016 350.269 3.11016C349.069 2.55016 346.969 3.37016 346.699 2.40016C346.269 2.86016 347.849 2.76016 346.569 3.08016C346.209 2.03016 345.089 3.26016 343.999 2.78016C344.339 2.24016 345.369 2.53016 344.279 2.04016C343.619 2.95016 342.149 1.84016 341.229 2.01016C341.189 2.74016 339.219 2.31016 337.679 2.56016C337.779 2.32016 334.769 2.16016 333.329 1.90016L333.369 1.78016C333.089 2.51016 331.609 2.38016 330.519 2.53016C330.559 2.09016 330.759 1.92016 331.339 1.72016H330.319C330.079 1.96016 329.759 2.08016 329.099 2.16016L329.359 1.61016C328.009 1.64016 326.629 2.26016 324.889 1.89016C324.789 2.40016 326.279 3.32016 324.429 3.66016C324.359 3.38016 324.289 2.91016 324.779 2.80016C324.619 2.84016 324.219 3.03016 323.899 2.91016L324.639 2.44016C323.849 2.24016 324.229 2.83016 323.589 2.79016C323.599 2.40016 323.119 2.51016 323.209 2.19016C323.369 2.15016 323.759 2.35016 324.009 2.20016C323.299 2.13016 322.429 1.90016 322.149 1.60016C322.209 1.82016 322.149 2.13016 321.629 2.18016C320.279 2.21016 321.169 1.70016 320.379 1.50016C320.049 1.77016 319.189 1.49016 319.169 2.08016C318.769 2.08016 318.699 1.80016 318.549 1.64016C317.849 1.90016 315.279 1.71016 316.069 2.34016L316.249 2.38016C316.219 2.39016 316.179 2.39016 316.139 2.41016C316.149 2.41016 316.139 2.41016 316.149 2.41016H316.139C313.839 3.00016 311.369 2.08016 309.089 2.33016V2.13016C307.729 2.36016 306.059 2.26016 305.089 2.69016C304.689 2.69016 304.139 2.33016 304.309 2.09016C303.269 2.24016 303.149 2.46016 301.649 2.13016C302.699 1.79016 301.289 1.82016 302.719 1.88016C301.369 1.71016 301.059 1.39016 299.609 1.93016C300.099 1.42016 298.589 1.29016 297.949 1.44016L298.899 1.80016C298.179 1.87016 297.549 1.83016 296.909 1.79016L297.259 1.12016C294.499 0.310156 292.279 2.50016 290.169 1.14016C289.439 1.61016 291.669 1.47016 291.019 2.01016C289.749 1.92016 288.419 0.970156 288.029 0.960156C286.289 0.590156 286.409 1.93016 284.579 1.68016C284.809 1.92016 285.029 2.55016 283.669 2.77016C282.399 2.68016 282.109 1.77016 282.909 1.58016C283.219 1.56016 283.359 1.64016 283.349 1.72016C283.759 1.63016 284.299 1.53016 283.799 1.27016L283.629 1.51016C282.999 1.27016 281.249 1.29016 281.659 0.900156C280.699 1.13016 281.249 1.29016 281.959 1.41016C280.329 1.07016 279.409 1.40016 277.729 1.17016C277.999 1.30016 278.239 1.58016 277.979 1.58016C275.519 1.29016 276.899 2.03016 275.229 2.13016C274.279 1.77016 275.569 1.27016 273.889 1.57016C272.859 1.33016 273.669 0.940156 274.079 0.750156C272.549 1.21016 271.219 0.450156 270.339 0.370156L271.149 0.180156C270.669 0.290156 270.269 0.290156 269.869 0.290156L270.329 0.760156C269.859 0.680156 269.459 0.680156 269.459 0.480156C268.969 0.790156 269.829 1.27016 268.869 1.69016C268.239 1.45016 266.949 1.95016 266.729 1.32016C268.719 1.53016 266.509 0.690156 268.189 0.590156C267.869 0.670156 267.469 0.660156 266.999 0.580156C266.929 0.510156 267.069 0.450156 267.199 0.410156C265.299 -0.149844 266.329 1.12016 264.359 1.11016C264.609 0.750156 263.899 0.440156 263.579 0.510156C264.369 0.520156 263.959 1.10016 263.229 1.37016C261.969 1.09016 261.859 1.58016 261.199 1.54016L261.949 1.67016C261.689 2.03016 261.059 1.98016 260.179 2.09016C260.099 1.81016 260.979 1.90016 260.669 1.78016C259.689 2.40016 258.459 1.13016 257.099 1.55016C256.469 1.31016 257.039 0.880156 256.479 0.720156C254.949 1.18016 254.829 0.230156 253.219 0.610156C253.679 1.09016 253.759 0.970156 252.629 1.44016L255.269 1.10016L253.579 1.79016C254.379 1.80016 255.259 1.49016 255.739 1.57016C254.929 1.96016 255.019 1.84016 255.399 2.24016C254.309 1.52016 253.239 2.66016 251.979 2.17016L252.019 0.990156C250.129 0.460156 248.659 1.60016 246.199 1.30016L246.989 1.51016C246.659 1.98016 245.469 1.58016 244.679 1.77016C244.749 1.38016 244.259 1.23016 243.919 0.990156C243.959 1.28016 242.119 0.960156 241.899 1.75016L240.799 1.23016C238.809 1.02016 238.529 2.36016 236.629 2.22016C237.199 1.79016 236.339 1.51016 237.619 1.20016C236.979 1.20016 236.409 1.12016 236.399 1.40016C236.029 1.15016 234.629 1.93016 234.049 1.56016C233.779 1.73016 233.689 2.15016 232.979 2.11016C232.899 2.03016 232.979 1.92016 232.979 1.92016C232.979 2.11016 231.859 2.19016 232.489 2.62016C230.529 1.39016 226.999 2.71016 225.289 1.65016C223.899 1.78016 222.219 1.91016 220.959 1.94016C221.039 1.82016 220.959 1.74016 221.199 1.78016C219.459 1.41016 220.129 2.91016 218.149 2.50016C217.139 1.86016 219.199 2.15016 218.569 1.91016C218.299 0.610156 216.179 2.09016 214.839 1.33016L215.159 1.25016C214.139 0.810156 212.669 1.74016 211.009 1.65016C211.009 1.65016 211.089 1.54016 211.019 1.45016C209.879 2.11016 207.719 2.33016 206.119 2.52016C206.619 2.01016 206.849 2.25016 206.539 1.73016C205.819 1.80016 206.749 2.56016 205.319 2.70016C204.849 2.42016 203.819 2.18016 203.679 1.63016L205.029 1.60016C204.339 0.890156 203.279 1.62016 202.569 1.50016L202.659 1.19016C200.589 1.29016 200.559 2.08016 198.329 2.02016L198.559 2.26016C197.339 3.04016 197.539 1.82016 196.329 2.40016L195.959 1.61016C195.159 1.80016 193.149 2.37016 191.709 2.52016C192.529 1.93016 194.209 1.64016 195.249 1.29016C194.449 1.28016 192.539 1.35016 192.129 1.74016C192.449 1.66016 192.859 1.47016 193.169 1.59016C192.189 2.21016 190.909 2.52016 189.319 2.50016C189.599 0.970156 185.179 2.11016 184.029 0.930156C181.219 1.50016 178.459 0.690156 175.189 0.780156C176.349 1.97016 174.239 0.810156 174.439 2.04016C173.679 2.12016 173.389 2.10016 173.319 2.02016L171.009 1.29016C170.459 0.930156 171.729 1.02016 171.659 0.750156C169.989 0.660156 170.959 0.230156 169.859 -0.0898438C170.089 0.350156 169.279 0.540156 168.329 0.370156L169.669 0.930156C167.339 1.58016 167.659 -0.0998437 165.309 0.550156L166.049 0.170156C164.839 0.400156 161.599 0.160156 160.419 1.14016C160.209 1.00016 159.929 0.660156 160.459 0.580156C157.579 0.430156 154.049 1.63016 151.809 1.02016L152.029 0.720156C151.489 0.810156 151.089 1.28016 150.419 0.980156C150.449 0.860156 150.639 0.680156 150.389 0.660156C150.109 0.760156 148.959 1.18016 148.249 1.01016L148.859 0.670156C146.049 0.280156 144.549 1.49016 142.189 1.69016C142.199 0.810156 139.989 0.520156 138.879 0.380156L138.919 0.260156C135.649 0.150156 133.359 0.990156 130.329 1.34016C128.449 0.380156 123.959 0.940156 120.939 0.400156C121.399 0.560156 120.859 1.09016 120.329 1.17016C119.619 0.990156 118.369 1.78016 118.479 0.970156L118.729 0.990156C118.199 0.200156 116.739 0.410156 115.599 0.390156L115.409 1.45016C112.429 -0.0898436 107.609 2.01016 105.979 0.640156C105.259 0.900156 104.369 0.900156 103.659 1.16016L103.699 0.590156C101.709 0.450156 100.719 0.370156 98.2495 0.510156L98.7495 0.110156C97.3595 0.0701562 96.9995 1.74016 95.7195 1.78016L95.3295 0.930156C92.9095 0.940156 90.4594 0.200156 88.0695 0.970156C88.1095 0.850156 88.1795 0.600156 88.5695 0.570156C87.4295 0.550156 84.1595 0.000156283 84.5795 1.16016C84.5495 0.400156 82.0794 1.09016 80.7694 1.42016L80.9695 0.860156C79.8695 1.57016 79.8295 1.77016 78.2895 1.96016C77.9194 1.89016 77.9695 1.51016 78.4594 1.66016C77.2394 1.37016 77.5095 2.19016 76.0395 1.89016L76.5894 1.53016C75.3394 1.49016 75.4395 1.68016 74.7495 2.09016C73.9594 2.31016 72.3695 1.95016 72.1895 1.45016C71.9995 1.85016 71.3195 2.26016 70.5795 2.12016C70.4795 1.93016 70.7495 1.81016 70.8794 1.75016C68.7895 1.37016 67.7695 2.40016 66.3295 1.85016C66.2995 1.67016 66.2094 1.57016 66.0894 1.52016C67.7495 1.53016 69.0895 1.56016 68.9695 1.60016C68.9695 1.09016 67.6294 1.00016 68.6994 0.290156C67.6194 0.680156 65.7794 1.52016 64.4695 1.28016C64.4095 1.23016 64.3395 1.18016 64.2995 1.10016L64.4395 1.04016C64.1395 0.990156 63.8694 1.04016 63.6094 1.12016C63.1894 1.04016 62.9294 0.970156 62.5294 0.970156C62.3794 0.550156 60.9894 0.740156 60.3194 0.720156C60.3794 1.28016 59.4994 1.19016 60.3194 1.66016C60.2094 1.62016 60.4494 1.59016 60.8894 1.57016C60.9894 1.55016 61.1094 1.55016 61.1794 1.51016C61.1694 1.53016 61.1494 1.54016 61.1294 1.56016C61.5694 1.54016 62.1394 1.53016 62.7994 1.52016C62.2694 1.81016 61.7194 2.05016 60.9794 1.73016C60.6394 2.09016 60.2594 2.46016 60.0394 2.64016C59.1194 1.86016 57.3594 1.43016 57.1094 0.950156C55.0594 1.27016 52.2894 1.16016 50.9994 2.21016C50.4194 2.35016 50.3294 1.91016 50.1094 1.74016C50.4494 1.63016 50.8494 1.65016 51.0294 1.50016C49.8694 1.77016 47.5794 1.61016 47.3094 2.34016C45.8394 2.01016 48.1294 1.66016 46.1194 1.78016L46.3894 1.55016C42.4294 0.370156 39.9494 3.43016 35.5494 1.92016C35.8494 2.01016 36.0094 2.06016 36.0694 2.18016C31.0594 1.51016 25.7494 2.81016 20.8094 1.75016C19.4094 1.54016 19.2494 2.01016 18.3994 2.37016L18.0994 1.77016L16.6294 2.47016C14.5494 2.98016 13.0294 0.990156 10.3994 1.95016L10.7394 2.36016C9.76945 2.28016 7.71945 2.60016 7.86945 2.13016C7.77945 2.20016 7.55945 2.55016 7.19945 2.34016L7.16945 2.02016L4.83945 2.57016C3.03945 2.34016 5.12945 1.31016 2.49945 1.25016C1.51945 1.37016 -0.280553 2.17016 0.0894471 2.38016C0.479447 2.40016 1.08945 2.58016 1.11945 2.90016L0.229447 3.06016C0.0694471 3.99016 -0.620553 4.94016 1.56945 5.60016L3.09945 5.03016L3.58945 5.48016L2.30945 5.51016C3.03945 5.93016 3.49945 5.55016 4.01945 5.30016C4.13945 5.54016 4.35945 5.71016 4.65945 5.80016L6.15945 4.91016C6.33945 5.27016 5.48945 5.63016 6.48945 5.83016C7.18945 5.42016 5.81945 5.01016 6.97945 4.74016C7.70945 5.16016 7.49945 5.51016 8.34945 5.15016C8.46945 5.39016 8.28945 5.54016 7.94945 5.65016C8.70945 5.36016 9.96945 5.53016 10.3594 5.03016C11.1194 5.55016 12.9394 4.89016 12.8594 5.78016C13.0994 5.57016 14.1994 5.09016 14.9094 5.05016C13.6294 6.11016 17.5294 5.11016 17.1994 6.24016C18.1494 5.29016 20.6194 5.82016 22.2994 5.29016C22.2094 5.37016 22.0194 5.52016 21.8694 5.47016C22.8194 5.55016 23.0894 5.83016 23.6994 6.01016C23.8194 5.23016 25.2894 5.05016 26.0894 4.56016C27.2494 5.32016 25.3894 5.48016 25.7494 6.21016C25.6894 5.57016 27.7594 5.58016 27.3694 5.05016C28.2594 5.52016 28.1294 5.28016 28.5894 5.93016C28.7494 4.95016 29.4194 5.76016 30.1494 5.16016C31.4294 5.64016 30.4794 6.08016 31.8894 5.78016C32.5594 6.08016 31.3094 6.43016 31.3094 6.43016ZM64.8094 4.73016C64.8094 4.74016 64.8094 4.74016 64.8094 4.74016C64.5194 4.75016 64.2795 4.76016 64.1195 4.77016C64.2595 4.77016 64.4594 4.76016 64.8094 4.73016ZM67.6195 4.73016C67.2795 4.70016 66.8494 4.70016 66.3995 4.70016C66.2995 4.51016 66.4095 4.31016 66.6895 4.32016C66.5395 4.45016 67.1995 4.56016 67.6195 4.73016ZM61.6694 0.830156C62.1194 0.750156 62.2594 0.860156 62.3294 0.980156C62.1094 0.980156 61.8694 1.00016 61.5394 1.04016C61.5294 1.06016 61.4994 1.09016 61.4894 1.11016C61.5294 1.00016 61.5794 0.900156 61.6694 0.830156Z" fill="#30BEAD"/>
<path d="M60.8675 1.57055C60.8075 1.58055 60.7675 1.61055 60.6875 1.61055C60.7775 1.66055 60.8675 1.70055 60.9575 1.74055C61.0075 1.68055 61.0675 1.62055 61.1175 1.56055C61.0275 1.56055 60.9375 1.56055 60.8675 1.57055Z" fill="#30BEAD"/>
<path d="M316.068 2.40062L316.008 2.39062C316.058 2.41062 316.098 2.43062 316.128 2.47062C316.088 2.44062 316.088 2.42062 316.068 2.40062Z" fill="#30BEAD"/>
<path d="M106.5 5.80016L106.49 5.66016L106.25 5.78016L106.5 5.80016Z" fill="#30BEAD"/>
<path d="M331.57 4.33008C331.6 4.38008 331.66 4.43008 331.77 4.47008C331.77 4.44008 331.68 4.39008 331.57 4.33008Z" fill="#30BEAD"/>
<path d="M338.273 4.46094L339.223 4.66094C338.813 4.54094 338.513 4.49094 338.273 4.46094Z" fill="#30BEAD"/>
<path d="M343.422 4.73023C343.492 4.63023 343.502 4.56023 343.522 4.49023H343.512L343.422 4.73023Z" fill="#30BEAD"/>
<path d="M261.541 5.39062C261.471 5.39062 261.401 5.40063 261.341 5.42063C260.881 5.53063 261.191 5.49063 261.541 5.39062Z" fill="#30BEAD"/>
<path d="M285.913 4.08008C285.653 4.18008 285.403 4.28008 285.133 4.35008C285.563 4.39008 285.893 4.40008 285.913 4.08008Z" fill="#30BEAD"/>
<path d="M234.326 6.07055C234.266 6.06055 234.216 6.06055 234.156 6.06055L234.326 6.07055Z" fill="#30BEAD"/>
<path d="M283.992 4.33992C284.422 4.44992 284.792 4.42992 285.122 4.34992C284.772 4.30992 284.352 4.24992 283.992 4.33992Z" fill="#30BEAD"/>
<path d="M365.742 4.98992L365.992 5.00992C365.992 4.96992 366.002 4.93992 366.022 4.91992L365.742 4.98992Z" fill="#30BEAD"/>
<path d="M366.023 4.91961L366.303 4.84961C366.163 4.85961 366.063 4.85961 366.023 4.91961Z" fill="#30BEAD"/>
<path d="M366.869 4.71094L366.289 4.85094C366.489 4.86094 366.739 4.87094 366.869 4.71094Z" fill="#30BEAD"/>
<path d="M358.924 4.73047L358.844 4.93047C358.894 4.89047 358.914 4.82047 358.924 4.73047Z" fill="#30BEAD"/>
<path d="M356.852 4.78964C357.342 4.83964 358.092 5.21964 358.782 5.09964L358.842 4.93964C358.522 5.23964 357.322 4.43964 356.852 4.78964Z" fill="#30BEAD"/>
<path d="M348.203 2.26927L349.943 2.42927C349.643 2.20927 349.243 1.91927 350.033 1.86927C347.843 1.21927 350.483 2.35927 348.203 2.26927Z" fill="#30BEAD"/>
<path d="M342.818 1.94977C343.748 1.84977 342.808 1.62977 342.858 1.50977C342.268 1.70977 342.118 1.75977 342.818 1.94977Z" fill="#30BEAD"/>
<path d="M303.917 1.94945L304.006 1.43945C303.296 1.50945 304.007 1.63945 303.917 1.94945Z" fill="#30BEAD"/>
<path d="M296.492 4.59945L297.192 4.90945L297.522 4.43945L296.492 4.59945Z" fill="#30BEAD"/>
<path d="M292.091 0.950859L292.411 0.880859L291.211 1.06086L292.091 0.950859Z" fill="#30BEAD"/>
<path d="M226.758 1.12979L226.978 1.75979C227.468 1.64979 227.568 0.939788 226.758 1.12979Z" fill="#30BEAD"/>
<path d="M198.559 1.76909C198.249 1.44909 197.459 1.24909 196.969 1.55909C197.599 1.60909 198.239 1.85909 198.559 1.76909Z" fill="#30BEAD"/>
<path d="M113.977 0.749062L114.537 0.539062L113.477 0.709062L113.977 0.749062Z" fill="#30BEAD"/>
</g>
<defs>
<clipPath id="clip0_148_1379">
<rect width="372.14" height="6.47" fill="white"/>
</clipPath>
</defs>
</svg>
