<svg width="32" height="32" viewBox="0 0 32 32" fill="none" xmlns="http://www.w3.org/2000/svg">
<circle opacity="0.1" cx="16" cy="16" r="16" fill="#30BEAD"/>
<g clip-path="url(#clip0_332_5355)">
<path d="M16 23.5C11.8578 23.5 8.5 20.1423 8.5 16C8.5 11.8578 11.8578 8.5 16 8.5C20.1423 8.5 23.5 11.8578 23.5 16C23.5 20.1423 20.1423 23.5 16 23.5ZM16 22C17.5913 22 19.1174 21.3679 20.2426 20.2426C21.3679 19.1174 22 17.5913 22 16C22 14.4087 21.3679 12.8826 20.2426 11.7574C19.1174 10.6321 17.5913 10 16 10C14.4087 10 12.8826 10.6321 11.7574 11.7574C10.6321 12.8826 10 14.4087 10 16C10 17.5913 10.6321 19.1174 11.7574 20.2426C12.8826 21.3679 14.4087 22 16 22ZM16.75 16H19.75V17.5H15.25V12.25H16.75V16Z" fill="#30BEAD"/>
</g>
<defs>
<clipPath id="clip0_332_5355">
<rect width="18" height="18" fill="white" transform="translate(7 7)"/>
</clipPath>
</defs>
</svg>
