<svg width="72" height="72" viewBox="0 0 72 72" fill="none" xmlns="http://www.w3.org/2000/svg">
<rect width="72" height="72" rx="36" fill="#E3F9F6"/>
<path d="M42.621 37.7022C44.586 35.8571 45.666 33.3596 45.666 30.667C45.666 24.5619 40.0785 19.9268 33.921 21.2168C30.126 22.0118 27.1335 25.1244 26.4735 28.9645C25.9035 32.302 27.0435 35.4671 29.2935 37.6347C30.7335 39.0222 31.596 41.0623 31.596 43.0948V45.7349C31.1535 45.7799 30.8085 46.1549 30.8085 46.6124C30.8085 47.0999 31.1985 47.4899 31.686 47.4899C32.0985 49.485 33.876 51 35.9985 51C38.121 51 39.8985 49.485 40.3035 47.4824H40.4835C40.971 47.4824 41.361 47.0924 41.361 46.6049C41.361 46.1174 40.971 45.7274 40.4835 45.7274H40.3935V43.0873C40.431 42.8998 40.0185 40.1472 42.621 37.7022ZM30.516 36.3596C28.5885 34.5146 27.7485 31.927 28.206 29.257C28.746 26.1219 31.1835 23.5793 34.281 22.9343C39.3285 21.8768 43.9035 25.6644 43.9035 30.667C43.9035 32.8646 43.0185 34.9121 41.4135 36.4196C39.7335 38.0022 38.736 40.0947 38.6385 42.2098H36.876V36.2096L40.2435 31.1545C40.5135 30.7495 40.401 30.202 39.996 29.932C39.591 29.662 39.0435 29.7745 38.7735 30.1795L38.3235 30.8545L36.381 29.8795C36.1335 29.7595 35.841 29.7595 35.5935 29.8795L33.651 30.8545L33.201 30.1795C32.931 29.7745 32.3835 29.6695 31.9785 29.932C31.5735 30.202 31.4685 30.7495 31.731 31.1545L35.0985 36.2096V42.2098H33.2985C33.1035 40.0047 32.091 37.8672 30.516 36.3596ZM35.9985 34.3571L34.6485 32.3245L35.9985 31.6495L37.3485 32.3245L35.9985 34.3571ZM35.9985 49.245C34.851 49.245 33.876 48.5099 33.516 47.4899H38.4885C38.121 48.5099 37.146 49.245 35.9985 49.245ZM33.366 45.7274V43.9723H38.6385V45.7274H33.366Z" fill="#30BEAD"/>
<path d="M24.9067 36.0592L23.3842 36.9367C22.9642 37.1767 22.8217 37.7167 23.0617 38.1368C23.3092 38.5568 23.8417 38.6993 24.2617 38.4593L25.7842 37.5817C26.2042 37.3417 26.3467 36.8017 26.1067 36.3817C25.8592 35.9617 25.3267 35.8117 24.9067 36.0592Z" fill="#30BEAD"/>
<path d="M47.0977 25.2743L48.6202 24.3968C49.0402 24.1568 49.1827 23.6167 48.9427 23.1967C48.7027 22.7767 48.1627 22.6342 47.7427 22.8742L46.2202 23.7517C45.8002 23.9918 45.6577 24.5318 45.8977 24.9518C46.1377 25.3718 46.6777 25.5143 47.0977 25.2743Z" fill="#30BEAD"/>
<path d="M25.7842 23.7517L24.2617 22.8742C23.8417 22.6342 23.3017 22.7767 23.0617 23.1967C22.8217 23.6167 22.9642 24.1568 23.3842 24.3968L24.9067 25.2743C25.3267 25.5143 25.8667 25.3718 26.1067 24.9518C26.3467 24.5318 26.2042 23.9918 25.7842 23.7517Z" fill="#30BEAD"/>
<path d="M46.2124 37.5823L47.7349 38.4598C48.1549 38.6998 48.6949 38.5573 48.9349 38.1373C49.1749 37.7173 49.0324 37.1773 48.6124 36.9373L47.0899 36.0598C46.6699 35.8198 46.1299 35.9623 45.8899 36.3823C45.6499 36.8023 45.7924 37.3348 46.2124 37.5823Z" fill="#30BEAD"/>
<path d="M21 30.6666C21 31.1541 21.39 31.5441 21.8775 31.5441H23.6925C24.18 31.5441 24.57 31.1541 24.57 30.6666C24.57 30.1791 24.18 29.7891 23.6925 29.7891H21.8775C21.39 29.7891 21 30.1791 21 30.6666Z" fill="#30BEAD"/>
<path d="M50.1222 29.7891H48.3072C47.8197 29.7891 47.4297 30.1791 47.4297 30.6666C47.4297 31.1541 47.8197 31.5441 48.3072 31.5441H50.1222C50.6097 31.5441 50.9997 31.1541 50.9997 30.6666C50.9997 30.1791 50.6097 29.7891 50.1222 29.7891Z" fill="#30BEAD"/>
</svg>
