<svg width="59" height="5" viewBox="0 0 59 5" fill="none" xmlns="http://www.w3.org/2000/svg">
<g clip-path="url(#clip0_201_1670)">
<path d="M58.9589 4.68775C59.0062 4.63128 59.0277 4.48444 58.9373 4.49573L58.8125 4.72917L58.9589 4.68775Z" fill="#FF7E84"/>
<path d="M58.5118 4.13379C58.3826 4.23168 58.2105 4.41993 58.2191 4.65337C58.3783 4.43876 58.3783 4.54042 58.5548 4.28063C58.6452 4.26933 58.6796 4.38605 58.6452 4.47265C58.6925 4.41617 58.7614 4.55171 58.8475 4.40487C58.7872 4.1978 58.6495 4.16391 58.4644 4.29192C58.4472 4.23545 58.4945 4.17897 58.5118 4.13379Z" fill="#FF7E84"/>
<path d="M50.2969 2.3457L50.3426 2.38335C50.3343 2.36453 50.3177 2.35323 50.2969 2.3457Z" fill="#FF7E84"/>
<path d="M45.1341 1.56276C45.1729 1.56276 45.1944 1.5364 45.1987 1.51758C45.16 1.52511 45.1255 1.54017 45.1341 1.56276Z" fill="#FF7E84"/>
<path d="M44.2734 1.19747C44.2901 1.20876 44.3067 1.21253 44.3234 1.22006C44.3067 1.19747 44.2859 1.18241 44.2734 1.19747Z" fill="#FF7E84"/>
<path d="M50.3001 2.34594L50.1753 2.24805C50.1537 2.32711 50.2398 2.31582 50.3001 2.34594Z" fill="#FF7E84"/>
<path d="M57.2188 4.51086C57.2489 4.50333 57.279 4.4845 57.3092 4.46191C57.2833 4.46944 57.2575 4.47321 57.2317 4.47321C57.2317 4.48827 57.2274 4.49956 57.2188 4.51086Z" fill="#FF7E84"/>
<path d="M52.625 2.47024L52.668 2.47401C52.6853 2.44765 52.7068 2.41753 52.724 2.37988L52.625 2.47024Z" fill="#FF7E84"/>
<path d="M54.3834 2.72931C54.3447 2.71425 54.2844 2.91756 54.25 3.00792C54.293 2.92509 54.3275 2.89121 54.3662 2.87991C54.3748 2.8385 54.3791 2.79331 54.3834 2.72931Z" fill="#FF7E84"/>
<path d="M57.0469 3.60281L57.101 3.58398C57.0885 3.58775 57.0677 3.59528 57.0469 3.60281Z" fill="#FF7E84"/>
<path d="M51.382 2.24425C51.3866 2.21413 51.3866 2.18401 51.382 2.16895C51.3727 2.1953 51.3727 2.22166 51.382 2.24425Z" fill="#FF7E84"/>
<path d="M2.37404 4.72124C2.36922 4.70618 2.36439 4.69865 2.36439 4.68359C2.35475 4.70995 2.35957 4.72501 2.37404 4.72124Z" fill="#FF7E84"/>
<path d="M0.105723 4.14921L0.130689 4.13039C0.118206 4.09274 0.109884 4.05132 0.101562 4.01367L0.105723 4.14921Z" fill="#FF7E84"/>
<path d="M42.6719 0.76477C42.676 0.768535 42.676 0.768535 42.6802 0.768535C42.7218 0.74971 42.6968 0.74971 42.6719 0.76477Z" fill="#FF7E84"/>
<path d="M27.5664 0.338867C27.7385 0.52712 27.2909 0.583596 27.5535 0.790674C27.5276 0.711608 27.7816 0.463114 27.5664 0.338867Z" fill="#FF7E84"/>
<path d="M57.1903 4.47712C57.1645 4.47335 57.143 4.47335 57.1172 4.46582C57.1473 4.47712 57.1688 4.48088 57.1903 4.47712Z" fill="#FF7E84"/>
<path d="M27.5547 0.793945L27.5809 0.816536C27.5678 0.805241 27.5634 0.801475 27.5547 0.793945Z" fill="#FF7E84"/>
<path d="M38.875 0.613281C38.8792 0.650932 38.8916 0.681052 38.9041 0.707408C38.9041 0.684817 38.9 0.658462 38.875 0.613281Z" fill="#FF7E84"/>
<path d="M41.6583 1.0915L41.5938 1.05762C41.6196 1.08021 41.6411 1.08774 41.6583 1.0915Z" fill="#FF7E84"/>
<path d="M37.3924 0.817113C37.3536 0.798288 37.345 0.768168 37.2891 0.794523C37.2934 0.805818 37.2977 0.813348 37.302 0.820878C37.3278 0.794523 37.3536 0.783228 37.3924 0.817113Z" fill="#FF7E84"/>
<path d="M35.875 0.730469C35.8836 0.745529 35.8922 0.760589 35.9008 0.775649C35.918 0.771884 35.9353 0.768119 35.9482 0.764354L35.875 0.730469Z" fill="#FF7E84"/>
<path d="M6.79871 3.80977C6.75567 3.75706 6.72123 3.69682 6.6911 3.63281C6.74275 3.77965 6.54045 3.87001 6.79871 3.80977Z" fill="#FF7E84"/>
<path d="M57.2521 4.39355C57.2305 4.4425 57.209 4.46886 57.1875 4.47262C57.2047 4.47262 57.2219 4.47262 57.2392 4.46886C57.2478 4.4425 57.2564 4.41615 57.2521 4.39355Z" fill="#FF7E84"/>
<path d="M37.2133 2.48073L36.9766 2.43555C37.0411 2.45814 37.1272 2.4732 37.2133 2.48073Z" fill="#FF7E84"/>
<path d="M17.4718 2.51465L17.4219 2.54477C17.4427 2.54477 17.4593 2.53724 17.4718 2.51465Z" fill="#FF7E84"/>
<path d="M36.2721 2.42097C36.2334 2.3419 36.1904 2.29672 36.1473 2.2666C36.1344 2.28166 36.1258 2.29672 36.1172 2.31931L36.2721 2.42097Z" fill="#FF7E84"/>
<path d="M5.2597 4.38253C5.48352 4.35241 5.30274 4.09639 5.31565 3.93449C5.56531 3.81401 5.48352 4.11521 5.60835 4.23946C5.759 4.1378 5.82787 3.86672 5.957 3.85919C5.97422 3.90437 6.00435 3.91566 5.98713 3.9759C6.11626 3.73117 6.50796 3.87801 6.65431 3.56928C6.67583 3.59187 6.68875 3.61446 6.69735 3.63328C6.63709 3.50151 6.60266 3.3622 6.58544 3.26431C6.68444 3.24172 6.73609 3.06099 6.81357 3.23419C6.74901 3.23795 6.76192 3.31325 6.7447 3.37349L6.83509 3.27937C6.98144 3.52033 6.71027 3.39232 6.74901 3.58057C6.93409 3.46386 7.1321 3.2116 7.30427 3.25678C7.38605 3.50151 6.95562 3.40361 7.20957 3.59187L6.94701 3.53539C7.21388 3.9006 6.79205 3.53163 7.05031 3.92696C7.38175 3.94578 7.38175 3.7387 7.71319 3.76506C7.75623 3.61446 7.64862 3.56175 7.69166 3.41114C8.10058 3.09488 8.17375 3.99473 8.44493 3.61069C8.50089 3.42997 8.47075 3.10617 8.74193 3.24172L8.70749 3.53916C9.02171 3.5241 8.8065 3.10241 9.16806 3.24925C9.12932 3.36973 8.93993 3.37726 8.99589 3.40738C9.24985 3.60316 9.11641 3.22289 9.27567 3.2003L9.35745 3.4488C9.68028 3.3622 10.0117 3.125 10.3733 3.03087C10.3647 3.10994 10.3173 3.19654 10.4163 3.26431C10.8597 3.08358 11.4149 3.17771 11.8841 3.2756L12.0219 3.03464C12.0606 3.03087 12.1123 3.125 12.0735 3.17395C12.2586 3.23795 12.0606 3.03464 12.1338 2.93675C12.2328 2.91039 12.2844 3.04593 12.2328 3.12123C12.5126 2.8991 13.0506 2.61672 13.4079 2.8125L13.3519 2.88404C13.6188 2.94428 13.5757 2.39834 13.8383 2.58283L13.7996 2.62425C14.3634 2.66943 14.9488 2.40964 15.4094 2.70331C15.4524 2.37952 15.969 2.79367 15.9561 2.3494C16.2961 2.53765 16.2143 2.62801 16.6749 2.73343C16.7954 2.74096 16.8212 2.43976 16.9633 2.38328L16.9934 2.61295L17.1656 2.35316L17.299 2.62048L17.4282 2.54895C17.3722 2.54142 17.3033 2.45482 17.3033 2.38705C17.5056 2.2628 17.8457 2.5113 17.8586 2.62801L18.3493 2.39834C18.345 2.49247 18.2632 2.53012 18.2029 2.59413C18.4526 2.34187 18.2761 2.83509 18.5042 2.60166C18.4655 2.55271 18.5085 2.46235 18.5085 2.41717C18.6463 2.54895 18.9261 2.53012 19.1327 2.45858L19.1069 2.62048C19.4856 2.63554 19.8946 2.49247 20.3164 2.46611C20.1571 2.40211 20.17 2.12349 20.2949 2.08961L20.3637 2.33057C20.4326 2.17244 20.226 2.24774 20.3766 2.05196C20.5359 2.07078 20.5058 2.32304 20.4197 2.40964L20.6048 2.31175C20.622 2.38328 20.5789 2.4247 20.5746 2.51883C20.6435 2.36069 20.9233 2.74473 21.018 2.46988L21.0352 2.54142C21.457 2.51506 21.6421 2.41717 21.9865 2.39458C21.9779 2.18374 22.1156 2.22515 22.2103 2.05196C22.4686 2.1122 22.7613 2.26657 23.0626 2.23645C23.2735 2.12349 23.1142 2.05572 23.2046 1.92771C23.2304 2.11973 23.5361 2.08961 23.3854 2.23645C23.7513 2.19127 23.8503 2.17997 24.3108 2.00678C24.2592 1.93148 24.1989 1.89759 24.2247 1.82982C24.3065 1.79593 24.4184 1.90512 24.4098 1.99548L24.3883 2.01807C24.9005 1.70934 25.6108 2.53765 26.0111 2.11973L25.9895 2.14232C26.1316 2.06702 26.2736 1.99925 26.4157 1.92771C26.6137 1.9616 26.2995 2.07455 26.4501 2.19127C26.9064 1.86747 27.1819 2.23268 27.5606 2.01807C27.8619 2.5866 28.6109 1.97289 29.0112 2.33434L28.9897 2.1988C29.093 2.06702 29.1145 2.2741 29.192 2.30422C29.1791 2.1988 29.0801 2.18374 29.1446 2.1122C30.0184 1.9503 30.9482 2.28539 31.8392 2.44729C32.1663 2.49247 32.0415 1.75828 32.4461 2.08961L32.3213 2.33434C32.9927 2.05572 33.6685 2.38328 34.3271 2.14608C34.2841 2.20256 34.2798 2.27786 34.2195 2.2741C34.3486 2.45858 34.7231 2.29669 34.7317 2.14985C34.8307 2.16867 34.7489 2.28539 34.8092 2.36069C34.9426 2.46988 35.1665 2.13855 35.2267 2.32304C35.2396 2.35316 35.1837 2.37952 35.1578 2.39458C35.2525 2.30798 35.5711 2.42846 35.4979 2.21762C35.7346 2.32681 35.9671 2.13479 36.1522 2.27033C36.2942 2.04443 36.5611 2.40964 36.6213 2.08208C36.5826 2.42093 37.0303 2.38328 37.1938 2.23268C37.1336 2.33057 37.3186 2.3494 37.2498 2.48494C37.4263 2.49247 37.5898 2.43976 37.5726 2.2628C37.8653 2.68825 38.2441 1.97666 38.3861 2.50753C38.9199 2.35693 39.4106 2.2628 39.8884 2.21386C39.841 2.55271 39.3675 2.21386 39.3546 2.57154C39.8109 2.45858 40.095 2.18373 40.5254 2.29669C40.633 2.3494 40.4479 2.43976 40.4006 2.49624C40.8568 2.38705 41.2528 2.57154 41.6661 2.43223C41.6618 2.46235 41.6144 2.49247 41.5714 2.51506C41.6488 2.5113 41.7478 2.58283 41.7521 2.42846L41.6704 2.46235C41.5714 2.22515 42.0276 2.02937 42.0578 1.91265C41.877 2.3381 42.4365 2.06325 42.1611 2.59789C42.217 2.5753 42.2859 2.50753 42.2859 2.40211C42.3591 2.43976 42.3763 2.50377 42.2859 2.61295C42.5743 2.55648 42.4925 2.38328 42.7465 2.4134C42.7378 2.4887 42.6819 2.5113 42.6475 2.59789C42.7895 2.46611 42.9358 2.33434 43.1425 2.41717C43.1252 2.46235 43.1425 2.52259 43.0779 2.51506C43.4438 2.53012 43.7494 2.19127 44.1325 2.37199C43.9732 2.68449 44.253 2.49247 44.2401 2.77485L44.4682 2.71461L44.3993 2.57154C44.5887 2.59413 44.7824 2.40964 44.9331 2.51506L44.7781 2.61672L45.1397 2.59789L44.9546 2.47364C45.1655 2.3494 44.9847 2.11973 45.2258 2.22139C45.1698 2.24398 45.4152 2.24398 45.4883 2.41717C45.5959 2.3381 45.7036 2.25527 45.8327 2.3381C45.8542 2.43223 45.7595 2.64307 45.7724 2.70708C45.8973 2.48494 46.2244 2.68825 46.3793 2.45105C46.332 2.50377 46.3062 2.6506 46.3148 2.68449L46.4224 2.50377C46.4999 2.57154 46.5085 2.60542 46.4783 2.71837C46.7366 2.77861 46.4482 2.35693 46.7366 2.54142C46.7108 2.55271 46.7151 2.58283 46.6634 2.60542C46.9647 2.71084 47.2876 2.54895 47.5587 2.68825C47.5975 2.98193 47.2962 2.72214 47.3564 2.97063C47.7783 2.97816 48.2647 2.75602 48.6564 2.87651L48.5875 2.83509C48.7123 2.44729 48.85 3.07229 49.0868 2.91416C49.0308 2.93675 48.9835 3.125 49.005 3.08358C49.2676 3.18524 49.5818 3.06476 50.0208 3.00075L49.952 3.09488C50.0983 3.20783 50.3695 3.20783 50.5331 3.27937C50.6019 3.18524 50.7009 3.21536 50.6665 3.06099C51.0926 3.71235 51.7555 2.8991 52.1343 3.44503C52.0783 3.4375 51.9793 3.5128 52.0267 3.52033L52.4528 3.48268C52.4571 3.30572 52.4227 3.36973 52.3624 3.22666C52.4356 3.13253 52.5647 3.06852 52.668 3.08358C52.4614 3.17018 52.6121 3.35843 52.6723 3.46386C52.668 3.41114 52.7111 3.35467 52.7154 3.30196C52.8617 3.63705 52.823 2.95934 53.0726 3.2116L53.0382 3.29819C53.1544 3.27184 53.2792 3.17018 53.3912 3.21913C53.3955 3.4262 53.2577 3.29066 53.2147 3.45256C53.3782 3.47139 53.6193 3.1363 53.7226 3.3622C53.6408 3.40361 53.5418 3.38855 53.46 3.42997C53.5719 3.69352 53.6021 3.63705 53.714 3.69352L53.7054 3.68599L53.9593 3.84036L53.9034 3.76506C54.2219 3.2869 54.3381 3.74623 54.6911 3.46009C54.351 3.73117 54.605 3.63705 54.5318 3.85542C54.5878 3.93072 54.6782 4.02108 54.6351 4.07756C54.8073 3.91943 54.8202 4.25828 55.0613 4.02861C55.0526 4.10392 55.199 4.0625 55.1258 4.23569C55.3066 4.20934 55.1172 4.10392 55.1517 4.01732C55.4702 3.82154 55.6897 4.42771 56.146 4.16039C56.5032 4.08133 56.6194 3.85166 56.9509 3.78389C57.024 3.91566 56.8045 4.02861 56.8045 4.02861C56.9423 4.16416 57.0671 4.16792 57.2436 4.11521C57.1962 4.17169 57.2134 4.23193 57.2436 4.31852C57.3727 4.32229 57.3942 4.0738 57.5277 4.20934C57.4803 4.28464 57.4114 4.40512 57.3297 4.47289C57.4932 4.43524 57.6697 4.32605 57.8376 4.2884C57.8462 4.42018 57.6998 4.4616 57.6224 4.53313C57.8074 4.50678 58.0872 4.49925 58.1948 4.31099L58.1045 4.22063C58.169 4.2244 58.0915 4.39759 58.0356 4.42395C57.8505 4.55196 57.8462 4.31852 57.8548 4.24322L57.9753 4.21687C57.9753 3.77636 57.5277 4.20557 57.3167 4.14157L57.4846 3.85166L57.2005 4.06627C57.1747 3.97967 57.1833 3.80271 57.3038 3.77636C57.1876 3.59563 57.1403 3.85919 57.0499 3.66717C57.0413 3.63705 57.0542 3.62575 57.0671 3.61446L56.8906 3.67846C56.938 3.61822 56.9207 3.45633 57.0025 3.52033C56.7744 3.29443 56.5075 3.66717 56.4602 3.41867L56.4688 3.38855C56.0642 3.42244 56.3784 3.60693 56.0297 3.81777L55.9738 3.22666L55.8834 3.44503C55.8447 3.42997 55.7715 3.39985 55.8102 3.30949C55.6294 3.4375 55.8102 3.41114 55.694 3.54292C55.5563 3.30196 55.156 3.54292 55.1947 3.17771C55.0871 3.33584 55.3453 3.34337 55.1172 3.4262C55.1473 3.03087 54.8719 3.4488 54.7384 3.24172C54.8374 3.05346 54.9752 3.18901 54.846 2.97816C54.6653 3.29443 54.5275 2.84262 54.3683 2.88027C54.2994 3.14759 54.0282 2.93298 53.7656 2.97816C53.8001 2.89157 53.3395 2.74473 53.1329 2.60919L53.1501 2.56401C53.0468 2.83133 52.823 2.74473 52.6422 2.77861C52.6809 2.61672 52.7283 2.55648 52.8359 2.49624L52.6723 2.47364C52.6164 2.55648 52.5561 2.59413 52.4442 2.60919L52.526 2.4134C52.3065 2.39458 52.0439 2.59036 51.7942 2.41717C51.7426 2.60542 51.9062 2.97816 51.5919 3.06099C51.6005 2.95557 51.6264 2.77861 51.7081 2.74849C51.6823 2.75979 51.6005 2.82003 51.5618 2.77108L51.7125 2.61295C51.6005 2.51883 51.6178 2.74849 51.5231 2.71837C51.5532 2.57154 51.4714 2.60166 51.5058 2.4887C51.536 2.47741 51.5833 2.56024 51.6307 2.5113C51.5231 2.46988 51.4025 2.36446 51.381 2.24398C51.3767 2.33057 51.3423 2.43976 51.2562 2.44729C51.041 2.42846 51.2175 2.25904 51.1055 2.16867C51.0324 2.2628 50.9161 2.13855 50.8731 2.35693C50.8085 2.34563 50.8171 2.24398 50.8042 2.17997C50.6751 2.25904 50.2791 2.13479 50.3609 2.38705L50.3867 2.40587C50.3824 2.40964 50.3738 2.40964 50.3652 2.4134C49.9606 2.57907 49.6334 2.18373 49.2547 2.22515L49.2676 2.14985C49.0394 2.20256 48.7812 2.13102 48.6004 2.26657C48.5358 2.25904 48.4713 2.1122 48.5143 2.0256C48.3421 2.05949 48.3077 2.13855 48.0882 1.98419C48.2733 1.87877 48.0494 1.8637 48.2733 1.91265C48.071 1.81852 48.0408 1.69428 47.7783 1.8637C47.8859 1.68675 47.6534 1.60392 47.5458 1.64533L47.675 1.7997C47.5544 1.81099 47.4597 1.78087 47.3607 1.75075L47.4554 1.50979C47.0594 1.14834 46.5816 1.93901 46.3191 1.39684C46.177 1.55874 46.5429 1.54367 46.4052 1.73569C46.2072 1.68298 46.0479 1.30271 45.9833 1.29518C45.7251 1.12952 45.6691 1.63027 45.3936 1.50979C45.4195 1.60392 45.4195 1.84111 45.1913 1.90512C44.9933 1.85241 44.9933 1.50602 45.1311 1.44955C45.1827 1.44578 45.1999 1.4759 45.1956 1.50602C45.2645 1.47967 45.3592 1.44955 45.2903 1.34789L45.2516 1.43449C45.1612 1.33283 44.8814 1.31401 44.9675 1.1747C44.8039 1.24247 44.8814 1.31401 44.989 1.37048C44.7437 1.21611 44.5801 1.3253 44.3262 1.21235C44.3606 1.26506 44.3864 1.37425 44.3477 1.37048C43.9689 1.21988 44.154 1.52108 43.8828 1.53238C43.7494 1.38178 43.9775 1.21611 43.6934 1.30271C43.5428 1.19352 43.6891 1.06175 43.7623 0.997741C43.4954 1.14458 43.3189 0.839608 43.1812 0.794428L43.3189 0.734187C43.2371 0.768072 43.1726 0.760542 43.108 0.753012L43.1597 0.9375C43.0865 0.899849 43.0219 0.892319 43.0348 0.817018C42.9445 0.926205 43.0607 1.11822 42.8842 1.2613C42.7938 1.15964 42.5657 1.32907 42.5571 1.0881C42.867 1.20105 42.5485 0.847139 42.8239 0.835843C42.768 0.858434 42.7034 0.850904 42.6345 0.813253C42.6259 0.786898 42.6518 0.764307 42.6733 0.753012C42.3935 0.512048 42.5011 1.00527 42.1869 0.96762C42.2428 0.839608 42.1438 0.707831 42.0879 0.730422C42.2127 0.745482 42.1223 0.96009 41.9975 1.05045C41.8081 0.926205 41.7694 1.10693 41.6661 1.08434L41.7823 1.14458C41.7263 1.27636 41.6273 1.24247 41.4853 1.27636C41.4853 1.17093 41.6187 1.21611 41.5757 1.1634C41.3949 1.38554 41.2485 0.899849 41.0118 1.04292C40.9214 0.94503 41.029 0.790663 40.9429 0.726657C40.6804 0.884789 40.6933 0.527108 40.4221 0.65512C40.4781 0.839608 40.4953 0.794428 40.2973 0.96009L40.732 0.862199L40.435 1.10693C40.5641 1.11822 40.7148 1.0128 40.788 1.04669C40.6459 1.18599 40.6631 1.14081 40.7062 1.29142C40.5598 1.0128 40.3446 1.42696 40.1595 1.23117L40.2069 0.786898C39.9185 0.568524 39.6473 0.978916 39.2599 0.843374L39.3804 0.92997C39.3116 1.10316 39.1351 0.9375 39.0017 1.00151C39.0275 0.854669 38.95 0.794428 38.9026 0.700301C38.8983 0.809488 38.6143 0.670181 38.554 0.96762L38.3947 0.760542C38.0805 0.658886 37.9987 1.15964 37.6974 1.09187C37.8007 0.9375 37.6716 0.820783 37.8825 0.719127C37.7792 0.711596 37.6888 0.677711 37.6802 0.779367C37.6286 0.681476 37.3832 0.96009 37.2971 0.813253C37.2498 0.877259 37.2239 1.03163 37.112 1.00904C37.1034 0.978916 37.1163 0.9375 37.1163 0.9375C37.112 1.00904 36.9312 1.0241 37.0173 1.19729C36.7332 0.719127 36.1392 1.16717 35.8896 0.768072C35.6615 0.813253 35.3903 0.850904 35.188 0.858434C35.2052 0.813253 35.1923 0.783133 35.231 0.801958C34.9598 0.655121 35.0373 1.22364 34.7274 1.06175C34.5768 0.817018 34.9039 0.9375 34.8049 0.843374C34.7834 0.353916 34.4175 0.899849 34.2152 0.606175L34.2668 0.579819C34.1076 0.410392 33.8579 0.753012 33.5911 0.711596C33.5911 0.711596 33.604 0.670181 33.5954 0.636295C33.4017 0.881024 33.053 0.95256 32.7948 1.01657C32.8808 0.828313 32.9153 0.918675 32.8722 0.722892C32.756 0.745482 32.8981 1.03539 32.6656 1.08434C32.5924 0.978916 32.4289 0.881024 32.416 0.673946L32.6355 0.670181C32.5322 0.399096 32.3557 0.670181 32.2395 0.621235L32.2567 0.504518C31.921 0.534639 31.9124 0.828313 31.5551 0.798193L31.5895 0.888554C31.3872 1.1747 31.4303 0.719127 31.2323 0.92997L31.1763 0.63253C31.0472 0.696536 30.72 0.911145 30.4876 0.971386C30.621 0.753012 30.8922 0.63253 31.0644 0.508283C30.9353 0.496988 30.6297 0.527108 30.5608 0.673946C30.6124 0.643825 30.677 0.572289 30.7287 0.61747C30.5694 0.850904 30.3628 0.96762 30.1088 0.963855C30.1648 0.387801 29.4546 0.824548 29.2695 0.376506C28.8175 0.591114 28.3742 0.28991 27.8447 0.32756C28.0384 0.775602 27.6898 0.342621 27.7285 0.801958C27.608 0.832078 27.5606 0.824548 27.5477 0.794428L27.1732 0.519578C27.0829 0.387801 27.2895 0.417922 27.2765 0.3125C27.0054 0.28238 27.1603 0.120482 26.9795 0C27.0183 0.165663 26.8892 0.237199 26.7342 0.173193L26.9537 0.384036C26.5878 0.63253 26.6223 0 26.2478 0.244729L26.364 0.0978916C26.1703 0.180723 25.6452 0.109187 25.4687 0.485693C25.4343 0.432982 25.3826 0.308735 25.4687 0.274849C24.9995 0.237199 24.4529 0.704066 24.0827 0.489458L24.1128 0.376506C24.0267 0.410392 23.9708 0.59488 23.8589 0.485693C23.8632 0.440512 23.889 0.372741 23.8503 0.365211C23.8072 0.406627 23.6307 0.572289 23.5102 0.508283L23.6006 0.376506C23.14 0.244729 22.9205 0.711596 22.5504 0.801958C22.5331 0.470633 22.1716 0.376506 21.9865 0.32756L21.9908 0.278614C21.4613 0.252259 21.1127 0.59488 20.6349 0.756777C20.3078 0.417922 19.6019 0.673946 19.0982 0.504518C19.1757 0.560994 19.1069 0.764307 19.0251 0.801958C18.9045 0.749247 18.7281 1.05798 18.7195 0.753012L18.7625 0.756777C18.6506 0.466867 18.4225 0.560994 18.2374 0.564759L18.246 0.963855C17.7122 0.414157 17.0149 1.25753 16.7007 0.771837C16.5974 0.881024 16.4554 0.892319 16.3521 1.00151L16.3348 0.790663C16.0077 0.764307 15.8484 0.753012 15.4567 0.843374L15.5213 0.685241C15.2975 0.692771 15.3147 1.32154 15.1124 1.35542L15.0134 1.04292C14.626 1.08434 14.1956 0.843373 13.8512 1.1634C13.8512 1.11822 13.8512 1.0241 13.9115 1.00527C13.7264 1.0128 13.1754 0.858434 13.3003 1.28765C13.2572 1.00527 12.8956 1.30648 12.7063 1.45708V1.24623C12.5685 1.53238 12.5728 1.60768 12.3404 1.70934C12.2801 1.69051 12.2629 1.54744 12.349 1.59262C12.1381 1.50602 12.2285 1.80723 11.9745 1.7244L12.0434 1.58133C11.8411 1.58886 11.8669 1.65663 11.7808 1.82605C11.6689 1.92395 11.3934 1.81852 11.3332 1.63404C11.3246 1.75075 11.2385 1.91642 11.1136 1.87876C11.0878 1.81099 11.1222 1.76205 11.1395 1.73569C10.7822 1.63404 10.6832 2.0369 10.4206 1.85994C10.4034 1.79217 10.3819 1.75828 10.3604 1.73946C10.6272 1.7131 10.8425 1.69804 10.8252 1.71687C10.7951 1.52485 10.5713 1.51732 10.7004 1.23117C10.5498 1.39684 10.3087 1.74322 10.0849 1.67922C10.072 1.66039 10.0591 1.64533 10.0462 1.61521L10.0634 1.59262C10.0117 1.57756 9.97298 1.60392 9.93855 1.64157C9.86537 1.61898 9.82233 1.60392 9.75776 1.60768C9.70611 1.45331 9.49519 1.55873 9.38759 1.56626C9.43493 1.77334 9.28859 1.76205 9.44785 1.91642C9.42632 1.90512 9.46506 1.89006 9.53393 1.87123C9.54685 1.8637 9.56837 1.85617 9.57698 1.84488L9.57267 1.8637C9.64154 1.84864 9.73194 1.82982 9.83524 1.81099C9.77067 1.92771 9.6975 2.03313 9.55976 1.93148C9.52532 2.06702 9.49089 2.21386 9.46937 2.28539C9.27137 2.01431 8.96145 1.89759 8.88828 1.7244C8.58267 1.89006 8.13501 1.91265 8.00588 2.33434C7.9241 2.39834 7.87675 2.23645 7.8294 2.17997C7.87675 2.13479 7.94132 2.13102 7.95853 2.07078C7.79497 2.1988 7.42049 2.1875 7.4291 2.46988C7.17084 2.37952 7.51088 2.1988 7.19666 2.28916L7.22249 2.1988C6.50366 1.85994 6.353 3.06476 5.53517 2.61672C5.59113 2.64307 5.61696 2.65437 5.63848 2.69955C4.79052 2.57907 4.06738 3.2116 3.1936 2.97063C2.96116 2.92922 2.98268 3.10994 2.88368 3.26431L2.77607 3.05346L2.61251 3.35467C2.34133 3.60693 1.90229 2.92922 1.58376 3.36973L1.67846 3.50527C1.5235 3.50904 1.23511 3.69352 1.21359 3.51657C1.20498 3.54669 1.20928 3.68223 1.1275 3.61822L1.08876 3.50151L0.78315 3.78012C0.481844 3.76506 0.692758 3.31702 0.27093 3.38855C0.128886 3.46762 -0.0648108 3.82907 0.0212766 3.89307C0.0858422 3.88178 0.20206 3.92696 0.245104 4.03991L0.124581 4.13404C0.210669 4.47666 0.232191 4.84563 0.623888 5.00377C0.675541 4.91717 0.731498 4.83057 0.787454 4.74398L0.912281 4.89081L0.722889 4.94729C0.882151 5.0753 0.907977 4.9247 0.959629 4.81175C1.00267 4.89458 1.05433 4.94729 1.11028 4.96988L1.23941 4.59337C1.30398 4.72139 1.21359 4.87952 1.39007 4.91717C1.45033 4.74398 1.20067 4.64232 1.34702 4.50301C1.50198 4.63102 1.50628 4.7628 1.60098 4.60467C1.64402 4.6875 1.63111 4.75151 1.59237 4.80045C1.67846 4.67244 1.88937 4.69127 1.89798 4.49925C2.07016 4.66491 2.28107 4.36747 2.35855 4.69127C2.37577 4.60467 2.49629 4.39383 2.59959 4.35994C2.5049 4.78916 3.00851 4.2997 3.06447 4.72515C3.12042 4.34864 3.55086 4.46913 3.76177 4.22816C3.75317 4.25828 3.74025 4.31852 3.71443 4.30723C3.86938 4.30723 3.93825 4.40512 4.04586 4.45407C3.99421 4.16039 4.20512 4.05497 4.28691 3.85166C4.53226 4.09639 4.26108 4.2131 4.3816 4.46913C4.31704 4.23569 4.63556 4.17545 4.52795 3.99473C4.70443 4.14157 4.66569 4.05497 4.79482 4.28087C4.73456 3.91566 4.90674 4.19428 4.9713 3.95331C5.21235 4.10015 5.10043 4.28464 5.29413 4.1378C5.42326 4.2244 5.2597 4.38253 5.2597 4.38253ZM10.3604 2.95934C10.3604 2.9631 10.3604 2.9631 10.3604 2.9631C10.3173 2.9744 10.2786 2.98193 10.2528 2.98946C10.2786 2.98193 10.3087 2.9744 10.3604 2.95934ZM10.8037 2.90286C10.7478 2.90286 10.6789 2.90663 10.61 2.91792C10.5842 2.84639 10.5885 2.77108 10.6315 2.77108C10.6186 2.82003 10.7305 2.85015 10.8037 2.90286ZM9.61141 1.5738C9.67598 1.53238 9.70611 1.57003 9.72333 1.61145C9.68889 1.61898 9.65446 1.63404 9.6028 1.65286C9.6028 1.66039 9.5985 1.67169 9.5985 1.67922C9.6028 1.64157 9.6028 1.60392 9.61141 1.5738Z" fill="#FF7E84"/>
<path d="M9.53364 1.86788C9.52503 1.87165 9.52073 1.88294 9.50781 1.88671C9.52503 1.90177 9.54225 1.91683 9.55946 1.92812C9.56377 1.90553 9.56807 1.88294 9.57238 1.86035C9.55946 1.86035 9.54655 1.86412 9.53364 1.86788Z" fill="#FF7E84"/>
<path d="M50.3612 2.38741L50.3516 2.37988C50.3564 2.38741 50.366 2.39871 50.366 2.41377C50.3612 2.40247 50.3612 2.39494 50.3612 2.38741Z" fill="#FF7E84"/>
<path d="M16.9906 2.66209L16.9864 2.60938L16.9531 2.65832L16.9906 2.66209Z" fill="#FF7E84"/>
<path d="M52.6641 3.44922C52.6641 3.46804 52.6684 3.48687 52.6859 3.5057C52.6903 3.4944 52.6772 3.47181 52.6641 3.44922Z" fill="#FF7E84"/>
<path d="M53.7031 3.6748L53.8366 3.77646C53.7806 3.72375 53.7376 3.69363 53.7031 3.6748Z" fill="#FF7E84"/>
<path d="M54.4766 3.92742C54.4932 3.89353 54.5015 3.86718 54.5099 3.84082L54.4766 3.92742Z" fill="#FF7E84"/>
<path d="M41.5706 2.51172C41.5577 2.51172 41.549 2.51172 41.5361 2.51925C41.463 2.54937 41.5146 2.53807 41.5706 2.51172Z" fill="#FF7E84"/>
<path d="M45.4815 2.40625C45.4341 2.44014 45.3911 2.47402 45.3438 2.49285C45.4083 2.51544 45.46 2.52673 45.4815 2.40625Z" fill="#FF7E84"/>
<path d="M37.245 2.48521L37.2188 2.48145L37.245 2.48521Z" fill="#FF7E84"/>
<path d="M45.1641 2.4703C45.2286 2.51925 45.2846 2.51549 45.3448 2.49289C45.2889 2.47407 45.2243 2.44395 45.1641 2.4703Z" fill="#FF7E84"/>
<path d="M57.9297 4.6614L57.963 4.67646C57.9671 4.6614 57.9713 4.65387 57.9754 4.64258L57.9297 4.6614Z" fill="#FF7E84"/>
<path d="M57.9844 4.64584L58.0301 4.63078C58.0135 4.62701 57.9969 4.62325 57.9844 4.64584Z" fill="#FF7E84"/>
<path d="M58.1346 4.59375L58.0312 4.62764C58.0614 4.63517 58.1001 4.65023 58.1346 4.59375Z" fill="#FF7E84"/>
<path d="M56.8963 4.37109L56.8672 4.44263C56.8797 4.43134 56.888 4.40498 56.8963 4.37109Z" fill="#FF7E84"/>
<path d="M56.5703 4.33382C56.6435 4.36394 56.7253 4.5296 56.8415 4.50325L56.8673 4.44677C56.7898 4.54466 56.6736 4.22087 56.5703 4.33382Z" fill="#FF7E84"/>
<path d="M55.4375 3.15478L55.6958 3.26397C55.6656 3.17361 55.6312 3.05689 55.7603 3.06066C55.4719 2.75945 55.7861 3.25268 55.4375 3.15478Z" fill="#FF7E84"/>
<path d="M54.6206 2.88358C54.7755 2.87228 54.6464 2.76686 54.6636 2.72168C54.5517 2.77816 54.5259 2.79322 54.6206 2.88358Z" fill="#FF7E84"/>
<path d="M48.4625 1.94997L48.5082 1.76172C48.3959 1.77301 48.4957 1.83325 48.4625 1.94997Z" fill="#FF7E84"/>
<path d="M47.125 2.76743L47.2154 2.90297L47.2972 2.7373L47.125 2.76743Z" fill="#FF7E84"/>
<path d="M46.6428 1.33704L46.6945 1.31445L46.4922 1.3634L46.6428 1.33704Z" fill="#FF7E84"/>
<path d="M36.1484 0.553804L36.17 0.791002C36.2517 0.757117 36.2819 0.489798 36.1484 0.553804Z" fill="#FF7E84"/>
<path d="M31.6055 0.666526C31.5582 0.546044 31.4333 0.466977 31.3516 0.579929C31.4549 0.602519 31.5539 0.696646 31.6055 0.666526Z" fill="#FF7E84"/>
<path d="M17.988 0.677417L18.0741 0.59082L17.9062 0.669887L17.988 0.677417Z" fill="#FF7E84"/>
</g>
<defs>
<clipPath id="clip0_201_1670">
<rect width="59" height="5" fill="white"/>
</clipPath>
</defs>
</svg>
