<svg width="32" height="32" viewBox="0 0 32 32" fill="none" xmlns="http://www.w3.org/2000/svg">
<path d="M28.3337 24.6265L26.1337 25.1465C25.6403 25.2665 25.2537 25.6398 25.147 26.1332L24.6803 28.0932C24.427 29.1598 23.067 29.4932 22.3603 28.6532L18.3737 24.0665C18.0537 23.6932 18.227 23.1065 18.707 22.9865C21.067 22.4132 23.187 21.0932 24.747 19.2132C25.0003 18.9065 25.4537 18.8665 25.7337 19.1465L28.6937 22.1065C29.707 23.1198 29.347 24.3865 28.3337 24.6265Z" fill="#FF7E84"/>
<path d="M3.59631 24.6265L5.79631 25.1465C6.28964 25.2665 6.67631 25.6398 6.78298 26.1332L7.24964 28.0932C7.50298 29.1598 8.86298 29.4932 9.56964 28.6532L13.5563 24.0665C13.8763 23.6932 13.703 23.1065 13.223 22.9865C10.863 22.4132 8.74298 21.0932 7.18298 19.2132C6.92964 18.9065 6.47631 18.8665 6.19631 19.1465L3.23631 22.1065C2.22298 23.1198 2.58298 24.3865 3.59631 24.6265Z" fill="#FF7E84"/>
<path d="M15.9974 2.66699C10.8374 2.66699 6.66406 6.84033 6.66406 12.0003C6.66406 13.9337 7.2374 15.707 8.22406 17.187C9.66406 19.3203 11.9441 20.827 14.5974 21.2137C15.0507 21.2937 15.5174 21.3337 15.9974 21.3337C16.4774 21.3337 16.9441 21.2937 17.3974 21.2137C20.0507 20.827 22.3307 19.3203 23.7707 17.187C24.7574 15.707 25.3307 13.9337 25.3307 12.0003C25.3307 6.84033 21.1574 2.66699 15.9974 2.66699ZM20.0774 11.707L18.9707 12.8137C18.7841 13.0003 18.6774 13.3603 18.7441 13.627L19.0641 15.0003C19.3174 16.0803 18.7441 16.507 17.7841 15.9337L16.4507 15.147C16.2107 15.0003 15.8107 15.0003 15.5707 15.147L14.2374 15.9337C13.2774 16.4937 12.7041 16.0803 12.9574 15.0003L13.2774 13.627C13.3307 13.3737 13.2374 13.0003 13.0507 12.8137L11.9174 11.707C11.2641 11.0537 11.4774 10.4003 12.3841 10.2537L13.8107 10.0137C14.0507 9.97366 14.3307 9.76033 14.4374 9.54699L15.2241 7.97366C15.6507 7.12033 16.3441 7.12033 16.7707 7.97366L17.5574 9.54699C17.6641 9.76033 17.9441 9.97366 18.1974 10.0137L19.6241 10.2537C20.5174 10.4003 20.7307 11.0537 20.0774 11.707Z" fill="#FF7E84"/>
</svg>
