<svg width="128" height="24" viewBox="0 0 128 24" fill="none" xmlns="http://www.w3.org/2000/svg">
<path d="M17.9189 14.32C17.6599 14.571 17.5409 14.934 17.5999 15.29L18.4889 20.21C18.5639 20.627 18.3879 21.049 18.0389 21.29C17.6969 21.54 17.2419 21.57 16.8689 21.37L12.4399 19.06C12.2859 18.978 12.1149 18.934 11.9399 18.929H11.6689C11.5749 18.943 11.4829 18.973 11.3989 19.019L6.96888 21.34C6.74988 21.45 6.50188 21.489 6.25888 21.45C5.66688 21.338 5.27188 20.774 5.36888 20.179L6.25888 15.259C6.31788 14.9 6.19888 14.535 5.93988 14.28L2.32888 10.78C2.02688 10.487 1.92188 10.047 2.05988 9.65C2.19388 9.254 2.53588 8.965 2.94888 8.9L7.91888 8.179C8.29688 8.14 8.62888 7.91 8.79888 7.57L10.9889 3.08C11.0409 2.98 11.1079 2.888 11.1889 2.81L11.2789 2.74C11.3259 2.688 11.3799 2.645 11.4399 2.61L11.5489 2.57L11.7189 2.5H12.1399C12.5159 2.539 12.8469 2.764 13.0199 3.1L15.2389 7.57C15.3989 7.897 15.7099 8.124 16.0689 8.179L21.0389 8.9C21.4589 8.96 21.8099 9.25 21.9489 9.65C22.0799 10.051 21.9669 10.491 21.6589 10.78L17.9189 14.32Z" fill="#FFBC1F"/>
<path d="M43.9189 14.32C43.6599 14.571 43.5409 14.934 43.5999 15.29L44.4889 20.21C44.5639 20.627 44.3879 21.049 44.0389 21.29C43.6969 21.54 43.2419 21.57 42.8689 21.37L38.4399 19.06C38.2859 18.978 38.1149 18.934 37.9399 18.929H37.6689C37.5749 18.943 37.4829 18.973 37.3989 19.019L32.9689 21.34C32.7499 21.45 32.5019 21.489 32.2589 21.45C31.6669 21.338 31.2719 20.774 31.3689 20.179L32.2589 15.259C32.3179 14.9 32.1989 14.535 31.9399 14.28L28.3289 10.78C28.0269 10.487 27.9219 10.047 28.0599 9.65C28.1939 9.254 28.5359 8.965 28.9489 8.9L33.9189 8.179C34.2969 8.14 34.6289 7.91 34.7989 7.57L36.9889 3.08C37.0409 2.98 37.1079 2.888 37.1889 2.81L37.2789 2.74C37.3259 2.688 37.3799 2.645 37.4399 2.61L37.5489 2.57L37.7189 2.5H38.1399C38.5159 2.539 38.8469 2.764 39.0199 3.1L41.2389 7.57C41.3989 7.897 41.7099 8.124 42.0689 8.179L47.0389 8.9C47.4589 8.96 47.8099 9.25 47.9489 9.65C48.0799 10.051 47.9669 10.491 47.6589 10.78L43.9189 14.32Z" fill="#CFCFCF"/>
<path d="M69.9189 14.32C69.6599 14.571 69.5409 14.934 69.5999 15.29L70.4889 20.21C70.5639 20.627 70.3879 21.049 70.0389 21.29C69.6969 21.54 69.2419 21.57 68.8689 21.37L64.4399 19.06C64.2859 18.978 64.1149 18.934 63.9399 18.929H63.6689C63.5749 18.943 63.4829 18.973 63.3989 19.019L58.9689 21.34C58.7499 21.45 58.5019 21.489 58.2589 21.45C57.6669 21.338 57.2719 20.774 57.3689 20.179L58.2589 15.259C58.3179 14.9 58.1989 14.535 57.9399 14.28L54.3289 10.78C54.0269 10.487 53.9219 10.047 54.0599 9.65C54.1939 9.254 54.5359 8.965 54.9489 8.9L59.9189 8.179C60.2969 8.14 60.6289 7.91 60.7989 7.57L62.9889 3.08C63.0409 2.98 63.1079 2.888 63.1889 2.81L63.2789 2.74C63.3259 2.688 63.3799 2.645 63.4399 2.61L63.5489 2.57L63.7189 2.5H64.1399C64.5159 2.539 64.8469 2.764 65.0199 3.1L67.2389 7.57C67.3989 7.897 67.7099 8.124 68.0689 8.179L73.0389 8.9C73.4589 8.96 73.8099 9.25 73.9489 9.65C74.0799 10.051 73.9669 10.491 73.6589 10.78L69.9189 14.32Z" fill="#CFCFCF"/>
<path d="M95.9189 14.32C95.6599 14.571 95.5409 14.934 95.5999 15.29L96.4889 20.21C96.5639 20.627 96.3879 21.049 96.0389 21.29C95.6969 21.54 95.2419 21.57 94.8689 21.37L90.4399 19.06C90.2859 18.978 90.1149 18.934 89.9399 18.929H89.6689C89.5749 18.943 89.4829 18.973 89.3989 19.019L84.9689 21.34C84.7499 21.45 84.5019 21.489 84.2589 21.45C83.6669 21.338 83.2719 20.774 83.3689 20.179L84.2589 15.259C84.3179 14.9 84.1989 14.535 83.9399 14.28L80.3289 10.78C80.0269 10.487 79.9219 10.047 80.0599 9.65C80.1939 9.254 80.5359 8.965 80.9489 8.9L85.9189 8.179C86.2969 8.14 86.6289 7.91 86.7989 7.57L88.9889 3.08C89.0409 2.98 89.1079 2.888 89.1889 2.81L89.2789 2.74C89.3259 2.688 89.3799 2.645 89.4399 2.61L89.5489 2.57L89.7189 2.5H90.1399C90.5159 2.539 90.8469 2.764 91.0199 3.1L93.2389 7.57C93.3989 7.897 93.7099 8.124 94.0689 8.179L99.0389 8.9C99.4589 8.96 99.8099 9.25 99.9489 9.65C100.08 10.051 99.9669 10.491 99.6589 10.78L95.9189 14.32Z" fill="#CFCFCF"/>
<path d="M121.919 14.32C121.66 14.571 121.541 14.934 121.6 15.29L122.489 20.21C122.564 20.627 122.388 21.049 122.039 21.29C121.697 21.54 121.242 21.57 120.869 21.37L116.44 19.06C116.286 18.978 116.115 18.934 115.94 18.929H115.669C115.575 18.943 115.483 18.973 115.399 19.019L110.969 21.34C110.75 21.45 110.502 21.489 110.259 21.45C109.667 21.338 109.272 20.774 109.369 20.179L110.259 15.259C110.318 14.9 110.199 14.535 109.94 14.28L106.329 10.78C106.027 10.487 105.922 10.047 106.06 9.65C106.194 9.254 106.536 8.965 106.949 8.9L111.919 8.179C112.297 8.14 112.629 7.91 112.799 7.57L114.989 3.08C115.041 2.98 115.108 2.888 115.189 2.81L115.279 2.74C115.326 2.688 115.38 2.645 115.44 2.61L115.549 2.57L115.719 2.5H116.14C116.516 2.539 116.847 2.764 117.02 3.1L119.239 7.57C119.399 7.897 119.71 8.124 120.069 8.179L125.039 8.9C125.459 8.96 125.81 9.25 125.949 9.65C126.08 10.051 125.967 10.491 125.659 10.78L121.919 14.32Z" fill="#CFCFCF"/>
</svg>
