<svg width="24" height="24" viewBox="0 0 24 24" fill="none" xmlns="http://www.w3.org/2000/svg">
<g clip-path="url(#clip0_292_6298)">
<path d="M6.99656 7.56026C6.99656 6.62026 5.85656 6.14026 5.18656 6.81026L0.706562 11.2903C0.316563 11.6803 0.316563 12.3103 0.706562 12.7003L5.18656 17.1803C5.85656 17.8603 6.99656 17.3803 6.99656 16.4403C6.99656 16.1603 6.88656 15.8903 6.68656 15.6903L2.99656 12.0003L6.68656 8.31026C6.88656 8.11026 6.99656 7.84026 6.99656 7.56026ZM12.9966 9.00026V7.41026C12.9966 6.52026 11.9166 6.07026 11.2866 6.70026L6.69656 11.2903C6.30656 11.6803 6.30656 12.3103 6.69656 12.7003L11.2866 17.2903C11.9166 17.9203 12.9966 17.4703 12.9966 16.5803V14.9003C17.9966 14.9003 21.4966 16.5003 23.9966 20.0003C22.9966 15.0003 19.9966 10.0003 12.9966 9.00026Z" fill="#30BEAD"/>
</g>
<defs>
<clipPath id="clip0_292_6298">
<rect width="24" height="24" fill="white"/>
</clipPath>
</defs>
</svg>
