<svg width="72" height="72" viewBox="0 0 72 72" fill="none" xmlns="http://www.w3.org/2000/svg">
<rect width="72" height="72" rx="36" fill="#E3F9F6"/>
<g clip-path="url(#clip0_140_825)">
<path d="M39.4358 35.9992C39.4358 34.1001 37.8911 32.5625 35.9992 32.5625C34.1001 32.5625 32.5625 34.1072 32.5625 35.9992C32.5625 37.8982 34.1072 39.4358 35.9992 39.4358C37.8982 39.4358 39.4358 37.8982 39.4358 35.9992ZM35.9992 37.5652C35.1347 37.5652 34.4332 36.8637 34.4332 35.9992C34.4332 35.1347 35.1347 34.4332 35.9992 34.4332C36.8637 34.4332 37.5652 35.1347 37.5652 35.9992C37.5652 36.8637 36.8637 37.5652 35.9992 37.5652Z" fill="#30BEAD"/>
<path d="M51.0647 35.0647H49.4703C49.2507 31.8122 47.876 28.7865 45.5518 26.4553C43.2206 24.124 40.1949 22.7564 36.9424 22.5368V20.9353C36.9424 20.4181 36.5244 20 36.0071 20C35.4898 20 35.0717 20.4181 35.0717 20.9353V22.5297C31.8193 22.7493 28.7936 24.124 26.4624 26.4482C24.1311 28.7795 22.7635 31.8051 22.5438 35.0576H20.9353C20.4181 35.0647 20 35.4827 20 36C20 36.5173 20.4181 36.9353 20.9353 36.9353H22.5297C22.7493 40.1878 24.124 43.2135 26.4482 45.5447C28.7795 47.876 31.8051 49.2436 35.0576 49.4632V51.0576C35.0576 51.5748 35.4756 51.9929 35.9929 51.9929C36.5102 51.9929 36.9283 51.5748 36.9283 51.0576V49.4632C40.1807 49.2436 43.2064 47.8689 45.5376 45.5447C47.8689 43.2135 49.2365 40.1878 49.4562 36.9353H51.0505C51.5678 36.9353 51.9858 36.5173 51.9858 36C51.9858 35.4827 51.5819 35.0647 51.0647 35.0647ZM36.9424 24.4145C42.6041 24.868 47.1391 29.403 47.5926 35.0647H45.7077C45.2613 30.4376 41.5695 26.7387 36.9424 26.2994V24.4145ZM35.0647 24.4145V26.2994C30.4376 26.7387 26.7387 30.4376 26.2923 35.0647H24.4145C24.868 29.3959 29.3959 24.868 35.0647 24.4145ZM35.0647 47.5926C29.3959 47.132 24.868 42.6041 24.4145 36.9424H26.2994C26.7458 41.5695 30.4376 45.2684 35.0647 45.7077V47.5926ZM36 41.3782C35.4827 41.3782 35.0647 41.7963 35.0647 42.3136V43.8229C31.4721 43.3977 28.6094 40.535 28.1842 36.9424H29.6935C30.2108 36.9424 30.6289 36.5244 30.6289 36.0071C30.6289 35.4898 30.2108 35.0717 29.6935 35.0717H28.1842C28.6094 31.4792 31.4721 28.6165 35.0647 28.1913V29.7006C35.0647 30.2179 35.4827 30.636 36 30.636C36.5173 30.636 36.9353 30.2179 36.9353 29.7006V28.1913C40.5279 28.6165 43.3906 31.4792 43.8158 35.0717H42.3065C41.7892 35.0717 41.3711 35.4898 41.3711 36.0071C41.3711 36.5244 41.7892 36.9424 42.3065 36.9424H43.8158C43.3906 40.535 40.5279 43.3977 36.9353 43.8229V42.3136C36.9424 41.7963 36.5173 41.3782 36 41.3782ZM36.9424 47.5926V45.7077C41.5695 45.2613 45.2684 41.5695 45.7077 36.9424H47.5926C47.132 42.6041 42.6041 47.132 36.9424 47.5926Z" fill="#30BEAD"/>
</g>
<defs>
<clipPath id="clip0_140_825">
<rect width="32" height="32" fill="white" transform="translate(20 20)"/>
</clipPath>
</defs>
</svg>
