<svg xmlns="http://www.w3.org/2000/svg" width="21.209" height="19.201" viewBox="0 0 21.209 19.201">
  <defs>
    <style>
      .cls-1 {
        fill: #b1b1b1;
      }
    </style>
  </defs>
  <path id="Path_2635" data-name="Path 2635" class="cls-1" d="M278.159,321.009a.559.559,0,0,0-.558-.559l-6.027,0a4.563,4.563,0,0,0-4.016,2.434,4.562,4.562,0,0,0-4.017-2.431h0l-6.026,0a.557.557,0,0,0-.558.558l0,15.068a.559.559,0,0,0,.558.558l7.031,0A2.457,2.457,0,0,1,267,339.091a.558.558,0,1,0,1.117,0,2.458,2.458,0,0,1,2.454-2.455l7.031,0a.559.559,0,0,0,.558-.558ZM267,336.5a3.557,3.557,0,0,0-2.454-.98l-6.472,0,0-13.95h5.469A3.46,3.46,0,0,1,267,325.03Zm3.571-.982a3.567,3.567,0,0,0-2.454.981l0-11.47a3.463,3.463,0,0,1,3.459-3.46l5.467,0,0,13.949Z" transform="translate(-256.955 -320.45)"/>
</svg>
