<svg xmlns="http://www.w3.org/2000/svg" xmlns:xlink="http://www.w3.org/1999/xlink" width="360" height="95" viewBox="0 0 360 95">
  <defs>
    <style>
      .cls-1 {
        fill: #fff;
      }

      .cls-2 {
        fill: #cbcbcb;
      }

      .cls-3 {
        fill: #919191;
        font-size: 14px;
        font-family: SourceSansPro-Regular, Source Sans Pro;
        letter-spacing: 0.02em;
      }

      .cls-4 {
        filter: url(#Rectangle_640);
      }
    </style>
    <filter id="Rectangle_640" x="0" y="0" width="360" height="95" filterUnits="userSpaceOnUse">
      <feOffset dy="10" input="SourceAlpha"/>
      <feGaussianBlur stdDeviation="10" result="blur"/>
      <feFlood flood-opacity="0.102"/>
      <feComposite operator="in" in2="blur"/>
      <feComposite in="SourceGraphic"/>
    </filter>
  </defs>
  <g id="Group_12" data-name="Group 12" transform="translate(-475 -2842)">
    <g id="Group_11" data-name="Group 11" transform="translate(505 2862)">
      <g class="cls-4" transform="matrix(1, 0, 0, 1, -30, -20)">
        <rect id="Rectangle_640-2" data-name="Rectangle 640" class="cls-1" width="300" height="35" rx="10" transform="translate(30 20)"/>
      </g>
    </g>
    <path id="Icon_ionic-ios-arrow-round-forward" data-name="Icon ionic-ios-arrow-round-forward" class="cls-2" d="M21.688,11.511a.921.921,0,0,0-.007,1.3L25.965,17.1H13.784a.916.916,0,0,0,0,1.832H25.958l-4.284,4.291a.927.927,0,0,0,.007,1.3.912.912,0,0,0,1.29-.007l5.806-5.849h0a1.029,1.029,0,0,0,.19-.289.874.874,0,0,0,.07-.352.918.918,0,0,0-.261-.641l-5.806-5.849A.9.9,0,0,0,21.688,11.511Z" transform="translate(758.709 2861.684)"/>
    <text id="Sketch_freeb" data-name="Sketch freeb" class="cls-3" transform="translate(526.842 2884.848)"><tspan x="0" y="0">E-Posta Adresiniz</tspan></text>
  </g>
</svg>
