<svg xmlns="http://www.w3.org/2000/svg" width="20.277" height="17.861">
    <defs>
        <style>
            .cls-1{fill:#b1b1b1}
        </style>
    </defs>
    <g id="Group_2338" data-name="Group 2338" transform="translate(-231.758 -362.366)">
        <path id="Path_2633" data-name="Path 2633" class="cls-1" d="M246.036 376.643a7.563 7.563 0 1 1 0-10.693.684.684 0 1 0 .967-.969 8.931 8.931 0 1 0 0 12.63.684.684 0 1 0-.967-.968z"/>
        <path id="Path_2634" data-name="Path 2634" class="cls-1" d="m251.834 370.813-2.915-2.916a.685.685 0 0 0-.968.969l1.746 1.746h-10.008a.684.684 0 1 0 0 1.369H249.7l-1.746 1.747a.684.684 0 0 0 .968.968l2.915-2.915a.683.683 0 0 0-.003-.968z"/>
    </g>
</svg>
