<svg xmlns="http://www.w3.org/2000/svg" width="25" height="25">
    <defs>
        <style>
            .cls-1{fill:#57bdaf}
        </style>
    </defs>
    <g id="Group_2306" data-name="Group 2306" transform="translate(-714.702 -886.685)">
        <path id="Path_1499" data-name="Path 1499" class="cls-1" d="M725.236 892.048a8.451 8.451 0 0 1 1.954-.228h.012c5.668 0 9.392 5.7 10.357 7.364a18.4 18.4 0 0 1-1.881 2.693 1 1 0 1 0 1.53 1.287 20.328 20.328 0 0 0 2.375-3.508 1 1 0 0 0 .013-.919c-.182-.364-4.549-8.917-12.393-8.917a9.381 9.381 0 0 0-2.427.281 1 1 0 0 0 .46 1.947z"/>
        <path id="Path_1500" data-name="Path 1500" class="cls-1" d="m739.409 909.978-23-23a1 1 0 0 0-1.414 1.414l4.523 4.523a20.149 20.149 0 0 0-4.7 5.8 1 1 0 0 0-.013.92c.182.364 4.548 8.917 12.411 8.917a11.439 11.439 0 0 0 6.08-1.853l4.7 4.7a1 1 0 0 0 1.414-1.414zm-14.282-11.454 2.728 2.728a2.133 2.133 0 0 1-.657.134 2.19 2.19 0 0 1-1.528-.58 2.125 2.125 0 0 1-.67-1.492 2.162 2.162 0 0 1 .127-.79zm2.075 8.024c-5.668 0-9.392-5.7-10.357-7.362a18.1 18.1 0 0 1 4.088-4.856l2.708 2.708a4.136 4.136 0 0 0 3.49 6.349h.127a4.1 4.1 0 0 0 2.079-.651l2.5 2.5a9.44 9.44 0 0 1-4.637 1.312z"/>
    </g>
</svg>
