<svg xmlns="http://www.w3.org/2000/svg" width="23.515" height="23.515" viewBox="0 0 23.515 23.515">
  <defs>
    <style>
      .cls-1 {
        fill: #fff;
      }
    </style>
  </defs>
  <g id="Group_1979" data-name="Group 1979" transform="translate(-1360 -2930)">
    <g id="Group_93" data-name="Group 93" transform="translate(1360 2930)">
      <g id="Group_88" data-name="Group 88" transform="translate(0 0)">
        <g id="Group_87" data-name="Group 87">
          <path id="Path_285" data-name="Path 285" class="cls-1" d="M1150.116,76.337c3.139,0,3.51.012,4.75.069a6.5,6.5,0,0,1,2.184.4,3.9,3.9,0,0,1,2.232,2.232,6.5,6.5,0,0,1,.4,2.182c.057,1.241.069,1.612.069,4.751s-.012,3.511-.069,4.751a6.5,6.5,0,0,1-.4,2.182,3.9,3.9,0,0,1-2.232,2.232,6.5,6.5,0,0,1-2.184.4c-1.24.057-1.611.069-4.75.069s-3.512-.012-4.751-.069a6.5,6.5,0,0,1-2.182-.4,3.9,3.9,0,0,1-2.232-2.232,6.5,6.5,0,0,1-.4-2.182c-.057-1.241-.069-1.612-.069-4.751s.012-3.511.069-4.751a6.5,6.5,0,0,1,.4-2.182,3.9,3.9,0,0,1,2.232-2.232,6.5,6.5,0,0,1,2.182-.4c1.241-.057,1.612-.069,4.751-.069m0-2.118c-3.194,0-3.594.013-4.847.071a8.614,8.614,0,0,0-2.854.546,6,6,0,0,0-3.438,3.439,8.632,8.632,0,0,0-.547,2.854c-.058,1.254-.071,1.654-.071,4.847s.013,3.593.071,4.847a8.632,8.632,0,0,0,.547,2.854,6,6,0,0,0,3.438,3.439,8.614,8.614,0,0,0,2.854.546c1.254.057,1.654.071,4.847.071s3.593-.014,4.847-.071a8.617,8.617,0,0,0,2.854-.546,6.015,6.015,0,0,0,3.438-3.439,8.615,8.615,0,0,0,.546-2.854c.057-1.254.071-1.654.071-4.847s-.014-3.593-.071-4.847a8.615,8.615,0,0,0-.546-2.854,6.015,6.015,0,0,0-3.438-3.439,8.617,8.617,0,0,0-2.854-.546c-1.254-.058-1.655-.071-4.847-.071" transform="translate(-1138.359 -74.219)"/>
        </g>
      </g>
      <g id="Group_90" data-name="Group 90" transform="translate(5.72 5.72)">
        <g id="Group_89" data-name="Group 89">
          <path id="Path_286" data-name="Path 286" class="cls-1" d="M1149.232,79.055a6.037,6.037,0,1,0,6.038,6.037,6.037,6.037,0,0,0-6.038-6.037m0,9.956a3.919,3.919,0,1,1,3.919-3.919,3.918,3.918,0,0,1-3.919,3.919" transform="translate(-1143.195 -79.055)"/>
        </g>
      </g>
      <g id="Group_92" data-name="Group 92" transform="translate(16.622 4.07)">
        <g id="Group_91" data-name="Group 91">
          <path id="Path_287" data-name="Path 287" class="cls-1" d="M1155.234,79.071a1.411,1.411,0,1,1-1.411-1.411,1.411,1.411,0,0,1,1.411,1.411" transform="translate(-1152.412 -77.66)"/>
        </g>
      </g>
    </g>
  </g>
</svg>
