<svg xmlns="http://www.w3.org/2000/svg" width="22.155" height="21.844" viewBox="0 0 22.155 21.844">
  <defs>
    <style>
      .cls-1 {
        fill: #fff;
      }
    </style>
  </defs>
  <g id="Group_1982" data-name="Group 1982" transform="translate(-1211 -3005)">
    <g id="Group_94" data-name="Group 94" transform="translate(1211 3005)">
      <path id="Path_288" data-name="Path 288" class="cls-1" d="M1204.526,77.293a2.362,2.362,0,0,1-2.555,2.369,2.374,2.374,0,1,1,2.555-2.369Zm-4.892,19.475V81.531h4.737V96.768Z" transform="translate(-1199.509 -74.925)"/>
      <path id="Path_289" data-name="Path 289" class="cls-1" d="M1206.034,85.424c0-1.9-.063-3.489-.124-4.861h4.113l.219,2.12h.094a5.467,5.467,0,0,1,4.706-2.463c3.115,0,5.453,2.089,5.453,6.575v9h-4.736V87.356c0-1.962-.686-3.3-2.4-3.3a2.6,2.6,0,0,0-2.431,1.775,3.434,3.434,0,0,0-.156,1.185V95.8h-4.736Z" transform="translate(-1198.339 -73.957)"/>
    </g>
  </g>
</svg>
