<svg xmlns="http://www.w3.org/2000/svg" width="615.428" height="384.47">
    <path data-name="Path 298" d="M819.485 2255.513h579.807v-20.733a10.38 10.38 0 0 1 0-20.737v-19.422a10.38 10.38 0 0 1 0-20.737v-19.422a10.379 10.379 0 0 1 0-20.735v-19.422a10.38 10.38 0 0 1 0-20.737v-19.422a10.38 10.38 0 0 1 0-20.737v-19.422a10.38 10.38 0 0 1 0-20.737v-19.422a10.38 10.38 0 0 1 0-20.737v-19.421a10.38 10.38 0 0 1 0-20.737v-19.422a10.38 10.38 0 0 1 0-20.737v-20.733H819.485c-19.121 0-34.621 16.251-34.621 36.3v310.876c0 20.046 15.5 36.296 34.621 36.296z" transform="translate(-784.364 -1871.543)" style="fill:#fff;stroke:#fff"/>
</svg>
