<svg xmlns="http://www.w3.org/2000/svg" width="21.928" height="21.939">
    <path data-name="Path 1502" d="m21.596 19.863-3.976-3.938a9.983 9.983 0 0 0-.794-13.051 9.865 9.865 0 1 0-6.949 16.861h.012a9.834 9.834 0 0 0 6.056-2.1l3.937 3.931a1.168 1.168 0 0 0 1.642.06 1.25 1.25 0 0 0 .072-1.763zM9.919 2.376a7.342 7.342 0 0 1 5.238 2.215 7.492 7.492 0 0 1 2.2 5.271 7.335 7.335 0 0 1-2.208 5.271h-.005a7.51 7.51 0 0 1-5.275 2.206H9.83a7.34 7.34 0 0 1-5.236-2.213 7.509 7.509 0 0 1-2.198-5.269A7.345 7.345 0 0 1 4.612 4.58a7.5 7.5 0 0 1 5.271-2.2z"/>
</svg>
