<svg xmlns="http://www.w3.org/2000/svg" width="18.991" height="19" viewBox="0 0 18.991 19">
  <defs>
    <style>
      .cls-1 {
        fill: #0a142f;
      }
    </style>
  </defs>
  <path id="Path_299" data-name="Path 299" class="cls-1" d="M646.709,347.746l-3.444-3.41a8.646,8.646,0,0,0-.688-11.3,8.544,8.544,0,1,0-6.019,14.6h.011a8.517,8.517,0,0,0,5.245-1.815l3.409,3.4a1.011,1.011,0,0,0,1.422.052A1.082,1.082,0,0,0,646.709,347.746ZM636.6,332.6a6.359,6.359,0,0,1,4.536,1.919,6.489,6.489,0,0,1,1.909,4.565,6.353,6.353,0,0,1-1.912,4.565l0,0a6.5,6.5,0,0,1-4.569,1.911h-.033a6.357,6.357,0,0,1-4.534-1.917,6.5,6.5,0,0,1-1.911-4.568,6.361,6.361,0,0,1,1.92-4.57,6.492,6.492,0,0,1,4.565-1.909Z" transform="translate(-628.004 -330.543)"/>
</svg>
