<svg xmlns="http://www.w3.org/2000/svg" fill="#cbcbcb" width="25.878" height="17.259" viewBox="0 0 25.878 17.259">
  <path id="Icon_ionic-ios-arrow-round-back" data-name="Icon ionic-ios-arrow-round-back" d="M24.385,11.582a1.175,1.175,0,0,0-.009,1.654l5.456,5.474H9.042a1.169,1.169,0,0,0,0,2.337H29.832l-5.465,5.474a1.183,1.183,0,0,0,.009,1.654,1.164,1.164,0,0,0,1.645-.009l7.407-7.461h0a1.312,1.312,0,0,0,.243-.369,1.115,1.115,0,0,0,.09-.449,1.172,1.172,0,0,0-.333-.818l-7.407-7.461A1.145,1.145,0,0,0,24.385,11.582Z" transform="translate(-7.882 -11.252)"/>
</svg>
