<svg xmlns="http://www.w3.org/2000/svg" width="127.086" height="59.831" viewBox="0 0 127.086 59.831">
  <g id="Group_1789" data-name="Group 1789" transform="translate(-1185.471 -655.011)">
    <g id="Group_11" data-name="Group 11" transform="translate(1242.914 655.011)">
      <g id="Group_8" data-name="Group 8">
        <g id="Group_7" data-name="Group 7">
          <path id="Path_1" data-name="Path 1" d="M1315.31,673.174v-8.241h3.811v8.241h1.633v-8.241h3.812v8.241h1.633V656.226a1.215,1.215,0,0,0-1.214-1.215h-10.093a1.215,1.215,0,0,0-1.214,1.215v16.948Zm0-14.053v-1.263a1.215,1.215,0,0,1,1.215-1.215h6.826a1.215,1.215,0,0,1,1.215,1.215v1.383h-9.256Zm0,1.754h9.255V663.3h-9.256Z" transform="translate(-1313.677 -655.011)"/>
        </g>
      </g>
      <g id="Group_10" data-name="Group 10" transform="translate(0 36.55)">
        <g id="Group_9" data-name="Group 9">
          <path id="Path_2" data-name="Path 2" d="M1324.566,736.587v8.183a5.137,5.137,0,0,0-1.3-.167,5.05,5.05,0,0,0-2.51.658v-8.674h-1.633v8.673a5.057,5.057,0,0,0-2.51-.657,5.149,5.149,0,0,0-1.3.167v-8.183h-1.633v9.4c0,.009,0,.019,0,.028a.794.794,0,0,0,.062.279l3.175,7.62,0,.01,2.265,5.436a.817.817,0,0,0,1.508,0l2.266-5.438,0-.005,3.176-7.623a.8.8,0,0,0,.061-.278c0-.01,0-.019,0-.029v-9.4Zm-2.9,16.2h-3.448l-2.662-6.39a3.509,3.509,0,0,1,1.059-.164,3.218,3.218,0,0,1,2.658,1.306.817.817,0,0,0,1.337,0,3.219,3.219,0,0,1,2.658-1.307,3.54,3.54,0,0,1,1.06.164Z" transform="translate(-1313.677 -736.587)"/>
        </g>
      </g>
    </g>
    <g id="Group_12" data-name="Group 12" transform="translate(1185.471 674.728)">
      <path id="Path_3" data-name="Path 3" d="M1188.081,716.1c-1.689,0-2.563-.906-2.61-2.732,0-.092.031-.154.123-.169l1.29-.215a.133.133,0,0,1,.168.138c.047,1.1.368,1.535,1.074,1.535.66,0,.983-.353.983-1.488,0-1.121-.215-1.489-1.028-1.811l-.629-.246c-1.443-.568-1.873-1.32-1.873-2.947,0-1.8.813-2.778,2.532-2.778s2.471.921,2.563,2.548c0,.092-.046.138-.139.169l-1.228.184c-.092.016-.169-.031-.169-.123-.03-.859-.306-1.335-.982-1.335-.645,0-.952.4-.952,1.259,0,.967.184,1.258,1.013,1.581l.63.246c1.366.537,1.9,1.274,1.9,3.055C1190.751,715.026,1190.06,716.1,1188.081,716.1Z" transform="translate(-1185.471 -702.533)"/>
      <path id="Path_4" data-name="Path 4" d="M1200.028,709.79v-7.628a.145.145,0,0,1,.153-.154h1.336a.145.145,0,0,1,.153.154v7.843a.956.956,0,0,0,.967,1.09c.614,0,.952-.43.952-1.09v-7.843a.145.145,0,0,1,.153-.154h1.336a.145.145,0,0,1,.154.154v7.628c0,1.857-.983,2.794-2.594,2.794S1200.028,711.648,1200.028,709.79Zm.936-9.148a.145.145,0,0,1-.154-.153v-1.32a.145.145,0,0,1,.154-.153h1a.145.145,0,0,1,.154.153v1.32a.145.145,0,0,1-.154.153Zm2.333,0a.145.145,0,0,1-.154-.153v-1.32a.145.145,0,0,1,.154-.153h1a.145.145,0,0,1,.154.153v1.32a.145.145,0,0,1-.154.153Z" transform="translate(-1193.506 -699.016)"/>
      <path id="Path_5" data-name="Path 5" d="M1214.825,710.743c0-2.9.046-3.269.2-3.729a2.364,2.364,0,0,1,2.471-1.627,2.4,2.4,0,0,1,2.594,2.44.159.159,0,0,1-.123.184l-1.243.215a.135.135,0,0,1-.169-.123c-.076-.813-.43-1.228-1.044-1.228a.894.894,0,0,0-.906.583c-.092.291-.107.414-.107,3.284s.015,2.993.107,3.285a1.031,1.031,0,0,0,1.857,0,8.651,8.651,0,0,0,.108-2.348.081.081,0,0,0-.092-.092h-.814a.145.145,0,0,1-.154-.154V710.3a.145.145,0,0,1,.154-.154H1220a.145.145,0,0,1,.153.154v.461c0,2.885-.046,3.254-.2,3.714a2.678,2.678,0,0,1-4.927,0C1214.871,714.013,1214.825,713.644,1214.825,710.743Z" transform="translate(-1201.673 -702.533)"/>
      <path id="Path_6" data-name="Path 6" d="M1230.161,705.849c.031-.092.077-.154.169-.154h1.29a.167.167,0,0,1,.169.154l2.21,10.13a.118.118,0,0,1-.123.154h-1.3a.157.157,0,0,1-.169-.154l-.414-2.1h-2.072l-.414,2.1a.158.158,0,0,1-.169.154h-1.3a.117.117,0,0,1-.123-.154Zm1.566,6.646-.736-3.883h-.047l-.767,3.883Z" transform="translate(-1208.891 -702.702)"/>
      <path id="Path_7" data-name="Path 7" d="M1243.488,716.132c-.092,0-.138-.061-.153-.154l-2.072-10.13c-.016-.092.015-.154.138-.154h1.32c.093,0,.138.046.154.154l1.212,7.045h.046l1.166-7.045a.157.157,0,0,1,.169-.154h1.289c.123,0,.154.061.138.154l-2.072,10.13c-.015.093-.061.154-.153.154Z" transform="translate(-1216.263 -702.702)"/>
      <path id="Path_8" data-name="Path 8" d="M1262.023,705.849a.145.145,0,0,1,.154-.154h4.282a.145.145,0,0,1,.153.154v1.182a.145.145,0,0,1-.153.153h-2.7a.082.082,0,0,0-.092.092v2.747a.082.082,0,0,0,.092.092h2.333a.145.145,0,0,1,.153.153v1.182a.145.145,0,0,1-.153.154h-2.333a.081.081,0,0,0-.092.092v2.855a.081.081,0,0,0,.092.092h2.7a.145.145,0,0,1,.153.154v1.182a.145.145,0,0,1-.153.154h-4.282a.145.145,0,0,1-.154-.154Z" transform="translate(-1227.724 -702.702)"/>
      <path id="Path_9" data-name="Path 9" d="M1274.662,707.3c0-2.9.046-3.269.2-3.73a2.365,2.365,0,0,1,2.471-1.627,2.4,2.4,0,0,1,2.594,2.44.159.159,0,0,1-.123.184l-1.243.215a.136.136,0,0,1-.169-.123c-.077-.813-.43-1.228-1.043-1.228a.894.894,0,0,0-.906.583c-.092.291-.108.414-.108,3.284s.016,2.993.108,3.285a1.031,1.031,0,0,0,1.857,0,8.681,8.681,0,0,0,.108-2.348.081.081,0,0,0-.092-.092h-.813a.145.145,0,0,1-.154-.154v-1.136a.145.145,0,0,1,.154-.154h2.333a.145.145,0,0,1,.153.154v.461c0,2.885-.046,3.254-.2,3.714a2.678,2.678,0,0,1-4.927,0C1274.708,710.571,1274.662,710.2,1274.662,707.3Zm.737-8a.145.145,0,0,1,.153-.154h.69c.092,0,.123.061.154.154a.934.934,0,0,0,1.826,0c.031-.092.062-.154.154-.154h.691a.145.145,0,0,1,.153.154,1.913,1.913,0,0,1-3.821,0Z" transform="translate(-1234.7 -699.091)"/>
      <path id="Path_10" data-name="Path 10" d="M1289.665,702.162a.145.145,0,0,1,.154-.154h1.335a.145.145,0,0,1,.153.154v10.13a.145.145,0,0,1-.153.154h-1.335a.145.145,0,0,1-.154-.154Zm.2-1.52a.145.145,0,0,1-.153-.153v-1.32a.145.145,0,0,1,.153-.153h1.259a.145.145,0,0,1,.153.153v1.32a.145.145,0,0,1-.153.153Z" transform="translate(-1242.98 -699.016)"/>
      <path id="Path_11" data-name="Path 11" d="M1297.62,716.132a.145.145,0,0,1-.154-.154v-8.7a.081.081,0,0,0-.092-.092h-1.6a.145.145,0,0,1-.154-.153v-1.182a.145.145,0,0,1,.154-.154h5.018a.145.145,0,0,1,.154.154v1.182a.145.145,0,0,1-.154.153h-1.6a.082.082,0,0,0-.092.092v8.7a.144.144,0,0,1-.153.154Z" transform="translate(-1246.27 -702.702)"/>
      <path id="Path_12" data-name="Path 12" d="M1309.8,702.162a.145.145,0,0,1,.153-.154h1.336a.145.145,0,0,1,.154.154v10.13a.145.145,0,0,1-.154.154h-1.336a.144.144,0,0,1-.153-.154Zm.2-1.52a.145.145,0,0,1-.154-.153v-1.32a.145.145,0,0,1,.154-.153h1.259a.144.144,0,0,1,.153.153v1.32a.144.144,0,0,1-.153.153Z" transform="translate(-1254.097 -699.016)"/>
      <path id="Path_13" data-name="Path 13" d="M1317.1,705.849a.145.145,0,0,1,.153-.154h1.336c.138,0,.215.046.246.154l1.734,5.878h.061l1.689-5.878c.03-.108.107-.154.245-.154h1.32a.145.145,0,0,1,.153.154v10.13a.145.145,0,0,1-.153.154H1322.7a.144.144,0,0,1-.153-.154v-6.6h-.092l-1.35,4.743a.2.2,0,0,1-.2.154h-.676a.2.2,0,0,1-.2-.154l-1.351-4.743h-.092v6.6a.145.145,0,0,1-.154.154h-1.182a.144.144,0,0,1-.153-.154Z" transform="translate(-1258.124 -702.702)"/>
      <path id="Path_14" data-name="Path 14" d="M1343.011,716.132a.145.145,0,0,1-.154-.154v-10.13a.145.145,0,0,1,.154-.154h2.1c1.857,0,2.962.829,2.962,3.208,0,2.318-1.105,3.208-2.962,3.208h-.523a.082.082,0,0,0-.092.092v3.775a.144.144,0,0,1-.153.154Zm3.423-7.229c0-1.32-.384-1.719-1.32-1.719h-.523a.082.082,0,0,0-.092.092v3.253a.082.082,0,0,0,.092.092h.523C1346.05,710.622,1346.434,710.223,1346.434,708.9Z" transform="translate(-1272.34 -702.702)"/>
      <path id="Path_15" data-name="Path 15" d="M1357.415,705.849a.145.145,0,0,1,.154-.154h1.335a.145.145,0,0,1,.153.154v8.7a.081.081,0,0,0,.092.092h2.7a.145.145,0,0,1,.154.154v1.182a.145.145,0,0,1-.154.154h-4.282a.145.145,0,0,1-.154-.154Z" transform="translate(-1280.375 -702.702)"/>
      <path id="Path_16" data-name="Path 16" d="M1371,705.849c.031-.092.077-.154.169-.154h1.29a.167.167,0,0,1,.169.154l2.21,10.13a.118.118,0,0,1-.123.154h-1.3a.158.158,0,0,1-.169-.154l-.414-2.1h-2.072l-.415,2.1a.157.157,0,0,1-.168.154h-1.3a.118.118,0,0,1-.123-.154Zm1.565,6.646-.736-3.883h-.047l-.767,3.883Z" transform="translate(-1286.629 -702.702)"/>
      <path id="Path_17" data-name="Path 17" d="M1383.729,716.132a.145.145,0,0,1-.154-.154v-8.7a.082.082,0,0,0-.092-.092h-1.6a.145.145,0,0,1-.154-.153v-1.182a.145.145,0,0,1,.154-.154h5.019a.145.145,0,0,1,.154.154v1.182a.145.145,0,0,1-.154.153h-1.6a.081.081,0,0,0-.092.092v8.7a.145.145,0,0,1-.154.154Z" transform="translate(-1293.797 -702.702)"/>
      <path id="Path_18" data-name="Path 18" d="M1395.914,705.849a.145.145,0,0,1,.154-.154h4.282a.145.145,0,0,1,.153.154v1.182a.145.145,0,0,1-.153.153h-2.7a.081.081,0,0,0-.092.092V710.1a.081.081,0,0,0,.092.092h2.333a.145.145,0,0,1,.154.154v1.182a.145.145,0,0,1-.154.153h-2.333a.081.081,0,0,0-.092.092v4.2a.145.145,0,0,1-.154.154h-1.335a.145.145,0,0,1-.154-.154Z" transform="translate(-1301.624 -702.702)"/>
      <path id="Path_19" data-name="Path 19" d="M1408.581,714.473c-.154-.46-.2-.829-.2-3.73s.046-3.269.2-3.729a2.678,2.678,0,0,1,4.927,0c.154.46.2.829.2,3.729s-.046,3.269-.2,3.73a2.678,2.678,0,0,1-4.927,0Zm3.346-.445c.092-.292.107-.414.107-3.285s-.015-2.993-.107-3.284a.959.959,0,0,0-1.765,0c-.092.291-.107.414-.107,3.284s.015,2.993.107,3.285a.959.959,0,0,0,1.765,0Z" transform="translate(-1308.506 -702.533)"/>
      <path id="Path_20" data-name="Path 20" d="M1427.446,716.132a.155.155,0,0,1-.169-.107L1426,711.865h-.783a.081.081,0,0,0-.092.092v4.021a.145.145,0,0,1-.153.154h-1.336a.145.145,0,0,1-.154-.154v-10.13a.145.145,0,0,1,.154-.154h2.1c1.857,0,2.978.814,2.978,3.1a2.8,2.8,0,0,1-1.243,2.67l1.474,4.512c.03.077,0,.154-.077.154Zm-.368-7.336c0-1.228-.4-1.612-1.319-1.612h-.538a.081.081,0,0,0-.092.092v3.039a.081.081,0,0,0,.092.092h.538C1426.678,710.407,1427.077,710.039,1427.077,708.8Z" transform="translate(-1316.843 -702.702)"/>
      <path id="Path_21" data-name="Path 21" d="M1438.42,705.849a.145.145,0,0,1,.154-.154h1.335c.138,0,.215.046.246.154l1.734,5.878h.061l1.688-5.878c.031-.108.107-.154.245-.154h1.32a.145.145,0,0,1,.153.154v10.13a.145.145,0,0,1-.153.154h-1.182a.145.145,0,0,1-.154-.154v-6.6h-.092l-1.35,4.743a.2.2,0,0,1-.2.154h-.676a.2.2,0,0,1-.2-.154L1440,709.379h-.092v6.6a.145.145,0,0,1-.154.154h-1.182a.145.145,0,0,1-.154-.154Z" transform="translate(-1325.086 -702.702)"/>
      <path id="Path_22" data-name="Path 22" d="M1457.5,713.477v-7.628a.145.145,0,0,1,.154-.154h1.335a.145.145,0,0,1,.153.154v7.843a.956.956,0,0,0,.967,1.09c.614,0,.952-.43.952-1.09v-7.843a.145.145,0,0,1,.154-.154h1.336a.145.145,0,0,1,.153.154v7.628c0,1.857-.982,2.794-2.594,2.794S1457.5,715.334,1457.5,713.477Z" transform="translate(-1335.616 -702.702)"/>
    </g>
  </g>
</svg>
