<svg xmlns="http://www.w3.org/2000/svg" width="25.871" height="21.024" viewBox="0 0 25.871 21.024">
  <defs>
    <style>
      .cls-1 {
        fill: #fff;
      }
    </style>
  </defs>
  <g id="Group_1980" data-name="Group 1980" transform="translate(-1284 -2931)">
    <g id="Group_86" data-name="Group 86" transform="translate(1284 2931)">
      <g id="Group_85" data-name="Group 85">
        <g id="Group_84" data-name="Group 84">
          <path id="Path_284" data-name="Path 284" class="cls-1" d="M1076.788,93.911a15.1,15.1,0,0,0,23.223-13.4,10.769,10.769,0,0,0,2.648-2.748,10.634,10.634,0,0,1-3.048.836,5.318,5.318,0,0,0,2.332-2.937,10.652,10.652,0,0,1-3.37,1.289,5.311,5.311,0,0,0-9.044,4.84,15.061,15.061,0,0,1-10.94-5.546,5.315,5.315,0,0,0,1.643,7.088,5.278,5.278,0,0,1-2.4-.665,5.312,5.312,0,0,0,4.257,5.272,5.32,5.32,0,0,1-2.4.091,5.312,5.312,0,0,0,4.957,3.686A10.667,10.667,0,0,1,1076.788,93.911Z" transform="translate(-1076.788 -75.272)"/>
        </g>
      </g>
    </g>
  </g>
</svg>
