<svg xmlns="http://www.w3.org/2000/svg" width="27.348" height="19.372" viewBox="0 0 27.348 19.372">
  <defs>
    <style>
      .cls-1 {
        fill: #fff;
        fill-rule: evenodd;
      }
    </style>
  </defs>
  <path id="Path_283" data-name="Path 283" class="cls-1" d="M1267.6,88.421V80.683l7.389,3.883Zm16.225-9.08a5.992,5.992,0,0,0-1.088-2.734,3.89,3.89,0,0,0-2.74-1.166c-3.826-.279-9.567-.279-9.567-.279h-.012s-5.74,0-9.567.279a3.89,3.89,0,0,0-2.74,1.166,5.969,5.969,0,0,0-1.086,2.734,41.913,41.913,0,0,0-.274,4.457v2.09a41.914,41.914,0,0,0,.274,4.457,5.969,5.969,0,0,0,1.086,2.734,4.612,4.612,0,0,0,3.016,1.177c2.188.212,9.3.278,9.3.278s5.746-.009,9.573-.287a3.9,3.9,0,0,0,2.74-1.167,5.992,5.992,0,0,0,1.088-2.734,41.969,41.969,0,0,0,.273-4.457V83.8A41.969,41.969,0,0,0,1283.823,79.342Z" transform="translate(-1256.749 -75.163)"/>
</svg>
